<svg width="195" height="173" viewBox="0 0 195 173" fill="none" xmlns="http://www.w3.org/2000/svg">
<path d="M94.1132 25.0576H11.5645V79.0003H94.1132V25.0576Z" fill="#DBDBDB"/>
<path d="M11.5645 79.001V91.3027L24.8493 79.001H11.5645Z" fill="#DBDBDB"/>
<path d="M100.888 108.293L183.437 108.293V54.3503L100.888 54.3503L100.888 108.293Z" fill="#EBEBEB"/>
<path d="M183.437 108.289V120.591L170.152 108.289H183.437Z" fill="#EBEBEB"/>
<path d="M19.6414 103.631H8.48438V107.975H19.6414V103.631Z" fill="#EBEBEB"/>
<path d="M13.4178 109.108H2.26074V113.452H13.4178V109.108Z" fill="#EBEBEB"/>
<path d="M25.8641 109.108H14.707V113.452H25.8641V109.108Z" fill="#EBEBEB"/>
<path d="M186.516 126.927H175.359V131.271H186.516V126.927Z" fill="#EBEBEB"/>
<path d="M186.516 16.3975H175.359V20.7413H186.516V16.3975Z" fill="#EBEBEB"/>
<path d="M192.74 21.875H181.583V26.2188H192.74V21.875Z" fill="#EBEBEB"/>
<path d="M13.4178 16.4014H2.26074V20.7452H13.4178V16.4014Z" fill="#EBEBEB"/>
<path d="M73.8469 93.9111H85.0039V89.5673H73.8469V93.9111Z" fill="#EBEBEB"/>
<path d="M80.0695 88.4336H91.2266V84.0898H80.0695V88.4336Z" fill="#EBEBEB"/>
<path d="M169.473 0.998047H169.052V30.0384H169.473V0.998047Z" fill="#C7C7C7"/>
<path d="M171.87 27.3252H166.654V32.5269H171.87V27.3252Z" fill="#DBDBDB"/>
<path d="M179.931 49.122H158.595C159.016 41.6416 162.897 29.6582 169.267 29.6582C175.638 29.6582 179.506 41.6377 179.931 49.122Z" fill="#DBDBDB"/>
<path d="M142.377 0.998047H141.956V30.0384H142.377V0.998047Z" fill="#C7C7C7"/>
<path d="M144.775 27.3252H139.559V32.5269H144.775V27.3252Z" fill="#DBDBDB"/>
<path d="M152.835 49.122H131.494C131.915 41.6416 135.796 29.6582 142.167 29.6582C148.537 29.6582 152.409 41.6377 152.835 49.122Z" fill="#DBDBDB"/>
<path d="M115.277 0.998047H114.855V30.0384H115.277V0.998047Z" fill="#C7C7C7"/>
<path d="M117.678 27.3252H112.462V32.5269H117.678V27.3252Z" fill="#DBDBDB"/>
<path d="M125.73 49.122H104.397C104.819 41.6416 108.699 29.6582 115.066 29.6582C121.432 29.6582 125.309 41.6377 125.73 49.122Z" fill="#DBDBDB"/>
<path d="M0.629883 143.393L24.8484 143.3L49.067 143.265L97.4999 143.199L145.933 143.265L170.151 143.3L194.37 143.393L170.151 143.49L145.933 143.525L97.4999 143.587L49.067 143.521L24.8484 143.49L0.629883 143.393Z" fill="#263238"/>
<path d="M97.4995 164.274C146.55 164.274 186.314 159.696 186.314 154.049C186.314 148.402 146.55 143.824 97.4995 143.824C48.4489 143.824 8.68555 148.402 8.68555 154.049C8.68555 159.696 48.4489 164.274 97.4995 164.274Z" fill="#EBEBEB"/>
<path d="M56.4866 172.554C70.8721 172.554 82.5338 169.846 82.5338 166.506C82.5338 163.166 70.8721 160.458 56.4866 160.458C42.1012 160.458 30.4395 163.166 30.4395 166.506C30.4395 169.846 42.1012 172.554 56.4866 172.554Z" fill="#EBEBEB"/>
<path d="M123.23 113.949C127.242 118.743 134.476 120.766 140.855 121.325C147.356 121.903 154.709 121.581 160.708 119.046C163.338 117.94 165.765 116.282 167.366 114.077C169.08 111.713 169.367 109.182 167.711 106.865C166.38 104.997 163.367 103.6 163.422 101.927C163.477 100.254 165.044 98.9804 165.529 97.385C166.346 94.6676 164.774 92.552 162.718 90.7042C157.848 86.3216 159.419 80.7821 156.525 75.4251C154.877 72.3817 150.112 66.7142 141.12 68.9579C137.699 69.8158 135.276 72.5292 133.789 75.3669C132.045 78.7092 133.031 83.2044 130.928 86.4031C129.129 89.1204 126.631 89.5086 124.903 92.3657C124.153 93.6079 123.761 95.083 125.139 98.1031C125.64 99.2017 126.15 100.863 125.607 102.132C124.853 103.891 122.489 104.636 121.655 106.469C120.5 108.988 121.461 111.822 123.23 113.949Z" fill="#263238"/>
<path d="M165.356 114.725C168.428 114.364 169.881 110.595 168.015 108.592C166.835 107.318 165.011 106.693 163.827 105.428C161.88 103.347 163.751 101.577 164.914 99.605C167.442 95.3698 164.311 92.373 160.991 89.613C158.463 87.5168 158.042 85.1876 157.966 82.2102C157.966 82.1637 158.05 82.1598 158.054 82.2102C158.219 84.4074 158.476 86.5657 160.106 88.3281C161.429 89.7605 163.224 90.7659 164.505 92.2488C166.65 94.7371 166.827 97.3729 165.154 100.094C164.678 100.87 163.785 101.752 163.57 102.613C163.068 104.648 164.733 105.754 166.313 106.806C167.522 107.613 168.866 108.51 169.283 109.892C169.915 111.977 167.77 114.721 165.394 114.88C165.272 114.9 165.234 114.725 165.356 114.725Z" fill="#263238"/>
<path d="M163.62 116.764C165.529 115.789 167.598 114.916 168.761 113.154C170.484 110.541 168.52 108.495 166.679 106.554C165.887 105.724 165.238 104.901 165.318 103.763C165.436 102.059 166.86 100.658 167.147 98.9809C167.825 94.9631 163.506 92.3817 161.387 89.3849C159.221 86.2793 158.606 82.743 157.898 79.226C157.898 79.2112 157.903 79.1969 157.913 79.1854C157.923 79.1739 157.937 79.166 157.953 79.1632C157.969 79.1604 157.985 79.1629 157.999 79.1701C158.013 79.1773 158.024 79.1889 158.029 79.2027C158.964 83.694 160.279 87.9408 163.65 91.4617C166.005 93.9267 168.508 96.5935 167.265 100.037C166.957 100.883 166.376 101.644 166.089 102.49C165.525 104.171 165.997 105.281 167.189 106.523C168.381 107.766 169.679 108.95 169.848 110.607C170.176 113.829 166.57 115.859 163.755 117.02C163.719 117.031 163.68 117.029 163.645 117.016C163.611 117.002 163.582 116.978 163.566 116.946C163.549 116.915 163.546 116.879 163.556 116.846C163.566 116.812 163.589 116.783 163.62 116.764Z" fill="#263238"/>
<path d="M120.863 105.44C122.43 103.523 124.866 102.603 124.301 99.8076C123.909 97.8666 122.793 96.3139 123.269 94.2992C123.661 92.6261 124.883 91.3451 126.315 90.2659C128.135 88.8956 130.133 87.797 131.477 85.9958C132.943 84.0238 133.634 81.6908 134.346 79.4393C134.346 79.3966 134.443 79.416 134.434 79.4393C133.672 82.506 132.749 85.6503 130.128 87.8979C128.759 89.0625 127.103 89.9515 125.746 91.1393C123.307 93.2782 123.277 95.6734 124.255 98.4179C124.701 99.6756 125.098 100.941 124.436 102.207C123.775 103.472 122.422 104.237 121.461 105.285C117.383 109.749 123.387 115.599 128.43 116.515C128.658 116.554 128.624 116.872 128.388 116.834C124.617 116.255 120.673 113.088 119.902 109.706C119.722 108.973 119.715 108.213 119.881 107.477C120.046 106.741 120.381 106.047 120.863 105.44Z" fill="#263238"/>
<path d="M120.985 107.866C121.061 105.839 122.485 104.737 123.597 103.161C125.346 100.684 123.623 98.1881 123.458 95.5407C123.34 93.6968 124.196 92.1479 125.481 90.8242C127.204 89.0385 129.395 87.7808 130.823 85.7234C132.319 83.5321 133.066 80.9775 132.968 78.3905C132.968 78.3439 133.048 78.3517 133.048 78.3905C133.191 80.1398 132.926 81.897 132.272 83.5445C131.618 85.192 130.59 86.6919 129.256 87.9438C127.528 89.5626 125.215 90.8669 124.225 93.064C123.18 95.3931 124.453 97.5398 124.765 99.8728C124.876 100.562 124.833 101.266 124.636 101.939C124.44 102.612 124.095 103.241 123.623 103.786C122.923 104.648 122.072 105.428 121.672 106.472C121.133 107.885 121.449 109.473 122.068 110.831C124.031 115.125 128.961 117.873 133.68 118.626C133.849 118.653 133.832 118.898 133.68 118.875C129.38 118.251 125.521 116.092 122.936 112.866C121.79 111.433 120.918 109.678 120.985 107.866Z" fill="#263238"/>
<path d="M142.368 99.7026C140.055 99.1902 135.285 104.749 131.084 113.196C124.343 126.724 120.791 143.393 120.791 143.393H142.751C142.751 143.393 148.351 101.019 142.368 99.7026Z" fill="#EB9481"/>
<path d="M118.12 144.259H109.158V145.548H118.12V144.259Z" fill="#C6AADF"/>
<path d="M118.12 144.259H109.158V145.109H118.12V144.259Z" fill="#263238"/>
<path d="M128.75 140.796C128.205 141.541 127.438 142.125 126.54 142.478C125.643 142.831 124.655 142.937 123.694 142.783C123.383 142.727 123.079 142.647 122.784 142.543C122.34 142.38 121.916 142.175 121.52 141.929L122.661 140.377C122.873 140.513 123.097 140.631 123.331 140.73C125.467 141.619 126.816 140.07 127.081 139.717C128.312 138.125 128.767 134.496 127.503 133.098C127.418 132.993 127.06 132.83 125.615 133.098C125.35 133.153 125.046 133.215 124.705 133.3C124.44 133.384 124.166 133.439 123.887 133.463L123.85 132.531L123.753 131.6C123.845 131.6 123.989 131.545 124.174 131.495C124.842 131.317 125.523 131.187 126.213 131.107C127.275 131.006 128.387 131.107 129.07 131.883C131.109 134.189 130.288 138.793 128.75 140.796Z" fill="#C6AADF"/>
<path d="M122.67 140.373C122.881 140.509 123.106 140.627 123.34 140.726L122.78 142.543C122.336 142.381 121.912 142.175 121.516 141.93L122.67 140.373Z" fill="#263238"/>
<path d="M126.23 131.118L125.628 133.11C125.363 133.164 125.059 133.226 124.718 133.311C124.453 133.395 124.179 133.45 123.9 133.474L123.863 132.543L123.766 131.611C123.858 131.611 124.002 131.557 124.187 131.506C124.856 131.328 125.539 131.198 126.23 131.118Z" fill="#263238"/>
<path d="M101.713 128.7C101.713 128.7 102.787 137.112 104.662 140.656C106.537 144.201 109.112 144.589 110.721 144.589H116.578C118.187 144.589 120.791 144.201 122.637 140.656C124.482 137.112 125.565 128.7 125.565 128.7H101.713Z" fill="#C6AADF"/>
<path d="M103.47 134.193C103.356 134.193 103.245 134.162 103.151 134.104C103.057 134.046 102.983 133.963 102.94 133.867C102.897 133.77 102.885 133.664 102.907 133.562C102.93 133.459 102.984 133.365 103.064 133.291C103.144 133.218 103.247 133.167 103.358 133.147C103.469 133.126 103.584 133.137 103.689 133.177C103.794 133.217 103.883 133.285 103.946 133.371C104.009 133.458 104.043 133.56 104.043 133.665C104.043 133.805 103.982 133.939 103.875 134.038C103.767 134.137 103.621 134.193 103.47 134.193ZM103.47 133.234C103.377 133.234 103.287 133.259 103.21 133.306C103.133 133.354 103.073 133.421 103.037 133.5C103.002 133.578 102.993 133.665 103.011 133.749C103.029 133.832 103.073 133.909 103.139 133.969C103.204 134.03 103.288 134.071 103.378 134.087C103.469 134.104 103.563 134.095 103.648 134.063C103.734 134.03 103.807 133.975 103.858 133.904C103.91 133.833 103.937 133.75 103.937 133.665C103.937 133.55 103.888 133.441 103.8 133.36C103.713 133.279 103.594 133.234 103.47 133.234Z" fill="white"/>
<path d="M120.454 131.476C120.34 131.476 120.228 131.446 120.132 131.388C120.037 131.33 119.962 131.247 119.918 131.149C119.874 131.052 119.862 130.945 119.884 130.841C119.906 130.738 119.961 130.642 120.042 130.568C120.123 130.493 120.226 130.443 120.339 130.422C120.451 130.402 120.567 130.413 120.673 130.453C120.779 130.494 120.869 130.563 120.932 130.651C120.995 130.739 121.028 130.842 121.027 130.948C121.027 131.088 120.967 131.222 120.86 131.321C120.752 131.42 120.606 131.476 120.454 131.476ZM120.454 130.513C120.361 130.512 120.269 130.537 120.191 130.584C120.113 130.632 120.052 130.699 120.016 130.779C119.979 130.858 119.969 130.946 119.987 131.03C120.005 131.115 120.049 131.193 120.115 131.254C120.181 131.315 120.265 131.357 120.357 131.374C120.448 131.391 120.543 131.383 120.63 131.35C120.716 131.317 120.79 131.261 120.842 131.19C120.894 131.118 120.922 131.034 120.922 130.948C120.922 130.833 120.873 130.723 120.785 130.642C120.698 130.56 120.579 130.514 120.454 130.513Z" fill="white"/>
<path d="M119.607 139.228C119.492 139.228 119.38 139.198 119.285 139.14C119.19 139.082 119.115 138.999 119.071 138.902C119.026 138.805 119.014 138.698 119.036 138.595C119.058 138.491 119.112 138.396 119.193 138.321C119.274 138.246 119.376 138.195 119.488 138.175C119.601 138.154 119.717 138.164 119.823 138.204C119.928 138.244 120.019 138.312 120.082 138.4C120.146 138.488 120.18 138.591 120.18 138.696C120.18 138.766 120.166 138.835 120.137 138.899C120.109 138.964 120.067 139.022 120.014 139.072C119.96 139.121 119.897 139.16 119.827 139.187C119.757 139.214 119.682 139.228 119.607 139.228ZM119.607 138.265C119.513 138.264 119.421 138.289 119.343 138.337C119.265 138.384 119.204 138.452 119.167 138.532C119.131 138.611 119.122 138.699 119.14 138.784C119.158 138.868 119.203 138.946 119.269 139.007C119.335 139.068 119.42 139.11 119.512 139.126C119.604 139.143 119.699 139.134 119.785 139.101C119.872 139.067 119.945 139.011 119.997 138.939C120.048 138.867 120.075 138.782 120.075 138.696C120.075 138.582 120.025 138.472 119.938 138.391C119.85 138.31 119.731 138.265 119.607 138.265Z" fill="white"/>
<path d="M124.288 130.09C124.175 130.09 124.064 130.059 123.97 130.001C123.875 129.943 123.802 129.861 123.758 129.764C123.715 129.668 123.704 129.562 123.726 129.459C123.748 129.357 123.803 129.263 123.883 129.189C123.963 129.115 124.065 129.065 124.176 129.044C124.287 129.024 124.402 129.034 124.507 129.074C124.612 129.114 124.701 129.182 124.764 129.269C124.827 129.356 124.861 129.458 124.861 129.562C124.86 129.702 124.799 129.836 124.692 129.934C124.585 130.033 124.439 130.089 124.288 130.09ZM124.288 129.131C124.195 129.131 124.105 129.156 124.028 129.204C123.951 129.251 123.891 129.318 123.856 129.397C123.82 129.476 123.811 129.563 123.829 129.646C123.847 129.73 123.892 129.807 123.957 129.867C124.023 129.927 124.106 129.968 124.197 129.985C124.287 130.001 124.381 129.993 124.467 129.96C124.552 129.928 124.625 129.872 124.677 129.801C124.728 129.731 124.756 129.647 124.756 129.562C124.756 129.448 124.706 129.338 124.619 129.257C124.531 129.177 124.412 129.131 124.288 129.131Z" fill="white"/>
<path d="M116.296 133.382C116.183 133.38 116.073 133.347 115.981 133.287C115.888 133.228 115.817 133.145 115.775 133.048C115.734 132.951 115.724 132.846 115.748 132.744C115.771 132.642 115.827 132.549 115.908 132.477C115.988 132.404 116.09 132.355 116.201 132.335C116.312 132.316 116.427 132.327 116.53 132.367C116.634 132.408 116.723 132.475 116.786 132.562C116.848 132.648 116.881 132.75 116.881 132.854C116.881 132.924 116.866 132.994 116.837 133.059C116.807 133.124 116.764 133.182 116.709 133.231C116.655 133.281 116.59 133.319 116.519 133.345C116.448 133.371 116.372 133.383 116.296 133.382ZM116.296 132.423C116.203 132.423 116.113 132.448 116.036 132.496C115.959 132.543 115.899 132.61 115.864 132.689C115.828 132.768 115.819 132.854 115.837 132.938C115.855 133.022 115.9 133.098 115.965 133.159C116.03 133.219 116.114 133.26 116.204 133.277C116.295 133.293 116.389 133.285 116.475 133.252C116.56 133.219 116.633 133.164 116.685 133.093C116.736 133.023 116.763 132.939 116.763 132.854C116.762 132.74 116.713 132.631 116.625 132.55C116.538 132.47 116.419 132.424 116.296 132.423Z" fill="white"/>
<path d="M110.055 139.007C109.941 139.008 109.828 138.977 109.733 138.919C109.637 138.861 109.563 138.778 109.518 138.68C109.474 138.583 109.462 138.476 109.485 138.372C109.507 138.269 109.562 138.174 109.643 138.099C109.724 138.025 109.827 137.974 109.939 137.953C110.052 137.933 110.168 137.944 110.274 137.985C110.379 138.025 110.469 138.094 110.533 138.182C110.596 138.27 110.629 138.374 110.628 138.479C110.628 138.548 110.613 138.617 110.584 138.681C110.556 138.745 110.513 138.803 110.46 138.852C110.407 138.901 110.344 138.94 110.274 138.967C110.205 138.993 110.13 139.007 110.055 139.007ZM110.055 138.044C109.962 138.044 109.87 138.068 109.792 138.116C109.714 138.163 109.652 138.231 109.616 138.31C109.58 138.389 109.57 138.477 109.588 138.561C109.605 138.646 109.65 138.724 109.716 138.785C109.782 138.846 109.866 138.888 109.957 138.905C110.049 138.922 110.144 138.914 110.23 138.881C110.317 138.848 110.391 138.793 110.443 138.721C110.495 138.649 110.523 138.565 110.523 138.479C110.523 138.422 110.512 138.366 110.488 138.313C110.465 138.26 110.431 138.212 110.387 138.172C110.344 138.131 110.292 138.099 110.235 138.077C110.178 138.056 110.117 138.044 110.055 138.044Z" fill="white"/>
<path d="M113.868 130.09C113.755 130.09 113.644 130.059 113.55 130.001C113.455 129.943 113.382 129.861 113.339 129.764C113.295 129.668 113.284 129.562 113.306 129.459C113.328 129.357 113.383 129.263 113.463 129.189C113.543 129.115 113.645 129.065 113.756 129.044C113.867 129.024 113.983 129.034 114.087 129.074C114.192 129.114 114.281 129.182 114.344 129.269C114.407 129.356 114.441 129.458 114.441 129.562C114.441 129.702 114.381 129.836 114.273 129.935C114.166 130.034 114.02 130.09 113.868 130.09ZM113.868 129.131C113.775 129.131 113.685 129.156 113.608 129.204C113.531 129.251 113.471 129.318 113.436 129.397C113.4 129.476 113.391 129.563 113.409 129.646C113.427 129.73 113.472 129.807 113.537 129.867C113.603 129.927 113.686 129.968 113.777 129.985C113.867 130.001 113.961 129.993 114.047 129.96C114.132 129.928 114.205 129.872 114.257 129.801C114.308 129.731 114.336 129.647 114.336 129.562C114.336 129.448 114.286 129.338 114.199 129.257C114.111 129.177 113.992 129.131 113.868 129.131Z" fill="white"/>
<path d="M114.581 136.887C114.467 136.887 114.357 136.856 114.262 136.798C114.168 136.74 114.095 136.658 114.051 136.561C114.008 136.465 113.997 136.358 114.019 136.256C114.041 136.154 114.096 136.06 114.176 135.986C114.256 135.912 114.358 135.862 114.469 135.841C114.58 135.821 114.695 135.831 114.8 135.871C114.905 135.911 114.994 135.979 115.057 136.066C115.12 136.153 115.154 136.255 115.154 136.359C115.154 136.499 115.093 136.633 114.986 136.732C114.879 136.831 114.733 136.887 114.581 136.887ZM114.581 135.928C114.488 135.928 114.398 135.953 114.321 136.001C114.244 136.048 114.184 136.115 114.149 136.194C114.113 136.273 114.104 136.359 114.122 136.443C114.14 136.527 114.185 136.603 114.25 136.664C114.316 136.724 114.399 136.765 114.49 136.782C114.58 136.798 114.674 136.79 114.76 136.757C114.845 136.724 114.918 136.669 114.97 136.598C115.021 136.528 115.049 136.444 115.049 136.359C115.049 136.245 114.999 136.135 114.912 136.054C114.824 135.973 114.705 135.928 114.581 135.928Z" fill="white"/>
<path d="M120.252 143.215C120.139 143.213 120.029 143.18 119.936 143.12C119.843 143.061 119.771 142.977 119.729 142.88C119.687 142.783 119.677 142.677 119.7 142.575C119.723 142.473 119.778 142.379 119.858 142.306C119.938 142.232 120.04 142.182 120.152 142.162C120.263 142.141 120.378 142.151 120.483 142.191C120.588 142.23 120.677 142.297 120.741 142.383C120.805 142.469 120.84 142.571 120.842 142.675C120.844 142.747 120.83 142.818 120.8 142.885C120.771 142.951 120.728 143.011 120.673 143.062C120.618 143.112 120.552 143.152 120.479 143.178C120.407 143.205 120.33 143.217 120.252 143.215ZM120.252 142.252C120.159 142.251 120.067 142.276 119.989 142.324C119.911 142.371 119.849 142.438 119.813 142.518C119.777 142.597 119.767 142.685 119.784 142.769C119.802 142.854 119.847 142.932 119.913 142.993C119.978 143.054 120.063 143.096 120.154 143.113C120.246 143.13 120.341 143.122 120.427 143.089C120.514 143.056 120.588 143 120.64 142.929C120.692 142.857 120.72 142.773 120.72 142.687C120.72 142.572 120.671 142.462 120.583 142.381C120.495 142.299 120.376 142.253 120.252 142.252Z" fill="white"/>
<path d="M106.314 130.882C106.201 130.881 106.09 130.85 105.997 130.791C105.903 130.733 105.83 130.65 105.788 130.553C105.745 130.457 105.734 130.351 105.757 130.249C105.779 130.147 105.834 130.053 105.914 129.979C105.995 129.906 106.097 129.856 106.208 129.836C106.319 129.816 106.434 129.827 106.538 129.867C106.643 129.907 106.732 129.974 106.795 130.061C106.858 130.148 106.891 130.25 106.891 130.354C106.891 130.424 106.876 130.493 106.847 130.557C106.818 130.621 106.775 130.68 106.722 130.729C106.668 130.778 106.605 130.817 106.535 130.843C106.464 130.869 106.39 130.883 106.314 130.882ZM106.314 129.923C106.222 129.924 106.132 129.95 106.055 129.998C105.979 130.046 105.92 130.113 105.885 130.192C105.85 130.271 105.841 130.357 105.86 130.441C105.878 130.524 105.923 130.6 105.989 130.66C106.054 130.72 106.138 130.761 106.228 130.777C106.319 130.793 106.413 130.785 106.498 130.752C106.583 130.719 106.656 130.664 106.707 130.593C106.758 130.522 106.786 130.439 106.786 130.354C106.786 130.297 106.774 130.241 106.75 130.188C106.726 130.136 106.691 130.088 106.647 130.048C106.603 130.008 106.551 129.976 106.494 129.955C106.437 129.933 106.376 129.923 106.314 129.923Z" fill="white"/>
<path d="M122.324 135.446C122.21 135.446 122.098 135.415 122.003 135.357C121.908 135.298 121.834 135.215 121.791 135.117C121.747 135.02 121.736 134.913 121.758 134.809C121.781 134.706 121.836 134.611 121.918 134.537C121.999 134.463 122.102 134.413 122.214 134.393C122.327 134.372 122.443 134.384 122.548 134.424C122.654 134.465 122.743 134.534 122.806 134.622C122.869 134.71 122.902 134.813 122.902 134.919C122.902 134.988 122.887 135.057 122.858 135.121C122.828 135.186 122.786 135.244 122.732 135.293C122.679 135.342 122.615 135.381 122.545 135.407C122.475 135.434 122.4 135.447 122.324 135.446ZM122.324 134.484C122.23 134.481 122.137 134.504 122.057 134.55C121.977 134.596 121.914 134.663 121.876 134.743C121.838 134.822 121.826 134.911 121.843 134.996C121.86 135.082 121.905 135.161 121.971 135.223C122.037 135.285 122.122 135.327 122.214 135.344C122.307 135.362 122.403 135.353 122.49 135.319C122.577 135.286 122.651 135.229 122.703 135.156C122.754 135.083 122.781 134.998 122.779 134.911C122.777 134.799 122.729 134.693 122.644 134.614C122.56 134.534 122.445 134.488 122.324 134.484Z" fill="white"/>
<path d="M110.561 133.863C110.448 133.863 110.337 133.832 110.243 133.774C110.149 133.716 110.075 133.633 110.032 133.537C109.989 133.44 109.977 133.334 109.999 133.232C110.021 133.129 110.076 133.035 110.156 132.961C110.236 132.887 110.338 132.837 110.45 132.817C110.561 132.796 110.676 132.807 110.781 132.847C110.885 132.887 110.975 132.954 111.038 133.041C111.101 133.128 111.134 133.23 111.134 133.335C111.134 133.404 111.119 133.473 111.091 133.537C111.062 133.601 111.02 133.659 110.966 133.708C110.913 133.757 110.85 133.796 110.781 133.822C110.711 133.849 110.637 133.863 110.561 133.863ZM110.561 132.904C110.469 132.904 110.378 132.929 110.301 132.976C110.225 133.024 110.165 133.091 110.129 133.17C110.094 133.248 110.085 133.335 110.103 133.419C110.121 133.502 110.165 133.579 110.231 133.639C110.296 133.7 110.379 133.741 110.47 133.757C110.561 133.774 110.655 133.765 110.74 133.733C110.826 133.7 110.899 133.645 110.95 133.574C111.002 133.503 111.029 133.42 111.029 133.335C111.029 133.278 111.017 133.222 110.993 133.17C110.97 133.117 110.935 133.07 110.892 133.03C110.849 132.99 110.797 132.958 110.74 132.936C110.684 132.915 110.623 132.904 110.561 132.904Z" fill="white"/>
<path d="M114.58 142.419C114.465 142.42 114.353 142.389 114.257 142.33C114.161 142.272 114.087 142.189 114.043 142.091C113.999 141.993 113.988 141.885 114.011 141.782C114.033 141.678 114.089 141.583 114.171 141.508C114.253 141.434 114.357 141.384 114.47 141.365C114.583 141.345 114.699 141.357 114.805 141.399C114.91 141.441 115 141.511 115.062 141.6C115.124 141.689 115.156 141.793 115.153 141.899C115.151 142.038 115.09 142.17 114.983 142.267C114.875 142.365 114.731 142.419 114.58 142.419ZM114.58 141.456C114.487 141.456 114.395 141.481 114.317 141.528C114.238 141.576 114.177 141.643 114.141 141.723C114.105 141.803 114.095 141.89 114.113 141.975C114.131 142.06 114.176 142.138 114.242 142.199C114.309 142.26 114.393 142.301 114.485 142.318C114.577 142.334 114.672 142.325 114.759 142.292C114.845 142.259 114.919 142.202 114.97 142.13C115.022 142.058 115.049 141.974 115.048 141.887C115.048 141.773 114.999 141.663 114.911 141.583C114.823 141.502 114.704 141.456 114.58 141.456Z" fill="white"/>
<path d="M109.752 144.328C109.638 144.329 109.526 144.299 109.431 144.241C109.335 144.183 109.26 144.1 109.216 144.003C109.172 143.906 109.16 143.799 109.181 143.695C109.203 143.592 109.258 143.497 109.338 143.422C109.419 143.347 109.522 143.296 109.634 143.275C109.746 143.254 109.862 143.265 109.968 143.305C110.074 143.345 110.164 143.413 110.228 143.501C110.291 143.588 110.325 143.691 110.325 143.796C110.325 143.937 110.265 144.072 110.158 144.171C110.05 144.271 109.905 144.327 109.752 144.328ZM109.752 143.366C109.659 143.365 109.567 143.39 109.489 143.437C109.41 143.485 109.349 143.553 109.313 143.632C109.277 143.712 109.267 143.8 109.285 143.884C109.303 143.969 109.348 144.047 109.414 144.108C109.481 144.169 109.565 144.21 109.657 144.227C109.749 144.244 109.844 144.235 109.931 144.201C110.017 144.168 110.091 144.112 110.142 144.039C110.194 143.967 110.221 143.883 110.22 143.796C110.219 143.682 110.169 143.573 110.082 143.493C109.994 143.412 109.876 143.367 109.752 143.366Z" fill="white"/>
<path d="M106.314 136.405C106.201 136.405 106.09 136.373 105.997 136.315C105.903 136.256 105.83 136.173 105.788 136.077C105.745 135.98 105.734 135.874 105.757 135.772C105.779 135.67 105.834 135.576 105.914 135.503C105.995 135.429 106.097 135.38 106.208 135.359C106.319 135.339 106.434 135.35 106.538 135.39C106.643 135.43 106.732 135.498 106.795 135.585C106.858 135.671 106.891 135.773 106.891 135.878C106.891 135.947 106.876 136.016 106.847 136.08C106.818 136.145 106.775 136.203 106.722 136.252C106.668 136.301 106.605 136.34 106.535 136.366C106.464 136.393 106.39 136.406 106.314 136.405ZM106.314 135.447C106.222 135.447 106.132 135.473 106.055 135.521C105.979 135.569 105.92 135.637 105.885 135.715C105.85 135.794 105.841 135.881 105.86 135.964C105.878 136.047 105.923 136.124 105.989 136.184C106.054 136.243 106.138 136.284 106.228 136.3C106.319 136.317 106.413 136.308 106.498 136.275C106.583 136.243 106.656 136.187 106.707 136.117C106.758 136.046 106.786 135.963 106.786 135.878C106.786 135.821 106.774 135.764 106.75 135.712C106.726 135.659 106.691 135.612 106.647 135.571C106.603 135.531 106.551 135.5 106.494 135.478C106.437 135.457 106.376 135.446 106.314 135.447Z" fill="white"/>
<path d="M105.796 141.177C105.682 141.177 105.572 141.146 105.477 141.088C105.383 141.03 105.31 140.948 105.266 140.851C105.223 140.755 105.212 140.648 105.234 140.546C105.256 140.444 105.31 140.35 105.39 140.276C105.471 140.202 105.573 140.152 105.684 140.131C105.795 140.111 105.91 140.121 106.015 140.161C106.12 140.201 106.209 140.269 106.272 140.356C106.335 140.443 106.369 140.545 106.369 140.649C106.369 140.789 106.308 140.923 106.201 141.022C106.093 141.121 105.948 141.177 105.796 141.177ZM105.796 140.218C105.703 140.218 105.613 140.243 105.536 140.291C105.459 140.338 105.399 140.405 105.364 140.484C105.328 140.563 105.319 140.65 105.337 140.733C105.355 140.817 105.4 140.893 105.465 140.954C105.53 141.014 105.614 141.055 105.704 141.072C105.795 141.088 105.889 141.08 105.975 141.047C106.06 141.015 106.133 140.959 106.185 140.888C106.236 140.818 106.263 140.734 106.263 140.649C106.263 140.535 106.214 140.425 106.126 140.344C106.039 140.264 105.92 140.218 105.796 140.218Z" fill="white"/>
<path d="M133.853 130.761L133.482 143.393H178.173C178.173 143.393 169.78 110.397 157.212 100.692C150.335 95.3895 144.993 97.6604 141.361 101.17C140.476 102.055 130.785 116.468 130.364 121.658C130.018 126.239 133.853 130.761 133.853 130.761Z" fill="#EB9481"/>
<path d="M133.853 130.761L133.482 143.393H178.169C178.169 143.393 173.956 126.864 167.05 113.766C166.123 115.381 163.759 118.688 159.95 118.712C154.894 118.747 151.233 111.173 151.233 111.173C151.233 111.173 144.609 114.962 140.417 114.36C136.225 113.758 136.427 108.568 136.427 108.568C133.613 113.203 130.613 118.809 130.385 121.65C130.018 126.239 133.853 130.761 133.853 130.761Z" fill="#5D387F"/>
<path d="M151.211 112.637C151.031 111.363 150.974 110.077 151.043 108.794C151.092 107.505 151.248 106.221 151.51 104.955C151.753 103.659 152.234 102.412 152.934 101.267C153.303 100.658 153.886 100.183 154.586 99.9198C154.945 99.8086 155.33 99.7912 155.698 99.8693C155.871 99.9237 156.044 99.978 156.204 100.04L156.655 100.292L156.162 100.149C155.993 100.122 155.829 100.102 155.665 100.083C155.346 100.07 155.029 100.134 154.746 100.269C154.198 100.573 153.765 101.026 153.507 101.566C153.217 102.119 152.983 102.696 152.808 103.289C152.618 103.883 152.463 104.493 152.336 105.106C152.21 105.719 152.088 106.34 151.986 106.965C151.885 107.59 151.793 108.215 151.696 108.844C151.527 110.102 151.354 111.364 151.211 112.637Z" fill="#5D387F"/>
<path d="M135.913 109.419C136.374 108.232 136.925 107.076 137.561 105.96C138.191 104.835 138.895 103.746 139.667 102.699C140.059 102.179 140.464 101.667 140.898 101.17C141.337 100.676 141.808 100.206 142.309 99.7646C142.811 99.3084 143.378 98.9166 143.994 98.6C144.297 98.427 144.638 98.3179 144.992 98.2803C145.346 98.2427 145.704 98.2776 146.042 98.3826C145.714 98.3572 145.383 98.3918 145.069 98.4844C144.756 98.577 144.465 98.7258 144.213 98.9222C143.688 99.292 143.206 99.7123 142.777 100.176C141.905 101.113 141.098 102.098 140.358 103.126C139.591 104.147 138.871 105.199 138.138 106.232C137.405 107.264 136.684 108.375 135.913 109.419Z" fill="#5D387F"/>
<path d="M178.169 143.393H160.216L159.95 118.712C163.742 118.689 166.123 115.381 167.05 113.767C173.964 126.864 178.169 143.393 178.169 143.393Z" fill="#263238"/>
<path d="M151.473 99.0854C151.25 99.7958 147.26 104.279 143.704 103.949C142.545 103.841 142.908 97.9907 142.908 97.9907L142.827 97.5559L141.711 91.4342L149.687 87.2534L150.837 86.7021C150.837 86.7021 151.023 88.3985 151.233 90.5103C151.233 90.6073 151.254 90.7044 151.263 90.8092C151.271 90.914 151.292 91.0421 151.301 91.1508C151.339 91.4691 151.372 91.7913 151.402 92.1096C151.423 92.3542 151.444 92.591 151.457 92.8511C151.469 93.1111 151.49 93.3596 151.511 93.6274C151.634 95.4454 151.622 97.269 151.473 99.0854Z" fill="#EB9481"/>
<path d="M151.233 90.5064C150.471 92.1727 149.324 93.6663 147.873 94.8836C146.421 96.1009 144.7 97.0127 142.827 97.5559L141.711 91.4342L149.687 87.2534L150.837 86.7021C150.837 86.7021 151.01 88.3947 151.233 90.5064Z" fill="#263238"/>
<path d="M133.157 82.0202C132.117 92.8894 139.056 94.6751 141.584 94.8808C143.889 95.0633 151.768 95.4243 154.022 84.7258C156.276 74.0274 151.123 70.1532 145.873 69.47C140.623 68.7868 134.198 71.1664 133.157 82.0202Z" fill="#EB9481"/>
<path d="M135.108 80.0326C135.378 80.0099 135.647 79.9737 135.913 79.9239C136.204 79.9233 136.486 79.8347 136.717 79.6715C136.779 79.6072 136.816 79.5257 136.822 79.4401C136.828 79.3544 136.803 79.2692 136.751 79.198C136.625 79.0718 136.465 78.979 136.287 78.9292C136.11 78.8794 135.921 78.8743 135.74 78.9146C135.36 78.9403 135.005 79.097 134.746 79.3532C134.69 79.4149 134.656 79.4899 134.646 79.5692C134.636 79.6486 134.651 79.7289 134.689 79.8006C134.727 79.8723 134.787 79.9323 134.861 79.9735C134.936 80.0146 135.021 80.0351 135.108 80.0326Z" fill="#263238"/>
<path d="M143.257 80.7552C142.983 80.7086 142.739 80.6232 142.474 80.5533C142.184 80.5178 141.916 80.3949 141.711 80.2039C141.66 80.1326 141.637 80.048 141.644 79.9632C141.651 79.8783 141.688 79.7979 141.749 79.7342C141.89 79.6229 142.062 79.5489 142.245 79.5202C142.428 79.4915 142.616 79.5091 142.79 79.5712C143.162 79.6427 143.491 79.8409 143.712 80.1263C143.76 80.1937 143.785 80.2725 143.784 80.3529C143.784 80.4333 143.758 80.5118 143.709 80.5787C143.661 80.6456 143.592 80.6979 143.512 80.7293C143.432 80.7607 143.343 80.7697 143.257 80.7552Z" fill="#263238"/>
<path d="M141.491 83.4062C141.491 83.3752 141.55 83.445 141.546 83.4761C141.449 84.2136 141.474 85.0715 142.178 85.3743C142.178 85.3743 142.178 85.4209 142.178 85.417C141.289 85.2229 141.272 84.0894 141.491 83.4062Z" fill="#263238"/>
<path d="M142.284 82.6915C143.582 82.6915 143.451 85.0983 142.25 85.0827C141.049 85.0672 141.193 82.676 142.284 82.6915Z" fill="#263238"/>
<path d="M142.785 82.8392C143.004 82.9867 143.206 83.2274 143.484 83.274C143.763 83.3206 144.053 83.076 144.272 82.847C144.298 82.8198 144.319 82.847 144.314 82.8741C144.314 83.3322 144.083 83.7942 143.543 83.8407C143.004 83.8873 142.726 83.4525 142.629 82.9906C142.608 82.8936 142.697 82.781 142.785 82.8392Z" fill="#263238"/>
<path d="M136.469 82.8358C136.469 82.8087 136.406 82.8708 136.406 82.8979C136.406 83.6433 136.254 84.4895 135.513 84.7108C135.492 84.7108 135.492 84.7535 135.513 84.7496C136.41 84.6681 136.591 83.5423 136.469 82.8358Z" fill="#263238"/>
<path d="M135.786 82.0355C134.497 81.8919 134.286 84.2831 135.483 84.4112C136.679 84.5393 136.869 82.152 135.786 82.0355Z" fill="#263238"/>
<path d="M135.234 82.1526C135.015 82.2613 134.813 82.4786 134.548 82.4748C134.282 82.4709 134.076 82.1953 133.916 81.9352C133.916 81.908 133.878 81.9352 133.873 81.9585C133.819 82.4127 133.941 82.9018 134.413 83.0221C134.885 83.1425 135.192 82.7698 135.348 82.3234C135.378 82.2419 135.319 82.1176 135.234 82.1526Z" fill="#263238"/>
<path d="M140.788 89.0704C140.594 89.2451 140.4 89.4819 140.109 89.5052C139.81 89.4979 139.516 89.4331 139.246 89.3149C139.24 89.3124 139.233 89.3116 139.227 89.3127C139.221 89.3138 139.215 89.3168 139.211 89.3212C139.206 89.3256 139.204 89.3311 139.203 89.337C139.203 89.3429 139.204 89.3488 139.208 89.3538C139.323 89.4996 139.479 89.6144 139.659 89.686C139.839 89.7577 140.037 89.7837 140.231 89.7614C140.395 89.7213 140.543 89.6378 140.656 89.5212C140.769 89.4046 140.843 89.26 140.868 89.1053C140.897 89.0626 140.817 89.0471 140.788 89.0704Z" fill="#263238"/>
<path d="M137.607 86.2055C137.607 86.2055 137.345 87.471 137.312 87.995C137.312 88.0416 139.271 88.2435 140.354 87.1488C140.4 87.1022 140.328 87.0401 140.274 87.0711C139.533 87.5012 138.661 87.6987 137.788 87.634C137.754 87.4865 138.251 85.7164 138.163 85.6931C137.721 85.7033 137.283 85.7686 136.861 85.8872C137.282 83.5891 138.125 81.3725 138.5 79.0783C138.505 79.0603 138.503 79.041 138.493 79.0246C138.483 79.0082 138.467 78.9961 138.447 78.991C138.428 78.9859 138.407 78.9881 138.389 78.9972C138.371 79.0063 138.358 79.0215 138.352 79.0395C137.312 81.3027 136.755 83.9385 136.246 86.3025C136.182 86.6053 137.375 86.2792 137.607 86.2055Z" fill="#263238"/>
<path d="M152.893 85.5641C150.024 85.2691 149.859 77.0628 149.851 76.0574C149.817 76.6901 149.645 80.0518 149.354 80.1683C149.046 80.1404 148.746 80.0656 148.465 79.947C148.499 79.5452 148.499 79.1416 148.465 78.7397C148.465 78.5495 148.355 79.1279 148.187 79.8538L147.664 79.6792C147.767 78.8251 147.746 77.9621 147.601 77.1132C147.542 76.791 147.331 78.2079 146.902 79.4424C144.955 78.8096 142.145 77.9634 139.469 77.6916C138.753 77.6179 138.134 77.5829 137.586 77.5674C137.662 76.5775 137.872 75.5333 137.775 75.7546C137.511 76.338 137.309 76.9439 137.173 77.5635C136.878 77.5635 136.6 77.5635 136.351 77.5635C136.393 76.1583 137.299 73.9767 137.025 74.3027C136.22 75.3056 135.626 76.4395 135.277 77.6451C134.228 77.7537 133.924 77.9207 133.916 77.6722C133.916 77.2219 134.818 73.3478 138.365 70.712C142.216 67.8433 149.455 67.5599 153.112 72.6529C153.112 72.6529 156.276 74.885 156.538 78.1497C156.799 81.4144 154.553 85.7349 152.893 85.5641Z" fill="#263238"/>
<path d="M152.084 85.4097C152.084 85.4097 154.671 82.013 156.343 82.8631C158.016 83.7133 156.065 88.6394 154.098 89.3109C153.853 89.4121 153.589 89.467 153.321 89.4722C153.053 89.4773 152.787 89.4328 152.538 89.3411C152.289 89.2495 152.063 89.1126 151.873 88.9387C151.682 88.7648 151.532 88.5574 151.431 88.3288L152.084 85.4097Z" fill="#EB9481"/>
<path d="M155.745 84.2607C155.751 84.2628 155.755 84.2662 155.759 84.2707C155.762 84.2752 155.764 84.2805 155.764 84.286C155.764 84.2914 155.762 84.2967 155.759 84.3012C155.755 84.3057 155.751 84.3092 155.745 84.3112C154.363 84.8236 153.638 85.9998 153.124 87.2226C153.546 86.7529 154.094 86.4967 154.776 86.947C154.814 86.9703 154.776 87.0208 154.738 87.013C154.497 86.9402 154.237 86.9385 153.995 87.0081C153.752 87.0777 153.539 87.215 153.386 87.4012C153.13 87.7134 152.912 88.0505 152.737 88.4066C152.669 88.5192 152.446 88.4609 152.497 88.329C152.499 88.3187 152.499 88.3081 152.497 88.2979C152.488 86.6869 153.858 84.4238 155.745 84.2607Z" fill="#263238"/>
<path d="M163.62 105.828C178.308 120.086 190.375 149.732 183.309 152.515C176.85 155.058 156.39 152.709 147.976 150.862C145.502 150.318 150.478 132.675 153.125 133.253C156.318 133.952 164.501 135.035 164.817 135.016C165.52 134.969 157.654 114.24 155.261 106.678C151.924 96.1154 158.105 100.471 163.62 105.828Z" fill="#EB9481"/>
<path d="M127.663 129.201C126.521 130.832 127.915 132.377 127.915 132.377C126.966 132.789 126.204 133.495 125.762 134.372C125.063 135.952 127.448 137.652 127.448 137.652C126.561 138.27 125.898 139.119 125.543 140.09C125.038 141.662 127.174 143.696 127.174 143.696C126.703 144.675 126.628 145.777 126.963 146.802C127.991 149.519 132.634 150.486 135.58 151.134C138.525 151.782 147.533 151.072 149.265 151.095L153.925 133.747C153.925 133.747 141.613 127.388 138.036 127.082C135.019 126.806 128.939 127.369 127.663 129.201Z" fill="#EB9481"/>
<path d="M128.122 132.128C131.4 131.693 134.636 132.174 137.897 132.489C137.912 132.489 137.926 132.494 137.936 132.503C137.946 132.513 137.952 132.526 137.952 132.539C137.952 132.553 137.946 132.565 137.936 132.575C137.926 132.584 137.912 132.59 137.897 132.59C134.657 132.244 131.383 132.496 128.135 132.271C128.117 132.269 128.1 132.261 128.087 132.249C128.075 132.237 128.067 132.221 128.066 132.204C128.064 132.187 128.069 132.171 128.079 132.157C128.09 132.143 128.105 132.133 128.122 132.128Z" fill="#263238"/>
<path d="M127.567 137.439C128.322 137.406 129.078 137.464 129.817 137.613C130.605 137.726 131.392 137.854 132.18 138.001C133.756 138.273 135.322 138.582 136.878 138.929C136.946 138.929 136.937 139.046 136.878 139.034C135.307 138.762 133.735 138.514 132.155 138.308C131.363 138.202 130.571 138.102 129.779 138.009C129.025 137.967 128.279 137.847 127.554 137.652C127.523 137.651 127.495 137.638 127.474 137.617C127.453 137.596 127.443 137.568 127.445 137.539C127.446 137.511 127.46 137.485 127.483 137.466C127.506 137.447 127.536 137.437 127.567 137.439Z" fill="#263238"/>
<path d="M127.238 143.707C127.882 143.614 128.624 143.843 129.252 143.963C129.968 144.103 130.68 144.235 131.396 144.352C132.829 144.616 134.261 144.876 135.702 145.093C135.774 145.093 135.761 145.206 135.702 145.194C134.236 144.984 132.753 144.806 131.303 144.565L129.15 144.224C128.486 144.172 127.837 144.013 127.233 143.754C127.228 143.747 127.225 143.738 127.226 143.73C127.226 143.721 127.231 143.713 127.238 143.707Z" fill="#263238"/>
<path d="M131.763 127.474C130.267 127.621 128.552 127.889 127.55 129.027C127.09 129.513 126.854 130.145 126.892 130.789C126.963 131.391 127.279 131.946 127.777 132.342C127.177 132.507 126.639 132.825 126.226 133.259C125.812 133.693 125.539 134.225 125.439 134.795C125.409 135.081 125.443 135.369 125.539 135.642C125.635 135.915 125.79 136.167 125.995 136.383C126.193 136.612 126.416 136.814 126.644 137.023C126.871 137.233 127.111 137.411 127.339 137.594C127.084 137.772 126.843 137.967 126.618 138.176C126.367 138.391 126.138 138.628 125.936 138.883C125.525 139.391 125.286 140 125.249 140.633C125.267 141.263 125.49 141.873 125.889 142.384C126.211 142.909 126.67 143.352 127.225 143.673C127.259 143.673 127.293 143.65 127.267 143.626C126.83 143.244 126.463 142.8 126.18 142.31C125.839 141.789 125.659 141.192 125.662 140.583C125.727 140.006 125.952 139.454 126.315 138.98C126.494 138.724 126.688 138.478 126.896 138.242C127.069 138.048 127.52 137.652 127.478 137.625C127.436 137.598 127.002 137.14 126.837 136.934C126.673 136.728 126.505 136.503 126.353 136.278C126.033 135.846 125.899 135.32 125.978 134.803C126.086 134.321 126.333 133.876 126.694 133.514C127.052 133.126 127.503 132.85 127.878 132.489C127.903 132.449 127.911 132.402 127.899 132.357C127.103 131.158 127.234 130.028 128.135 129.186C128.592 128.77 129.124 128.429 129.707 128.18C130.374 127.915 131.063 127.7 131.767 127.536C131.818 127.536 131.809 127.47 131.763 127.474Z" fill="#263238"/>
<path d="M160.632 122C160.413 121.204 160.169 120.416 159.916 119.624C159.411 118.036 158.888 116.445 158.231 114.9C157.864 114.026 157.46 113.168 157.068 112.303C157.068 112.303 157.043 112.303 157.047 112.303C157.405 113.397 157.734 114.5 158.092 115.595C157.725 114.958 157.312 114.348 156.963 113.708C156.963 113.673 156.891 113.708 156.908 113.739C157.27 114.403 157.565 115.094 157.906 115.765C158.1 116.154 158.328 116.518 158.534 116.883C158.534 116.93 158.564 116.977 158.581 117.019C159.154 118.591 159.71 120.171 160.291 121.74C160.616 122.621 160.97 123.502 161.235 124.399C161.239 124.405 161.245 124.41 161.252 124.413C161.26 124.416 161.268 124.416 161.276 124.414C161.283 124.412 161.29 124.407 161.294 124.4C161.298 124.394 161.3 124.387 161.298 124.379C161.045 123.603 160.852 122.795 160.632 122Z" fill="#263238"/>
<path d="M177.233 140.168C176.305 139.463 175.31 138.838 174.259 138.3C173.241 137.727 172.178 137.226 171.078 136.802C167.563 135.506 163.863 134.685 160.093 134.364C160.084 134.364 160.076 134.368 160.069 134.373C160.063 134.379 160.06 134.387 160.06 134.395C160.06 134.404 160.063 134.411 160.069 134.417C160.076 134.423 160.084 134.426 160.093 134.426C160.734 134.535 167.576 136.045 170.45 137.074C171.545 137.462 172.599 137.955 173.648 138.448C174.249 138.727 174.842 139.019 175.426 139.321C176.011 139.628 176.572 139.97 177.162 140.261C177.175 140.266 177.19 140.267 177.204 140.264C177.218 140.26 177.23 140.252 177.239 140.241C177.247 140.23 177.251 140.217 177.25 140.204C177.249 140.19 177.243 140.177 177.233 140.168Z" fill="#263238"/>
<path d="M35.2981 105.146C38.3106 110.138 58.9562 129.213 70.661 129.687C84.047 130.234 109.1 122.925 111.135 121.325C116.705 116.939 110.132 103.942 105.826 104.187C100.458 104.49 75.0135 112.141 70.9433 111.737C64.5895 111.104 50.4115 102.421 40.2614 97.9759C34.3585 95.3867 32.9807 101.303 35.2981 105.146Z" fill="#DD6A57"/>
<path d="M108.944 122.272C110.14 121.787 119.591 118.744 123.623 115.001C125.759 113.022 130.967 106.962 129.821 105.615C128.772 104.385 126.905 105.724 126.905 105.724C126.905 105.724 129.18 103.006 127.706 101.295C126.231 99.5826 123.202 102.005 123.202 102.005C123.202 102.005 125.308 99.043 123.716 97.4515C122.123 95.8599 119.502 98.7441 119.502 98.7441C119.502 98.7441 121.575 96.12 119.654 95.3203C117.345 94.3576 114.113 99.5904 111.366 101.368C110.743 101.756 98.0898 108.709 98.0898 108.709L108.944 122.272Z" fill="#DD6A57"/>
<path d="M119.376 98.7211C116.991 102.568 115.226 103.872 111.05 105.922C110.966 105.961 111.012 106.081 111.101 106.046C115.394 104.385 117.863 103.046 119.582 98.8182C119.667 98.6124 119.49 98.5387 119.376 98.7211Z" fill="#263238"/>
<path d="M123.071 101.966C120.219 105.762 118.314 107.191 114.109 109.633C114.05 109.667 114.109 109.765 114.172 109.733C118.512 107.657 120.943 106.267 123.257 102.129C123.362 101.942 123.202 101.791 123.071 101.966Z" fill="#263238"/>
<path d="M126.698 105.836C123.644 109.33 121.642 110.975 117.222 112.862C117.2 112.87 117.182 112.885 117.172 112.905C117.162 112.925 117.161 112.948 117.17 112.969C117.178 112.989 117.195 113.006 117.217 113.015C117.239 113.024 117.263 113.025 117.286 113.017C121.992 111.496 124.516 109.454 126.804 105.933C126.96 105.692 126.888 105.615 126.698 105.836Z" fill="#263238"/>
<path d="M94.2686 108.127C94.2686 108.127 97.9216 103.713 99.9903 102.102C102.059 100.491 112.171 97.0943 113.094 99.0624C114.282 101.624 108.876 104.633 105.999 105.797C105.999 105.797 108.75 111.682 105.371 114.625C101.992 117.567 94.2686 108.127 94.2686 108.127Z" fill="#DD6A57"/>
<path d="M113.169 99.8779C112.436 102.917 108.573 104.214 105.884 105.53C105.844 105.548 105.808 105.574 105.781 105.607C105.754 105.64 105.736 105.679 105.728 105.719C105.721 105.76 105.724 105.802 105.738 105.841C105.752 105.881 105.776 105.916 105.809 105.945C106.782 108.484 107.359 112.323 105.56 114.633C105.548 114.646 105.542 114.664 105.543 114.681C105.545 114.699 105.554 114.715 105.568 114.726C105.583 114.737 105.602 114.743 105.621 114.742C105.64 114.74 105.657 114.732 105.669 114.718C107.962 112.482 107.73 108.667 106.47 105.953C109.247 104.641 113.064 103.181 113.211 99.8818L113.169 99.8779Z" fill="#263238"/>
<path d="M35.2304 106.574C37.5394 109.749 56.23 128.545 68.5415 130.106C76.8419 131.158 91.1927 129.644 96.6195 128.534L89.1323 107.144C89.1323 107.144 76.3573 111.48 71.4361 111.116C66.5149 110.751 46.9057 99.924 39.6334 97.4319C36.545 96.3682 34.6785 97.0437 33.819 98.5188C32.6476 100.487 33.3049 103.922 35.2304 106.574Z" fill="#C6AADF"/>
<path d="M92.4439 128.123C91.2178 124.959 86.7053 111.819 85.9342 108.934C85.8794 108.733 86.0058 108.651 86.0901 108.853C90.0044 118.251 91.5422 124.908 92.5745 128.072C92.5956 128.15 92.4692 128.2 92.4439 128.123Z" fill="#263238"/>
<path d="M60.1864 122.823C60.1678 123.901 60.4585 124.964 61.0291 125.905C61.0444 125.369 60.9748 124.832 60.8226 124.314C60.688 123.792 60.4738 123.29 60.1864 122.823Z" fill="#263238"/>
<path d="M73.3272 111.736C73.3166 112.273 73.3861 112.809 73.5337 113.328C73.6686 113.849 73.8843 114.35 74.1741 114.815C74.1933 113.738 73.9026 112.676 73.3314 111.736H73.3272Z" fill="#263238"/>
<path d="M52.3832 105.409C52.3702 106.486 52.6605 107.548 53.2259 108.491C53.239 107.414 52.9486 106.352 52.3832 105.409Z" fill="#263238"/>
<path d="M88.1674 119.35C88.1541 120.426 88.4445 121.486 89.0101 122.428C89.0234 121.352 88.733 120.291 88.1674 119.35Z" fill="#263238"/>
<path d="M70.0078 127.501C71.1761 127.516 72.3283 127.249 73.349 126.725C72.7665 126.71 72.1846 126.773 71.6215 126.911C71.0569 127.039 70.5139 127.237 70.0078 127.501Z" fill="#263238"/>
<path d="M81.0674 115.657C81.6499 115.667 82.2312 115.603 82.7949 115.467C83.3607 115.343 83.9042 115.144 84.4086 114.877C83.24 114.859 82.0871 115.127 81.0674 115.653V115.657Z" fill="#263238"/>
<path d="M53.4912 117.99C54.6611 118.007 55.8151 117.739 56.8366 117.214C56.2539 117.2 55.672 117.264 55.1092 117.404C54.5425 117.528 53.9978 117.725 53.4912 117.99Z" fill="#263238"/>
<path d="M33.7051 100.219C34.8747 100.234 36.0281 99.9661 37.0505 99.4426C36.4679 99.4275 35.886 99.4903 35.323 99.629C34.7568 99.756 34.2123 99.9545 33.7051 100.219Z" fill="#263238"/>
<path d="M43.6104 103.255C43.1881 103.625 42.825 104.048 42.5318 104.513C42.2262 104.97 41.9935 105.465 41.8408 105.984C42.6772 105.235 43.2871 104.299 43.6104 103.267V103.255Z" fill="#263238"/>
<path d="M84.9441 125.937C84.5242 126.309 84.1626 126.734 83.8697 127.198C83.5641 127.656 83.3314 128.151 83.1787 128.669C84.0141 127.921 84.6227 126.984 84.9441 125.952V125.937Z" fill="#263238"/>
<path d="M67.2101 117.206C66.3737 117.955 65.7638 118.891 65.4404 119.923C65.8637 119.554 66.227 119.13 66.5191 118.666C66.8219 118.211 67.0544 117.72 67.2101 117.206Z" fill="#263238"/>
<path d="M48.2706 114.757C47.8689 114.368 47.4093 114.034 46.9055 113.764C46.409 113.482 45.8712 113.268 45.3086 113.127C46.1211 113.897 47.1377 114.459 48.258 114.757H48.2706Z" fill="#263238"/>
<path d="M79.6563 121.713C79.2545 121.326 78.7949 120.992 78.2912 120.724C77.7953 120.441 77.2573 120.227 76.6943 120.087C77.0951 120.476 77.5549 120.809 78.0595 121.077C78.5563 121.358 79.094 121.572 79.6563 121.713Z" fill="#263238"/>
<path d="M61.6603 112.548C61.2584 112.16 60.7988 111.827 60.2951 111.558C59.7996 111.275 59.2615 111.061 58.6982 110.922C59.099 111.311 59.5588 111.644 60.0634 111.912C60.5606 112.192 61.0982 112.406 61.6603 112.548Z" fill="#263238"/>
<path d="M55.3661 124.271C45.8607 117.998 36.8272 108.705 35.2429 106.558C33.3174 103.922 32.6601 100.487 33.8188 98.5032C34.6615 97.028 36.5449 96.3526 39.6333 97.4162C40.2569 97.6297 40.9689 97.9054 41.74 98.2275C45.0222 104.683 50.8493 115.754 55.3661 124.271Z" fill="#263238"/>
<path d="M54.3801 143.281L8.62695 143.394C8.62695 143.394 13.8221 112.164 30.6251 97.2925C32.7023 95.4525 37.5814 95.6699 40.8172 97.0053C41.9717 97.4789 46.2694 102.568 47.6471 107.486C49.0249 112.405 54.4981 143.13 54.3801 143.281Z" fill="#C6AADF"/>
<path d="M38.5923 110.328C38.5783 111.405 38.8687 112.468 39.435 113.41C39.4497 112.873 39.3802 112.337 39.2285 111.819C39.0943 111.297 38.88 110.795 38.5923 110.328Z" fill="#263238"/>
<path d="M37.3325 128.359C37.3194 129.437 37.6097 130.499 38.1751 131.442C38.1882 130.364 37.8979 129.302 37.3325 128.359Z" fill="#263238"/>
<path d="M21.9665 121.387C21.9499 122.463 22.2405 123.525 22.8092 124.465C22.8254 123.928 22.7572 123.392 22.6069 122.873C22.4683 122.353 22.2528 121.853 21.9665 121.387Z" fill="#263238"/>
<path d="M50.0954 120.956C50.0794 122.034 50.3699 123.096 50.938 124.038C50.9545 123.502 50.8863 122.965 50.7358 122.447C50.5979 121.925 50.3824 121.423 50.0954 120.956Z" fill="#263238"/>
<path d="M29.0654 116.317C29.648 116.327 30.2293 116.263 30.7929 116.127C31.3604 116.003 31.9053 115.805 32.4109 115.537C31.241 115.52 30.0869 115.788 29.0654 116.313V116.317Z" fill="#263238"/>
<path d="M20.959 132.776C22.1282 132.788 23.2809 132.521 24.3044 132C23.7216 131.986 23.1398 132.05 22.5769 132.19C22.0103 132.314 21.4656 132.511 20.959 132.776Z" fill="#263238"/>
<path d="M41.9756 139.438C42.5582 139.449 43.1395 139.385 43.7031 139.248C44.2705 139.124 44.8155 138.926 45.321 138.658C44.1511 138.641 42.9971 138.909 41.9756 139.434V139.438Z" fill="#263238"/>
<path d="M20.3945 142.241C20.9772 142.252 21.5588 142.188 22.122 142.05C22.6982 141.929 23.2519 141.73 23.7652 141.46C22.596 141.448 21.4433 141.716 20.4198 142.237L20.3945 142.241Z" fill="#263238"/>
<path d="M33.6582 99.408C34.2408 99.4178 34.822 99.3538 35.3857 99.2178C35.9531 99.0942 36.4981 98.8954 37.0036 98.6277C35.8337 98.6106 34.6797 98.8784 33.6582 99.4041V99.408Z" fill="#263238"/>
<path d="M28.4005 102.762C27.5635 103.51 26.9535 104.447 26.6309 105.479C27.4658 104.729 28.0755 103.793 28.4005 102.762Z" fill="#263238"/>
<path d="M15.6756 124.008C15.2536 124.377 14.8917 124.801 14.6012 125.266C14.2938 125.722 14.061 126.218 13.9102 126.737C14.3324 126.368 14.6943 125.944 14.9846 125.479C15.2887 125.021 15.5213 124.526 15.6756 124.008Z" fill="#263238"/>
<path d="M43.2019 120.126C42.3703 120.877 41.7624 121.813 41.4365 122.843C42.2681 122.092 42.8761 121.156 43.2019 120.126Z" fill="#263238"/>
<path d="M31.4636 135.49C31.0437 135.863 30.6821 136.287 30.3892 136.752C30.0836 137.209 29.8509 137.705 29.6982 138.223C30.5337 137.475 31.1422 136.538 31.4636 135.506V135.49Z" fill="#263238"/>
<path d="M44.6092 103.519C43.7722 104.266 43.1633 105.203 42.8438 106.236C43.2657 105.866 43.6276 105.443 43.9182 104.978C44.222 104.524 44.4546 104.033 44.6092 103.519Z" fill="#263238"/>
<path d="M49.2729 115.021C48.8707 114.632 48.4094 114.298 47.9035 114.031C47.408 113.748 46.8699 113.533 46.3066 113.395C46.708 113.785 47.1693 114.118 47.676 114.384C48.1725 114.666 48.7102 114.88 49.2729 115.021Z" fill="#263238"/>
<path d="M15.0444 136.965C14.6411 136.576 14.1801 136.242 13.675 135.972C13.1793 135.69 12.6412 135.477 12.0781 135.339C12.8936 136.105 13.9093 136.665 15.0275 136.965H15.0444Z" fill="#263238"/>
<path d="M51.338 131.531C50.5245 130.762 49.5083 130.2 48.3887 129.9C48.791 130.29 49.2522 130.625 49.758 130.894C50.2501 131.173 50.7819 131.387 51.338 131.531Z" fill="#263238"/>
<path d="M23.9506 113.561C23.5474 113.172 23.0864 112.837 22.5812 112.567C22.0848 112.286 21.547 112.071 20.9844 111.931C21.798 112.7 22.8141 113.262 23.9337 113.561H23.9506Z" fill="#263238"/>
<path d="M48.1318 109.512C48.5531 110.603 48.8817 111.74 49.1767 112.882V112.75C49.1767 112.101 49.143 111.441 49.1767 110.809C49.1767 110.778 49.2357 110.762 49.2441 110.809C49.3634 111.457 49.4114 112.115 49.3873 112.773C49.3873 113.083 49.3873 113.394 49.3621 113.705C49.48 114.217 49.5896 114.729 49.6823 115.257C49.8592 116.232 50.3775 119.857 50.4365 120.579C50.4365 120.731 50.2637 120.762 50.209 120.607C49.9646 119.881 49.2315 116.15 49.0081 115.191C48.5735 113.332 48.25 111.451 48.0391 109.559C48.0475 109.477 48.1191 109.473 48.1318 109.512Z" fill="#263238"/>
<path d="M39.9242 104.916C37.1476 105.265 32.8836 101.034 31.3668 97.7577C31.2615 97.5325 31.8513 95.3237 32.4286 92.6103C32.7741 90.9605 33.1111 89.1166 33.2712 87.4124C33.3049 87.0631 34.5353 87.82 34.5353 87.82L36.8695 88.5654L44.6137 91.0459C44.6137 91.0459 43.0969 94.5163 42.8061 97.4859C42.7828 97.7209 42.7828 97.9574 42.8061 98.1924C42.8061 98.2274 42.8061 98.2662 42.8061 98.3128C42.9157 99.652 42.6123 104.574 39.9242 104.916Z" fill="#DD6A57"/>
<path d="M42.8146 98.1851C42.8146 98.2201 42.8146 98.2589 42.8146 98.3055C42.4149 98.3164 42.0149 98.2996 41.618 98.255C33.8274 97.401 33.8105 88.1621 33.8105 88.1621L36.8821 88.5503L44.6137 91.0463C44.6137 91.0463 43.0969 94.5168 42.8061 97.4864C42.7861 97.7191 42.789 97.9529 42.8146 98.1851Z" fill="#263238"/>
<path d="M32.3987 74.2067C30.8651 77.9255 32.2302 89.0316 34.9815 91.6751C38.9716 95.4833 45.9026 96.2597 49.5177 91.7567C53.0233 87.3934 50.9629 72.9528 47.8324 70.5266C43.2693 66.9359 34.6697 68.7177 32.3987 74.2067Z" fill="#DD6A57"/>
<path d="M43.2191 82.0442C43.2191 82.0171 43.1601 82.0869 43.1643 82.118C43.2781 82.8633 43.2739 83.7367 42.566 84.0589C42.5449 84.0589 42.566 84.1094 42.566 84.1016C43.4635 83.892 43.4592 82.7352 43.2191 82.0442Z" fill="#263238"/>
<path d="M42.4013 81.3413C41.0867 81.3801 41.2679 83.8024 42.4855 83.7675C43.7032 83.7325 43.5052 81.3025 42.4013 81.3413Z" fill="#263238"/>
<path d="M48.2034 81.6252C48.2034 81.598 48.2708 81.6562 48.2708 81.6873C48.3003 82.4404 48.473 83.2983 49.2315 83.5001V83.5428C48.3256 83.4846 48.1107 82.3433 48.2034 81.6252Z" fill="#263238"/>
<path d="M48.8817 80.7942C50.1836 80.6195 50.4701 83.034 49.2609 83.1971C48.0516 83.3601 47.782 80.9533 48.8817 80.7942Z" fill="#263238"/>
<path d="M41.2809 80.2938C41.6201 80.182 41.9521 80.0524 42.2752 79.9056C42.6472 79.8121 42.9748 79.6073 43.2064 79.3233C43.2601 79.2213 43.2756 79.1058 43.2505 78.9948C43.2253 78.8838 43.1609 78.7836 43.0674 78.71C42.8594 78.5888 42.6201 78.5209 42.3742 78.5134C42.1283 78.5059 41.8847 78.559 41.6685 78.6673C41.1939 78.8252 40.7993 79.139 40.5604 79.5484C40.5138 79.6447 40.4983 79.7513 40.5158 79.8555C40.5333 79.9596 40.5831 80.0569 40.6592 80.1356C40.7353 80.2143 40.8345 80.2711 40.9447 80.2992C41.055 80.3272 41.1717 80.3253 41.2809 80.2938Z" fill="#263238"/>
<path d="M49.8041 79.5092C49.4469 79.466 49.0924 79.4051 48.7423 79.3268C48.356 79.3063 47.9876 79.1699 47.6932 78.9386C47.6173 78.8487 47.5762 78.738 47.5762 78.6241C47.5762 78.5103 47.6173 78.3996 47.6932 78.3097C47.8661 78.1484 48.0829 78.033 48.3209 77.9757C48.5589 77.9183 48.8093 77.921 49.0457 77.9836C49.5375 78.0485 49.9869 78.2762 50.3097 78.6241C50.3808 78.7073 50.4243 78.8076 50.4348 78.913C50.4453 79.0184 50.4224 79.1243 50.3689 79.218C50.3154 79.3116 50.2336 79.389 50.1333 79.4407C50.0331 79.4924 49.9187 79.5162 49.8041 79.5092Z" fill="#263238"/>
<path d="M43.0334 88.8139C43.2399 88.9769 43.4548 89.2021 43.7497 89.2021C44.0458 89.1747 44.3327 89.0914 44.5924 88.9575C44.6177 88.9575 44.6472 88.9575 44.6303 88.9924C44.5257 89.148 44.3771 89.2743 44.2004 89.3577C44.0237 89.4412 43.8256 89.4786 43.6275 89.466C43.4585 89.4372 43.3027 89.3627 43.1797 89.2522C43.0566 89.1416 42.972 88.9999 42.9365 88.8449C42.9407 88.81 43.0039 88.7906 43.0334 88.8139Z" fill="#263238"/>
<path d="M43.7199 86.5089C43.9482 86.7939 44.2384 87.0319 44.5722 87.2077C44.9059 87.3835 45.2757 87.4932 45.6581 87.5298C45.9918 87.5667 46.3296 87.5588 46.6609 87.5065C46.7238 87.5026 46.7859 87.4922 46.8463 87.4755L47.0232 87.4405C47.0663 87.4303 47.1045 87.4072 47.132 87.375C47.1594 87.3427 47.1745 87.303 47.1749 87.262C47.177 87.2374 47.177 87.2128 47.1749 87.1882V87.1222C47.1496 86.5438 47.0232 85.6704 47.0232 85.6704C47.2592 85.7597 48.4642 86.1712 48.4221 85.8684C48.0724 83.3801 47.6847 80.6084 46.7662 78.2017C46.7603 78.1856 46.7482 78.1721 46.7323 78.1636C46.7163 78.1552 46.6976 78.1523 46.6796 78.1557C46.6615 78.159 46.6454 78.1682 46.6342 78.1817C46.623 78.1952 46.6175 78.2119 46.6188 78.2288C46.8505 80.6356 47.5415 82.9841 47.8196 85.3987C47.3913 85.246 46.9415 85.1506 46.4839 85.1153C46.3954 85.1464 46.762 86.8039 46.7494 87.0562C46.7505 87.0653 46.7505 87.0744 46.7494 87.0834C45.7045 87.2775 44.8871 87.0329 43.8 86.4468C43.7284 86.3886 43.6652 86.4545 43.7199 86.5089Z" fill="#263238"/>
<path d="M46.2648 87.2385C45.9474 87.6755 45.5117 88.0288 45.0008 88.2633C44.7229 88.3852 44.4103 88.4233 44.1076 88.372C43.4461 88.2555 43.3871 87.7082 43.4713 87.2307C43.518 86.9759 43.5972 86.727 43.7073 86.4893C44.4498 86.9866 45.3469 87.2494 46.2648 87.2385Z" fill="#263238"/>
<path d="M45.0174 88.2631C44.7395 88.385 44.4269 88.423 44.1242 88.3717C43.4627 88.2553 43.4037 87.7079 43.4879 87.2305C44.1916 87.2499 44.9121 87.6419 45.0174 88.2631Z" fill="#FF99BA"/>
<path d="M32.1925 73.2829C34.2992 67.8482 44.0447 67.8482 46.7034 69.5058C47.4513 69.9538 48.0952 70.5342 48.5979 71.2132C49.1006 71.8922 49.452 72.6564 49.6317 73.4614C49.6317 73.4614 49.0039 72.0639 47.9463 72.0678C46.8888 72.0717 47.0784 73.0499 45.5152 73.4808C44.0995 73.869 42.1024 72.5453 39.7092 72.9218C38.6742 73.0621 37.716 73.506 36.9767 74.1879C36.2374 74.8697 35.7565 75.753 35.6053 76.7067C35.2893 78.5079 35.5337 85.7786 33.92 86.1435C32.3062 86.5084 30.5071 77.6771 32.1925 73.2829Z" fill="#263238"/>
<path d="M35.2805 83.4917C35.2805 83.4917 32.7525 79.8233 30.9787 80.6308C29.2048 81.4382 30.9407 86.6748 32.9589 87.4706C33.2105 87.5869 33.4849 87.6555 33.7657 87.6724C34.0466 87.6894 34.3283 87.6543 34.5942 87.5693C34.8601 87.4842 35.1048 87.351 35.3139 87.1773C35.5229 87.0037 35.6921 86.7933 35.8114 86.5584L35.2805 83.4917Z" fill="#DD6A57"/>
<path d="M31.5225 82.1182C31.517 82.1202 31.5123 82.1237 31.509 82.1282C31.5057 82.1327 31.5039 82.138 31.5039 82.1434C31.5039 82.1488 31.5057 82.1541 31.509 82.1586C31.5123 82.1631 31.517 82.1666 31.5225 82.1686C32.9339 82.7664 33.6291 84.0319 34.0926 85.3285C33.6713 84.82 33.1193 84.5249 32.382 84.9636C32.3441 84.9869 32.382 85.0412 32.4157 85.0373C32.6728 84.9734 32.945 84.9847 33.1949 85.0695C33.4447 85.1544 33.6598 85.3086 33.8103 85.5109C34.0587 85.8502 34.2664 86.2134 34.4297 86.594C34.4929 86.7143 34.7288 86.6639 34.6867 86.5241C34.6848 86.5138 34.6848 86.5033 34.6867 86.4931C34.7878 84.8083 33.4817 82.3783 31.5225 82.1182Z" fill="#263238"/>
<path d="M23.222 107.738C18.8654 114.993 8.85018 142.815 15.6759 148.075C24.1448 154.612 50.2256 154.006 55.9516 154.103C58.4417 154.146 61.3911 138.017 59.4403 136.348C57.4895 134.679 29.757 135.571 28.5351 134.139C28.0337 133.545 33.2794 113.2 31.6151 104.446C29.9003 95.4598 25.1855 104.446 23.222 107.738Z" fill="#DD6A57"/>
<path d="M32.5296 101.062C35.9551 108.437 28.5606 132.715 29.4875 133.382C30.4145 134.05 52.0334 134.384 52.0334 134.384L49.5643 156.344C45.195 156.301 16.3628 153.832 12.4865 146.93C8.61019 140.028 16.6999 115.984 21.9287 106.795C25.7587 100.126 30.1743 95.9766 32.5296 101.062Z" fill="#C6AADF"/>
<path d="M24.2332 132.128C25.9691 132.349 27.6755 132.617 29.3946 132.823C29.3861 132.788 29.3861 132.752 29.3946 132.718L29.4199 132.563C28.3825 132.07 27.2886 131.686 26.1587 131.417C26.0871 131.394 26.0955 131.278 26.1587 131.285C27.307 131.355 28.4347 131.601 29.4957 132.011C30.7878 124.804 32.174 117.608 33.6543 110.424C33.6543 110.401 33.7049 110.405 33.7049 110.424C33.4549 112.347 33.1894 114.267 32.9085 116.185C33.2414 115.226 33.6501 114.271 33.9703 113.347C33.9767 113.338 33.9861 113.331 33.9972 113.327C34.0084 113.323 34.0206 113.323 34.032 113.326C34.0434 113.329 34.0535 113.335 34.0606 113.344C34.0677 113.353 34.0715 113.364 34.0714 113.374C33.7849 114.927 33.4816 116.74 32.6642 118.149C32.6617 118.164 32.6559 118.177 32.6472 118.189C32.6384 118.201 32.627 118.211 32.6136 118.219C31.8889 122.939 31.0631 127.644 30.0856 132.326C30.3846 132.503 30.653 132.72 30.8819 132.97C33.4394 133.607 51.6497 133.844 51.9488 134.104C52.248 134.364 52.0289 135.909 51.8646 137.337C51.8646 137.462 51.6371 137.547 51.6455 137.423C51.7129 136.483 51.8182 134.705 51.616 134.643C51.3337 134.562 32.8285 135.07 24.1531 132.283C24.0478 132.252 24.1363 132.116 24.2332 132.128Z" fill="#263238"/>
<path d="M27.1065 148.409C27.0959 148.946 27.1654 149.481 27.313 150.001C27.4471 150.524 27.6628 151.026 27.9534 151.491C27.972 150.414 27.6813 149.35 27.1107 148.409H27.1065Z" fill="#263238"/>
<path d="M48.8312 144.935C48.8203 145.471 48.8898 146.007 49.0376 146.526C49.1717 147.049 49.3875 147.551 49.6781 148.017C49.6966 146.939 49.4059 145.876 48.8354 144.935H48.8312Z" fill="#263238"/>
<path d="M21.5446 121.387C21.528 122.463 21.8186 123.525 22.3873 124.465C22.4035 123.928 22.3354 123.392 22.1851 122.873C22.0464 122.353 21.8309 121.853 21.5446 121.387Z" fill="#263238"/>
<path d="M28.6445 116.317C29.2271 116.327 29.8084 116.263 30.372 116.127C30.9395 116.003 31.4844 115.805 31.99 115.537C30.8201 115.52 29.666 115.788 28.6445 116.313V116.317Z" fill="#263238"/>
<path d="M20.5381 132.776C21.7073 132.788 22.86 132.521 23.8835 132C23.3007 131.986 22.7189 132.05 22.156 132.19C21.5894 132.314 21.0447 132.511 20.5381 132.776Z" fill="#263238"/>
<path d="M41.5547 139.438C42.1373 139.449 42.7186 139.385 43.2822 139.248C43.8496 139.124 44.3946 138.926 44.9001 138.658C43.7302 138.641 42.5762 138.909 41.5547 139.434V139.438Z" fill="#263238"/>
<path d="M19.9736 142.241C20.5563 142.252 21.1379 142.188 21.7011 142.05C22.2773 141.929 22.831 141.73 23.3443 141.46C22.1751 141.448 21.0224 141.716 19.9989 142.237L19.9736 142.241Z" fill="#263238"/>
<path d="M27.9786 102.762C27.1416 103.51 26.5316 104.447 26.209 105.479C27.044 104.729 27.6537 103.793 27.9786 102.762Z" fill="#263238"/>
<path d="M15.2547 124.008C14.8327 124.377 14.4708 124.801 14.1803 125.266C13.8729 125.722 13.6401 126.218 13.4893 126.737C13.9115 126.368 14.2734 125.944 14.5637 125.479C14.8678 125.021 15.1004 124.526 15.2547 124.008Z" fill="#263238"/>
<path d="M31.0418 135.49C30.6219 135.863 30.2603 136.287 29.9674 136.752C29.6618 137.209 29.4291 137.705 29.2764 138.223C30.1118 137.475 30.7204 136.538 31.0418 135.506V135.49Z" fill="#263238"/>
<path d="M43.033 151.515C42.6106 151.885 42.2487 152.31 41.9586 152.776C41.6512 153.233 41.4184 153.729 41.2676 154.247C41.6909 153.878 42.0529 153.453 42.342 152.986C42.6476 152.528 42.8803 152.033 43.033 151.515Z" fill="#263238"/>
<path d="M14.6225 136.965C14.2193 136.576 13.7582 136.242 13.2531 135.972C12.7574 135.69 12.2193 135.477 11.6562 135.339C12.4717 136.105 13.4874 136.665 14.6056 136.965H14.6225Z" fill="#263238"/>
<path d="M23.5297 113.561C23.1265 113.172 22.6655 112.837 22.1604 112.567C21.6639 112.286 21.1261 112.071 20.5635 111.931C21.3771 112.7 22.3933 113.262 23.5128 113.561H23.5297Z" fill="#263238"/>
<path d="M37.88 145.295C37.0675 144.525 36.051 143.963 34.9307 143.665C35.3315 144.055 35.7913 144.39 36.2958 144.659C36.7887 144.939 37.3221 145.153 37.88 145.295Z" fill="#263238"/>
<path d="M30.7218 125.444C29.9093 124.673 28.8928 124.111 27.7725 123.813C28.1686 124.207 28.6241 124.545 29.125 124.819C29.6234 125.094 30.1608 125.304 30.7218 125.444Z" fill="#263238"/>
<path d="M53.7985 135.552C53.7985 135.552 58.8925 135.692 60.1523 135.801C61.4121 135.91 74.0565 133.441 78.0802 135.731C80.9243 137.354 87.3497 144.659 86.7177 149.574C86.3301 152.543 82.7529 152.769 82.7529 152.769C82.7529 152.769 82.2346 154.578 80.6883 155.14C80.1403 155.35 79.5496 155.449 78.9564 155.431C78.3632 155.412 77.7814 155.276 77.2502 155.032C77.072 155.573 76.7403 156.061 76.2892 156.445C75.8382 156.83 75.2842 157.096 74.6843 157.217C72.1562 157.741 71.0312 156.363 71.0312 156.363C69.9926 157.394 68.5843 158.043 67.0664 158.192C63.4134 158.467 58.4669 156.592 57.8855 155.237C56.9332 153.025 61.1129 152.936 63.978 153.168C63.978 153.168 62.9415 153.099 62.7351 151.771C62.7351 151.771 61.1045 155.288 52.3027 153.77L53.7985 135.552Z" fill="#DD6A57"/>
<path d="M66.6156 141.631C68.6801 143.572 70.1506 146.262 71.2503 148.766C72.35 151.27 72.8767 153.995 71.2166 156.359C71.2018 156.377 71.1805 156.39 71.1565 156.395C71.1325 156.4 71.1073 156.398 71.0852 156.387C71.0632 156.377 71.0457 156.36 71.0358 156.339C71.0259 156.319 71.0243 156.295 71.0312 156.273C72.4933 153.556 71.5579 150.749 70.3149 148.121C69.249 145.878 68.1577 143.665 66.4218 141.786C66.3207 141.689 66.506 141.53 66.6156 141.631Z" fill="#263238"/>
<path d="M72.1901 140.587C75.5903 143.995 79.7742 150.241 77.3304 154.989C77.3254 155.001 77.315 155.012 77.3016 155.018C77.2882 155.024 77.2728 155.024 77.2588 155.02C77.2448 155.015 77.2334 155.005 77.2271 154.993C77.2208 154.981 77.2201 154.967 77.2251 154.954C78.5607 149.725 75.1184 144.806 72.0384 140.703C71.971 140.618 72.11 140.505 72.1901 140.587Z" fill="#263238"/>
<path d="M77.3136 139.271C79.3023 140.859 80.8064 143.134 81.9736 145.284C83.2376 147.614 83.7516 150.195 82.9047 152.73C82.8996 152.742 82.8899 152.752 82.8775 152.758C82.8651 152.764 82.8508 152.766 82.837 152.763C82.8233 152.76 82.8111 152.753 82.8027 152.743C82.7942 152.732 82.7901 152.72 82.791 152.707C83.3345 147.559 80.7433 143.2 77.1534 139.403C77.0734 139.318 77.2251 139.202 77.3136 139.271Z" fill="#263238"/>
<path d="M57.8691 154.232C57.8691 154.259 57.8691 154.286 57.9071 154.263C59.2343 153.009 61.4969 153.009 63.6499 153.3C63.6635 153.307 63.6787 153.311 63.6941 153.311C63.7096 153.311 63.7248 153.307 63.7384 153.3C65.0572 153.487 66.3254 153.778 67.3029 153.956C67.3346 153.961 67.3673 153.956 67.3948 153.94C67.4224 153.925 67.4432 153.901 67.4534 153.873C67.4636 153.845 67.4625 153.814 67.4503 153.787C67.4382 153.76 67.4158 153.737 67.3872 153.723C66.2022 153.21 64.9367 152.872 63.6373 152.722C63.4001 152.365 63.2385 151.97 63.1612 151.557C63.1072 150.914 63.2706 150.271 63.6288 149.717C63.6288 149.686 63.5993 149.663 63.5741 149.686C63.293 149.928 63.0722 150.222 62.9267 150.55C62.7812 150.878 62.7146 151.231 62.7314 151.584C62.7314 151.608 62.7314 151.635 62.7314 151.662C62.6014 151.909 62.4276 152.135 62.2174 152.33C62.0838 152.441 61.9431 152.545 61.796 152.64C60.2118 152.702 58.6992 153.133 57.8691 154.232ZM63.0432 152.679C62.8241 152.679 62.6008 152.656 62.3775 152.648C62.4389 152.584 62.4966 152.516 62.5502 152.446C62.6654 152.294 62.7523 152.124 62.8072 151.945C62.8487 152.198 62.9282 152.443 63.0432 152.675V152.679Z" fill="#263238"/>
<path d="M42.8653 97.2186L40.4089 103.55L31.6662 95.957L29.3867 98.5773C29.3867 98.5773 38.1421 110.821 38.1674 110.25L40.7334 104.777L44.9173 108.375L44.1968 98.9965L42.8653 97.2186Z" fill="#C6AADF"/>
<path d="M44.8325 103.721C44.6598 102.168 44.5291 100.616 44.2763 99.0629C44.2763 99.0085 44.1752 98.9891 44.1626 99.0629C43.8887 100.569 44.5839 106.473 44.6429 107.894C44.4659 107.735 40.7708 104.734 40.7371 104.789C40.1683 105.666 38.2849 109.653 38.1585 110.014C36.7765 108.073 30.9241 100.414 29.3104 98.5854C29.302 98.573 29.2886 98.5643 29.2732 98.561C29.2578 98.5577 29.2416 98.5602 29.2282 98.5679C29.2148 98.5756 29.2053 98.588 29.2017 98.6022C29.1982 98.6163 29.2009 98.6313 29.2093 98.6436C30.448 100.705 38.0152 110.809 38.1164 110.778C39.1178 108.894 40.0123 106.964 40.7961 104.994C41.4281 105.654 45.1738 109.055 45.178 108.826C45.1603 107.12 45.045 105.416 44.8325 103.721Z" fill="#263238"/>
<path d="M61.7246 164.44H52.7627V165.729H61.7246V164.44Z" fill="#5D387F"/>
<path d="M61.7246 164.44H52.7627V165.291H61.7246V164.44Z" fill="#263238"/>
<path d="M42.1278 160.974C42.6722 161.72 43.4392 162.305 44.3363 162.659C45.2335 163.012 46.2224 163.119 47.1839 162.966C47.4942 162.91 47.7987 162.829 48.094 162.725C48.5379 162.563 48.9616 162.357 49.358 162.112L48.2162 160.559C48.0054 160.696 47.7811 160.814 47.5462 160.912C45.4143 161.801 44.0618 160.252 43.7963 159.899C42.566 158.307 42.111 154.674 43.375 153.28C43.4593 153.176 43.7963 153.012 45.2626 153.28C45.528 153.335 45.8314 153.397 46.1727 153.482C46.4372 153.566 46.7116 153.621 46.9901 153.645L47.028 152.714L47.1249 151.782C47.0322 151.782 46.8889 151.728 46.7036 151.677C46.0365 151.496 45.3544 151.367 44.6643 151.289C43.6025 151.184 42.4902 151.289 41.8076 152.065C39.7767 154.367 40.5899 158.979 42.1278 160.974Z" fill="#5D387F"/>
<path d="M48.2041 160.555C47.9934 160.692 47.7691 160.81 47.5342 160.908L48.0777 162.725C48.5216 162.562 48.9453 162.357 49.3417 162.111L48.2041 160.555Z" fill="#263238"/>
<path d="M44.6475 151.3L45.25 153.291C45.5154 153.346 45.8188 153.408 46.1601 153.493C46.4246 153.577 46.699 153.632 46.9775 153.656L47.0154 152.724L47.1123 151.793C47.0196 151.793 46.8763 151.738 46.691 151.688C46.0225 151.507 45.339 151.377 44.6475 151.3Z" fill="#263238"/>
<path d="M69.1609 148.886C69.1609 148.886 68.0865 157.298 66.2115 160.842C64.3366 164.386 61.7622 164.774 60.1527 164.774H54.3129C52.7034 164.774 50.0995 164.386 48.2541 160.842C46.4086 157.298 45.3047 148.886 45.3047 148.886H69.1609Z" fill="#5D387F"/>
<path d="M67.408 154.374C67.2946 154.374 67.1839 154.343 67.0896 154.285C66.9954 154.227 66.9219 154.145 66.8786 154.048C66.8352 153.952 66.8239 153.846 66.846 153.743C66.8681 153.641 66.9227 153.547 67.0028 153.473C67.0829 153.399 67.185 153.349 67.2962 153.329C67.4073 153.308 67.5226 153.319 67.6273 153.359C67.732 153.399 67.8215 153.466 67.8844 153.553C67.9474 153.64 67.981 153.742 67.981 153.846C67.981 153.986 67.9206 154.121 67.8132 154.22C67.7057 154.319 67.56 154.374 67.408 154.374ZM67.408 153.415C67.3155 153.415 67.2251 153.441 67.1481 153.488C67.0712 153.535 67.0113 153.603 66.9759 153.681C66.9405 153.76 66.9312 153.847 66.9493 153.93C66.9673 154.014 67.0119 154.091 67.0773 154.151C67.1427 154.211 67.226 154.252 67.3167 154.269C67.4075 154.286 67.5015 154.277 67.587 154.244C67.6724 154.212 67.7455 154.157 67.7968 154.086C67.8482 154.015 67.8757 153.932 67.8757 153.846C67.8757 153.732 67.8264 153.622 67.7387 153.542C67.651 153.461 67.532 153.415 67.408 153.415Z" fill="white"/>
<path d="M50.4242 151.657C50.3099 151.658 50.1979 151.628 50.1024 151.57C50.0069 151.512 49.9323 151.429 49.8879 151.332C49.8436 151.235 49.8316 151.128 49.8534 151.024C49.8752 150.921 49.9298 150.826 50.0103 150.751C50.0909 150.676 50.1938 150.625 50.3058 150.604C50.4179 150.583 50.5342 150.594 50.6399 150.634C50.7456 150.674 50.836 150.742 50.8997 150.83C50.9633 150.917 50.9972 151.02 50.9972 151.126C50.9978 151.195 50.9834 151.264 50.9548 151.329C50.9263 151.393 50.8842 151.452 50.8309 151.501C50.7776 151.551 50.7143 151.59 50.6445 151.617C50.5747 151.644 50.4998 151.657 50.4242 151.657ZM50.4242 150.695C50.3305 150.694 50.2387 150.719 50.1605 150.766C50.0822 150.814 50.0211 150.882 49.9849 150.961C49.9486 151.041 49.9389 151.129 49.957 151.213C49.9751 151.298 50.0201 151.376 50.0863 151.437C50.1526 151.498 50.2371 151.539 50.329 151.556C50.4209 151.573 50.5161 151.564 50.6025 151.53C50.6889 151.497 50.7626 151.441 50.8141 151.369C50.8657 151.296 50.8927 151.212 50.8919 151.126C50.8919 151.069 50.8798 151.013 50.8563 150.961C50.8328 150.908 50.7984 150.861 50.7549 150.821C50.7115 150.781 50.6599 150.749 50.6032 150.727C50.5465 150.706 50.4856 150.695 50.4242 150.695Z" fill="white"/>
<path d="M51.2709 159.409C51.1566 159.41 51.0445 159.38 50.9491 159.322C50.8536 159.264 50.7789 159.181 50.7346 159.084C50.6903 158.987 50.6782 158.88 50.7 158.776C50.7218 158.673 50.7765 158.578 50.857 158.503C50.9376 158.428 51.0404 158.377 51.1525 158.356C51.2646 158.335 51.3809 158.346 51.4866 158.386C51.5923 158.426 51.6827 158.494 51.7463 158.582C51.81 158.669 51.8439 158.772 51.8439 158.878C51.8445 158.947 51.8301 159.016 51.8015 159.081C51.773 159.145 51.7309 159.204 51.6776 159.253C51.6243 159.303 51.561 159.342 51.4912 159.369C51.4214 159.396 51.3465 159.409 51.2709 159.409ZM51.2709 158.447C51.1772 158.446 51.0854 158.471 51.0072 158.518C50.9289 158.566 50.8678 158.634 50.8315 158.713C50.7953 158.793 50.7856 158.881 50.8037 158.965C50.8217 159.05 50.8668 159.128 50.933 159.189C50.9993 159.25 51.0837 159.291 51.1757 159.308C51.2676 159.325 51.3628 159.316 51.4492 159.282C51.5356 159.249 51.6093 159.193 51.6608 159.121C51.7123 159.048 51.7394 158.964 51.7386 158.878C51.7386 158.763 51.6893 158.654 51.6016 158.573C51.5139 158.492 51.3949 158.447 51.2709 158.447Z" fill="white"/>
<path d="M46.5899 150.272C46.4756 150.272 46.3638 150.24 46.2688 150.182C46.1738 150.123 46.0998 150.04 46.0562 149.942C46.0127 149.845 46.0015 149.738 46.0241 149.635C46.0467 149.531 46.1021 149.437 46.1833 149.362C46.2644 149.288 46.3677 149.238 46.4799 149.218C46.5922 149.198 46.7083 149.209 46.8137 149.25C46.9191 149.29 47.009 149.359 47.0719 149.447C47.1348 149.535 47.168 149.638 47.1671 149.744C47.1671 149.813 47.1522 149.882 47.1231 149.947C47.0941 150.011 47.0515 150.069 46.9978 150.118C46.9442 150.167 46.8805 150.206 46.8105 150.233C46.7405 150.259 46.6655 150.272 46.5899 150.272ZM46.5899 149.309C46.4966 149.309 46.4053 149.334 46.3277 149.382C46.2501 149.43 46.1897 149.498 46.1539 149.577C46.1182 149.657 46.1089 149.744 46.1271 149.829C46.1453 149.913 46.1902 149.99 46.2562 150.051C46.3222 150.112 46.4063 150.153 46.4978 150.17C46.5894 150.187 46.6843 150.178 46.7705 150.145C46.8567 150.112 46.9304 150.057 46.9823 149.985C47.0341 149.914 47.0618 149.83 47.0618 149.744C47.0618 149.628 47.0121 149.518 46.9236 149.436C46.8351 149.355 46.7151 149.309 46.5899 149.309Z" fill="white"/>
<path d="M54.5867 153.564C54.4734 153.564 54.3626 153.533 54.2683 153.475C54.1741 153.417 54.1007 153.334 54.0573 153.238C54.0139 153.141 54.0026 153.035 54.0247 152.933C54.0468 152.83 54.1014 152.736 54.1815 152.662C54.2616 152.589 54.3637 152.538 54.4749 152.518C54.5861 152.498 54.7013 152.508 54.806 152.548C54.9107 152.588 55.0002 152.656 55.0631 152.742C55.1261 152.829 55.1597 152.931 55.1597 153.036C55.1597 153.105 55.1449 153.174 55.1161 153.238C55.0873 153.302 55.0451 153.36 54.9919 153.409C54.9387 153.458 54.8755 153.497 54.806 153.523C54.7365 153.55 54.6619 153.564 54.5867 153.564ZM54.5867 152.605C54.4942 152.605 54.4038 152.63 54.3269 152.677C54.2499 152.725 54.19 152.792 54.1546 152.871C54.1192 152.95 54.1099 153.036 54.128 153.12C54.146 153.203 54.1906 153.28 54.256 153.34C54.3214 153.401 54.4047 153.442 54.4955 153.458C54.5862 153.475 54.6802 153.466 54.7657 153.434C54.8511 153.401 54.9242 153.346 54.9756 153.275C55.027 153.204 55.0544 153.121 55.0544 153.036C55.0533 152.922 55.0037 152.813 54.9162 152.732C54.8287 152.652 54.7104 152.606 54.5867 152.605Z" fill="white"/>
<path d="M60.8438 159.189C60.7297 159.189 60.6181 159.157 60.5231 159.099C60.4282 159.041 60.3542 158.958 60.3105 158.86C60.2669 158.763 60.2554 158.656 60.2777 158.553C60.3 158.45 60.3549 158.355 60.4357 158.281C60.5164 158.206 60.6193 158.156 60.7312 158.135C60.8432 158.115 60.9593 158.125 61.0647 158.165C61.1702 158.206 61.2604 158.274 61.3238 158.361C61.3872 158.449 61.4211 158.552 61.4211 158.657C61.4216 158.727 61.4071 158.796 61.3783 158.861C61.3495 158.926 61.307 158.985 61.2532 159.034C61.1995 159.084 61.1357 159.123 61.0654 159.149C60.9951 159.176 60.9198 159.189 60.8438 159.189ZM60.8438 158.226C60.7503 158.226 60.6589 158.252 60.5812 158.299C60.5035 158.347 60.4431 158.416 60.4075 158.495C60.3719 158.575 60.3628 158.663 60.3813 158.747C60.3999 158.831 60.4453 158.909 60.5117 158.97C60.5781 159.03 60.6626 159.071 60.7544 159.088C60.8462 159.104 60.9412 159.095 61.0274 159.061C61.1135 159.028 61.1869 158.971 61.2383 158.899C61.2896 158.827 61.3166 158.743 61.3157 158.657C61.3157 158.6 61.3035 158.544 61.2797 158.491C61.256 158.438 61.2211 158.391 61.1773 158.351C61.1334 158.311 61.0813 158.279 61.0241 158.258C60.9669 158.236 60.9056 158.225 60.8438 158.226Z" fill="white"/>
<path d="M57.0101 150.272C56.8956 150.272 56.7834 150.242 56.6879 150.184C56.5923 150.125 56.5177 150.042 56.4735 149.945C56.4292 149.848 56.4175 149.741 56.4396 149.637C56.4617 149.534 56.5168 149.438 56.5978 149.364C56.6788 149.289 56.782 149.238 56.8944 149.218C57.0067 149.198 57.1231 149.209 57.2288 149.249C57.3344 149.29 57.4245 149.359 57.4876 149.447C57.5507 149.535 57.584 149.638 57.5832 149.744C57.5832 149.884 57.5228 150.018 57.4153 150.117C57.3079 150.216 57.1621 150.272 57.0101 150.272ZM57.0101 149.309C56.9166 149.308 56.825 149.333 56.7468 149.38C56.6687 149.428 56.6075 149.495 56.5712 149.575C56.5348 149.654 56.5249 149.742 56.5426 149.826C56.5603 149.911 56.6049 149.989 56.6708 150.05C56.7366 150.111 56.8207 150.153 56.9123 150.17C57.004 150.187 57.0991 150.179 57.1855 150.146C57.272 150.113 57.346 150.057 57.398 149.986C57.45 149.914 57.4778 149.83 57.4778 149.744C57.4778 149.629 57.4287 149.519 57.3411 149.438C57.2535 149.356 57.1346 149.31 57.0101 149.309Z" fill="white"/>
<path d="M56.2973 157.069C56.1842 157.068 56.0738 157.036 55.9801 156.978C55.8865 156.919 55.8137 156.837 55.7709 156.74C55.7282 156.643 55.7175 156.537 55.74 156.435C55.7626 156.333 55.8175 156.239 55.8978 156.166C55.9781 156.093 56.0802 156.043 56.1913 156.023C56.3023 156.003 56.4173 156.013 56.5218 156.053C56.6262 156.093 56.7155 156.161 56.7783 156.248C56.841 156.334 56.8746 156.436 56.8746 156.541C56.8746 156.61 56.8596 156.679 56.8305 156.744C56.8015 156.808 56.7589 156.866 56.7052 156.915C56.6516 156.964 56.5879 157.003 56.5179 157.029C56.4479 157.056 56.3729 157.069 56.2973 157.069ZM56.2973 156.11C56.205 156.11 56.115 156.136 56.0387 156.184C55.9623 156.232 55.903 156.3 55.8683 156.378C55.8335 156.457 55.8248 156.544 55.8434 156.627C55.8619 156.71 55.9068 156.787 55.9723 156.847C56.0379 156.907 56.1212 156.947 56.2118 156.963C56.3024 156.98 56.3963 156.971 56.4815 156.938C56.5667 156.906 56.6395 156.85 56.6907 156.78C56.7419 156.709 56.7692 156.626 56.7692 156.541C56.7692 156.484 56.757 156.427 56.7332 156.375C56.7095 156.322 56.6746 156.275 56.6308 156.235C56.5869 156.194 56.5348 156.163 56.4776 156.141C56.4204 156.12 56.3591 156.109 56.2973 156.11Z" fill="white"/>
<path d="M50.6098 163.397C50.4954 163.397 50.3834 163.367 50.2879 163.309C50.1925 163.251 50.1178 163.168 50.0735 163.071C50.0291 162.974 50.0171 162.867 50.0389 162.763C50.0607 162.66 50.1153 162.565 50.1959 162.49C50.2765 162.415 50.3793 162.364 50.4914 162.344C50.6035 162.323 50.7197 162.333 50.8255 162.373C50.9312 162.413 51.0216 162.481 51.0852 162.569C51.1488 162.656 51.1828 162.759 51.1828 162.865C51.1833 162.934 51.1689 163.004 51.1404 163.068C51.1118 163.133 51.0697 163.191 51.0165 163.241C50.9632 163.29 50.8998 163.329 50.83 163.356C50.7602 163.383 50.6854 163.397 50.6098 163.397ZM50.6098 162.434C50.5161 162.433 50.4243 162.458 50.346 162.506C50.2678 162.553 50.2066 162.621 50.1704 162.701C50.1342 162.78 50.1245 162.868 50.1425 162.953C50.1606 163.037 50.2056 163.115 50.2719 163.176C50.3381 163.237 50.4226 163.279 50.5145 163.295C50.6065 163.312 50.7017 163.303 50.7881 163.27C50.8745 163.236 50.9482 163.18 50.9997 163.108C51.0512 163.036 51.0783 162.951 51.0775 162.865C51.0775 162.808 51.0654 162.752 51.0419 162.7C51.0183 162.648 50.9839 162.6 50.9405 162.56C50.897 162.52 50.8455 162.488 50.7887 162.467C50.732 162.445 50.6712 162.434 50.6098 162.434Z" fill="white"/>
<path d="M64.5642 151.064C64.4509 151.064 64.3401 151.033 64.2459 150.975C64.1516 150.917 64.0782 150.834 64.0348 150.738C63.9915 150.641 63.9801 150.535 64.0022 150.433C64.0243 150.33 64.0789 150.236 64.159 150.162C64.2392 150.089 64.3413 150.038 64.4524 150.018C64.5636 149.998 64.6788 150.008 64.7835 150.048C64.8882 150.088 64.9777 150.156 65.0407 150.242C65.1036 150.329 65.1373 150.431 65.1373 150.536C65.1361 150.675 65.0754 150.809 64.9682 150.908C64.861 151.007 64.7159 151.063 64.5642 151.064ZM64.5642 150.105C64.4717 150.105 64.3813 150.13 64.3044 150.177C64.2275 150.225 64.1675 150.292 64.1321 150.371C64.0967 150.45 64.0875 150.536 64.1055 150.62C64.1236 150.703 64.1681 150.78 64.2335 150.84C64.2989 150.901 64.3823 150.942 64.473 150.958C64.5637 150.975 64.6577 150.966 64.7432 150.934C64.8287 150.901 64.9017 150.846 64.9531 150.775C65.0045 150.704 65.0319 150.621 65.0319 150.536C65.0319 150.421 64.9826 150.312 64.8949 150.231C64.8072 150.15 64.6883 150.105 64.5642 150.105Z" fill="white"/>
<path d="M48.5531 155.628C48.4388 155.629 48.3268 155.598 48.2313 155.54C48.1358 155.482 48.0612 155.4 48.0168 155.302C47.9725 155.205 47.9605 155.098 47.9823 154.995C48.0041 154.891 48.0587 154.796 48.1393 154.722C48.2198 154.647 48.3227 154.596 48.4347 154.575C48.5468 154.554 48.6631 154.564 48.7688 154.605C48.8745 154.645 48.965 154.713 49.0286 154.8C49.0922 154.888 49.1261 154.991 49.1262 155.096C49.1262 155.237 49.0659 155.371 48.9586 155.471C48.8512 155.571 48.7055 155.627 48.5531 155.628ZM48.5531 154.665C48.4594 154.665 48.3676 154.69 48.2894 154.737C48.2111 154.784 48.15 154.852 48.1138 154.932C48.0775 155.012 48.0678 155.099 48.0859 155.184C48.104 155.269 48.149 155.347 48.2153 155.408C48.2815 155.469 48.366 155.51 48.4579 155.527C48.5498 155.543 48.6451 155.534 48.7315 155.501C48.8179 155.468 48.8915 155.411 48.943 155.339C48.9946 155.267 49.0216 155.183 49.0208 155.096C49.0197 154.982 48.9701 154.873 48.8826 154.793C48.7951 154.712 48.6768 154.666 48.5531 154.665Z" fill="white"/>
<path d="M60.3041 154.045C60.1896 154.046 60.0774 154.015 59.9818 153.957C59.8862 153.899 59.8116 153.816 59.7674 153.719C59.7232 153.621 59.7114 153.514 59.7335 153.41C59.7557 153.307 59.8107 153.212 59.8917 153.137C59.9727 153.063 60.0759 153.012 60.1883 152.991C60.3007 152.971 60.4171 152.982 60.5227 153.023C60.6284 153.063 60.7185 153.132 60.7816 153.22C60.8447 153.308 60.8779 153.412 60.8771 153.517C60.8771 153.657 60.8167 153.791 60.7093 153.89C60.6018 153.989 60.4561 154.045 60.3041 154.045ZM60.3041 153.082C60.2106 153.082 60.1189 153.106 60.0408 153.154C59.9626 153.201 59.9015 153.269 59.8651 153.348C59.8288 153.427 59.8188 153.515 59.8365 153.6C59.8543 153.684 59.8989 153.762 59.9647 153.823C60.0305 153.884 60.1146 153.926 60.2063 153.943C60.2979 153.96 60.393 153.952 60.4795 153.919C60.5659 153.886 60.6399 153.831 60.6919 153.759C60.744 153.687 60.7718 153.603 60.7718 153.517C60.7718 153.402 60.7226 153.292 60.6351 153.211C60.5475 153.13 60.4285 153.083 60.3041 153.082Z" fill="white"/>
<path d="M56.2979 162.601C56.1838 162.601 56.0722 162.57 55.9772 162.511C55.8823 162.453 55.8083 162.37 55.7646 162.272C55.721 162.175 55.7095 162.068 55.7318 161.965C55.7541 161.862 55.809 161.767 55.8898 161.693C55.9705 161.619 56.0734 161.568 56.1853 161.547C56.2973 161.527 56.4134 161.537 56.5188 161.578C56.6243 161.618 56.7145 161.686 56.7779 161.773C56.8413 161.861 56.8752 161.964 56.8752 162.069C56.8752 162.21 56.8144 162.345 56.7061 162.445C56.5979 162.545 56.451 162.601 56.2979 162.601ZM56.2979 161.638C56.2044 161.638 56.113 161.664 56.0353 161.712C55.9576 161.76 55.8972 161.828 55.8616 161.907C55.826 161.987 55.8169 162.075 55.8354 162.159C55.854 162.244 55.8994 162.321 55.9658 162.382C56.0322 162.442 56.1167 162.483 56.2085 162.5C56.3003 162.516 56.3953 162.507 56.4815 162.473C56.5676 162.44 56.641 162.384 56.6924 162.312C56.7437 162.24 56.7707 162.155 56.7698 162.069C56.7698 162.012 56.7576 161.956 56.7338 161.903C56.7101 161.851 56.6752 161.803 56.6314 161.763C56.5875 161.723 56.5354 161.691 56.4782 161.67C56.421 161.648 56.3597 161.638 56.2979 161.638Z" fill="white"/>
<path d="M61.1261 164.51C61.0119 164.51 60.9003 164.479 60.8054 164.42C60.7104 164.362 60.6365 164.279 60.5928 164.182C60.5491 164.084 60.5376 163.978 60.5599 163.874C60.5822 163.771 60.6372 163.676 60.7179 163.602C60.7986 163.528 60.9015 163.477 61.0134 163.457C61.1254 163.436 61.2415 163.447 61.347 163.487C61.4524 163.527 61.5426 163.595 61.606 163.683C61.6694 163.77 61.7033 163.873 61.7033 163.978C61.7033 164.119 61.6425 164.254 61.5342 164.354C61.426 164.454 61.2792 164.51 61.1261 164.51ZM61.1261 163.547C61.0326 163.547 60.9412 163.573 60.8635 163.621C60.7858 163.669 60.7253 163.737 60.6897 163.817C60.6541 163.896 60.645 163.984 60.6636 164.068C60.6821 164.153 60.7275 164.23 60.7939 164.291C60.8603 164.351 60.9448 164.393 61.0366 164.409C61.1284 164.425 61.2234 164.416 61.3096 164.383C61.3957 164.349 61.4691 164.293 61.5205 164.221C61.5718 164.149 61.5988 164.064 61.598 163.978C61.598 163.921 61.5857 163.865 61.562 163.812C61.5382 163.76 61.5034 163.712 61.4595 163.672C61.4156 163.632 61.3636 163.6 61.3063 163.579C61.2491 163.557 61.1878 163.547 61.1261 163.547Z" fill="white"/>
<path d="M64.5642 156.587C64.4509 156.587 64.3401 156.556 64.2459 156.498C64.1516 156.44 64.0782 156.358 64.0348 156.261C63.9915 156.165 63.9801 156.059 64.0022 155.956C64.0243 155.854 64.0789 155.76 64.159 155.686C64.2392 155.612 64.3413 155.562 64.4524 155.541C64.5636 155.521 64.6788 155.531 64.7835 155.571C64.8882 155.611 64.9777 155.679 65.0407 155.766C65.1036 155.853 65.1373 155.955 65.1373 156.059C65.1361 156.199 65.0754 156.333 64.9682 156.431C64.861 156.53 64.7159 156.586 64.5642 156.587ZM64.5642 155.628C64.4717 155.628 64.3813 155.654 64.3044 155.701C64.2275 155.748 64.1675 155.816 64.1321 155.894C64.0967 155.973 64.0875 156.06 64.1055 156.143C64.1236 156.227 64.1681 156.304 64.2335 156.364C64.2989 156.424 64.3823 156.465 64.473 156.482C64.5637 156.498 64.6577 156.49 64.7432 156.457C64.8287 156.425 64.9017 156.369 64.9531 156.299C65.0045 156.228 65.0319 156.144 65.0319 156.059C65.0308 155.945 64.9812 155.836 64.8937 155.756C64.8062 155.675 64.6879 155.629 64.5642 155.628Z" fill="white"/>
<path d="M65.0821 161.359C64.9678 161.359 64.856 161.327 64.761 161.269C64.666 161.21 64.592 161.127 64.5484 161.029C64.5049 160.932 64.4937 160.825 64.5163 160.722C64.5389 160.618 64.5943 160.524 64.6754 160.449C64.7566 160.375 64.8598 160.325 64.9721 160.305C65.0843 160.285 65.2005 160.296 65.3059 160.337C65.4113 160.377 65.5012 160.446 65.5641 160.534C65.627 160.622 65.6602 160.725 65.6593 160.831C65.6593 160.9 65.6444 160.969 65.6153 161.034C65.5863 161.098 65.5437 161.156 65.49 161.205C65.4364 161.254 65.3727 161.293 65.3027 161.319C65.2327 161.346 65.1577 161.359 65.0821 161.359ZM65.0821 160.396C64.9888 160.396 64.8975 160.421 64.8199 160.469C64.7423 160.517 64.6818 160.585 64.6461 160.664C64.6104 160.744 64.6011 160.831 64.6193 160.915C64.6375 161 64.6824 161.077 64.7484 161.138C64.8144 161.199 64.8985 161.24 64.99 161.257C65.0816 161.274 65.1765 161.265 65.2627 161.232C65.3489 161.199 65.4226 161.144 65.4745 161.072C65.5263 161.001 65.554 160.917 65.554 160.831C65.554 160.715 65.5043 160.605 65.4158 160.523C65.3273 160.442 65.2073 160.396 65.0821 160.396Z" fill="white"/>
<path d="M59.9629 80.2743C58.9288 78.8618 58.3704 77.1994 58.3576 75.4957C58.3576 69.4477 65.5709 64.541 74.4612 64.541C83.3514 64.541 90.5563 69.4477 90.5563 75.4957C90.5563 81.5437 83.3514 86.4543 74.4612 86.4543C70.1467 86.4543 66.2409 85.2897 63.3547 83.4225L57.8057 84.7191L59.9629 80.2743Z" fill="#8C54BF"/>
<path d="M80.25 75.4961C80.25 75.8032 80.3488 76.1034 80.534 76.3588C80.7192 76.6141 80.9824 76.8131 81.2904 76.9307C81.5984 77.0482 81.9372 77.0789 82.2642 77.019C82.5911 76.9591 82.8914 76.8112 83.1271 76.5941C83.3628 76.3769 83.5233 76.1002 83.5883 75.799C83.6534 75.4978 83.62 75.1856 83.4924 74.9019C83.3649 74.6182 83.1488 74.3757 82.8717 74.205C82.5945 74.0344 82.2687 73.9434 81.9354 73.9434C81.4884 73.9434 81.0597 74.107 80.7436 74.3981C80.4276 74.6893 80.25 75.0843 80.25 75.4961Z" fill="white"/>
<path d="M72.7881 75.4961C72.7881 75.8032 72.8869 76.1034 73.0721 76.3588C73.2573 76.6141 73.5205 76.8131 73.8285 76.9307C74.1364 77.0482 74.4753 77.0789 74.8022 77.019C75.1292 76.9591 75.4295 76.8112 75.6652 76.5941C75.9009 76.3769 76.0614 76.1002 76.1264 75.799C76.1914 75.4978 76.1581 75.1856 76.0305 74.9019C75.9029 74.6182 75.6869 74.3757 75.4098 74.205C75.1326 74.0344 74.8068 73.9434 74.4734 73.9434C74.0265 73.9434 73.5978 74.107 73.2817 74.3981C72.9656 74.6893 72.7881 75.0843 72.7881 75.4961Z" fill="white"/>
<path d="M65.3262 75.4961C65.3262 75.8032 65.425 76.1034 65.6102 76.3588C65.7954 76.6141 66.0586 76.8131 66.3666 76.9307C66.6745 77.0482 67.0134 77.0789 67.3403 77.019C67.6673 76.9591 67.9676 76.8112 68.2033 76.5941C68.439 76.3769 68.5995 76.1002 68.6645 75.799C68.7295 75.4978 68.6962 75.1856 68.5686 74.9019C68.441 74.6182 68.225 74.3757 67.9479 74.205C67.6707 74.0344 67.3449 73.9434 67.0115 73.9434C66.5645 73.9434 66.1359 74.107 65.8198 74.3981C65.5037 74.6893 65.3262 75.0843 65.3262 75.4961Z" fill="white"/>
<path d="M129.943 63.3143C130.977 61.9018 131.536 60.2395 131.548 58.5357C131.548 52.4878 124.335 47.5811 115.445 47.5811C106.555 47.5811 99.3496 52.4878 99.3496 58.5357C99.3496 64.5837 106.555 69.4943 115.445 69.4943C119.755 69.4943 123.665 68.3297 126.551 66.4625L132.096 67.7552L129.943 63.3143Z" fill="#8C54BF"/>
<path d="M109.651 58.5362C109.651 58.8433 109.552 59.1435 109.367 59.3988C109.182 59.6542 108.919 59.8532 108.611 59.9707C108.303 60.0882 107.964 60.119 107.637 60.0591C107.31 59.9992 107.01 59.8513 106.774 59.6341C106.538 59.417 106.378 59.1403 106.313 58.8391C106.248 58.5379 106.281 58.2257 106.409 57.9419C106.536 57.6582 106.752 57.4157 107.029 57.2451C107.306 57.0745 107.632 56.9834 107.966 56.9834C108.413 56.9834 108.841 57.147 109.157 57.4382C109.473 57.7294 109.651 58.1243 109.651 58.5362Z" fill="white"/>
<path d="M117.113 58.5362C117.113 58.8433 117.014 59.1435 116.829 59.3988C116.644 59.6542 116.38 59.8532 116.072 59.9707C115.765 60.0882 115.426 60.119 115.099 60.0591C114.772 59.9992 114.472 59.8513 114.236 59.6341C114 59.417 113.84 59.1403 113.775 58.8391C113.71 58.5379 113.743 58.2257 113.87 57.9419C113.998 57.6582 114.214 57.4157 114.491 57.2451C114.768 57.0745 115.094 56.9834 115.428 56.9834C115.875 56.9834 116.303 57.147 116.619 57.4382C116.935 57.7294 117.113 58.1243 117.113 58.5362Z" fill="white"/>
<path d="M124.575 58.5362C124.575 58.8433 124.476 59.1435 124.291 59.3988C124.106 59.6542 123.842 59.8532 123.534 59.9707C123.226 60.0882 122.888 60.119 122.561 60.0591C122.234 59.9992 121.933 59.8513 121.698 59.6341C121.462 59.417 121.302 59.1403 121.236 58.8391C121.171 58.5379 121.205 58.2257 121.332 57.9419C121.46 57.6582 121.676 57.4157 121.953 57.2451C122.23 57.0745 122.556 56.9834 122.889 56.9834C123.336 56.9834 123.765 57.147 124.081 57.4382C124.397 57.7294 124.575 58.1243 124.575 58.5362Z" fill="white"/>
</svg>
