<svg width="393" height="349" viewBox="0 0 393 349" fill="none" xmlns="http://www.w3.org/2000/svg">
<path d="M189.627 48.8516H22.1777V158.274H189.627V48.8516Z" fill="#DBDBDB"/>
<path d="M22.1777 158.273V183.227L49.1259 158.273H22.1777Z" fill="#DBDBDB"/>
<path d="M203.371 217.693L370.82 217.693V108.271L203.371 108.271L203.371 217.693Z" fill="#EBEBEB"/>
<path d="M370.82 217.686V242.639L343.872 217.686H370.82Z" fill="#EBEBEB"/>
<path d="M38.5617 208.236H15.9297V217.048H38.5617V208.236Z" fill="#EBEBEB"/>
<path d="M25.9386 219.348H3.30664V228.159H25.9386V219.348Z" fill="#EBEBEB"/>
<path d="M51.1867 219.348H28.5547V228.159H51.1867V219.348Z" fill="#EBEBEB"/>
<path d="M377.068 255.49H354.436V264.302H377.068V255.49Z" fill="#EBEBEB"/>
<path d="M377.068 31.2832H354.436V40.0946H377.068V31.2832Z" fill="#EBEBEB"/>
<path d="M389.692 42.3945H367.06V51.206H389.692V42.3945Z" fill="#EBEBEB"/>
<path d="M25.9386 31.291H3.30664V40.1024H25.9386V31.291Z" fill="#EBEBEB"/>
<path d="M148.516 188.519H171.148V179.707H148.516V188.519Z" fill="#EBEBEB"/>
<path d="M161.141 177.408H183.773V168.597H161.141V177.408Z" fill="#EBEBEB"/>
<path d="M342.496 0.0458984H341.642V58.9541H342.496V0.0458984Z" fill="#C7C7C7"/>
<path d="M347.359 53.4502H336.778V64.0019H347.359V53.4502Z" fill="#DBDBDB"/>
<path d="M363.709 97.6647H320.428C321.282 82.4908 329.154 58.1826 342.077 58.1826C355 58.1826 362.846 82.4829 363.709 97.6647Z" fill="#DBDBDB"/>
<path d="M287.531 0.0458984H286.677V58.9541H287.531V0.0458984Z" fill="#C7C7C7"/>
<path d="M292.394 53.4502H281.813V64.0019H292.394V53.4502Z" fill="#DBDBDB"/>
<path d="M308.745 97.6647H265.455C266.31 82.4908 274.181 58.1826 287.104 58.1826C300.027 58.1826 307.882 82.4829 308.745 97.6647Z" fill="#DBDBDB"/>
<path d="M232.558 0.0458984H231.703V58.9541H232.558V0.0458984Z" fill="#C7C7C7"/>
<path d="M237.43 53.4502H226.849V64.0019H237.43V53.4502Z" fill="#DBDBDB"/>
<path d="M253.763 97.6647H210.49C211.345 82.4908 219.217 58.1826 232.131 58.1826C245.045 58.1826 252.908 82.4829 253.763 97.6647Z" fill="#DBDBDB"/>
<path d="M0 288.894L49.1271 288.705L98.2543 288.634L196.5 288.5L294.746 288.634L343.873 288.705L393 288.894L343.873 289.091L294.746 289.161L196.5 289.287L98.2543 289.154L49.1271 289.091L0 288.894Z" fill="#263238"/>
<path d="M196.5 331.25C295.999 331.25 376.659 321.964 376.659 310.509C376.659 299.054 295.999 289.768 196.5 289.768C97.0015 289.768 16.3418 299.054 16.3418 310.509C16.3418 321.964 97.0015 331.25 196.5 331.25Z" fill="#EBEBEB"/>
<path d="M113.305 348.046C142.486 348.046 166.142 342.554 166.142 335.778C166.142 329.002 142.486 323.51 113.305 323.51C84.1244 323.51 60.4688 329.002 60.4688 335.778C60.4688 342.554 84.1244 348.046 113.305 348.046Z" fill="#EBEBEB"/>
<path d="M248.696 229.166C256.832 238.891 271.507 242.993 284.447 244.127C297.635 245.301 312.549 244.647 324.72 239.505C330.053 237.261 334.976 233.899 338.224 229.426C341.702 224.63 342.284 219.496 338.925 214.795C336.224 211.008 330.113 208.173 330.224 204.779C330.335 201.385 333.514 198.802 334.497 195.566C336.155 190.054 332.967 185.763 328.797 182.014C318.916 173.124 322.104 161.887 316.233 151.021C312.891 144.847 303.225 133.351 284.986 137.902C278.046 139.642 273.131 145.147 270.114 150.903C266.576 157.683 268.576 166.801 264.311 173.29C260.661 178.802 255.593 179.589 252.089 185.385C250.568 187.904 249.773 190.897 252.568 197.023C253.585 199.251 254.619 202.622 253.516 205.196C251.986 208.764 247.192 210.275 245.499 213.992C243.157 219.103 245.106 224.851 248.696 229.166Z" fill="#263238"/>
<path d="M334.146 230.741C340.377 230.008 343.326 222.362 339.539 218.299C337.146 215.716 333.446 214.448 331.044 211.881C327.095 207.661 330.89 204.07 333.249 200.07C338.377 191.479 332.027 185.4 325.292 179.801C320.164 175.549 319.309 170.824 319.155 164.785C319.155 164.69 319.326 164.682 319.335 164.785C319.668 169.242 320.189 173.62 323.497 177.195C326.181 180.1 329.822 182.14 332.42 185.148C336.77 190.195 337.129 195.542 333.736 201.062C332.77 202.637 330.958 204.424 330.523 206.172C329.505 210.299 332.881 212.543 336.087 214.677C338.539 216.315 341.266 218.134 342.112 220.937C343.394 225.165 339.044 230.733 334.223 231.055C333.975 231.095 333.899 230.741 334.146 230.741Z" fill="#263238"/>
<path d="M330.625 234.875C334.497 232.899 338.693 231.127 341.052 227.552C344.548 222.253 340.565 218.103 336.83 214.166C335.223 212.481 333.907 210.811 334.07 208.504C334.309 205.047 337.198 202.205 337.779 198.803C339.155 190.653 330.394 185.416 326.095 179.337C321.702 173.038 320.454 165.864 319.019 158.73C319.018 158.7 319.028 158.671 319.049 158.648C319.069 158.624 319.097 158.609 319.129 158.603C319.161 158.597 319.194 158.602 319.222 158.617C319.251 158.631 319.272 158.655 319.284 158.683C321.181 167.794 323.848 176.408 330.685 183.55C335.463 188.55 340.539 193.96 338.018 200.945C337.394 202.661 336.215 204.205 335.634 205.921C334.488 209.331 335.446 211.583 337.864 214.103C340.283 216.622 342.916 219.024 343.257 222.387C343.924 228.922 336.608 233.041 330.899 235.395C330.826 235.417 330.747 235.414 330.676 235.387C330.606 235.359 330.548 235.309 330.515 235.245C330.482 235.182 330.474 235.109 330.495 235.041C330.515 234.973 330.561 234.914 330.625 234.875Z" fill="#263238"/>
<path d="M243.892 211.905C247.072 208.015 252.012 206.149 250.866 200.479C250.072 196.542 247.807 193.392 248.773 189.306C249.567 185.912 252.046 183.313 254.952 181.124C258.644 178.345 262.695 176.116 265.422 172.462C268.396 168.462 269.798 163.73 271.242 159.163C271.242 159.076 271.439 159.115 271.422 159.163C269.875 165.383 268.003 171.762 262.687 176.321C259.909 178.683 256.55 180.486 253.798 182.896C248.849 187.235 248.79 192.093 250.772 197.66C251.678 200.212 252.482 202.779 251.14 205.346C249.798 207.913 247.055 209.464 245.106 211.59C236.833 220.646 249.012 232.512 259.242 234.371C259.704 234.449 259.636 235.095 259.157 235.016C251.508 233.843 243.508 227.418 241.944 220.559C241.579 219.072 241.564 217.53 241.9 216.037C242.236 214.545 242.915 213.136 243.892 211.905Z" fill="#263238"/>
<path d="M244.14 216.827C244.294 212.716 247.183 210.48 249.439 207.283C252.986 202.259 249.491 197.196 249.157 191.826C248.918 188.085 250.653 184.944 253.26 182.258C256.755 178.636 261.2 176.085 264.097 171.911C267.131 167.467 268.647 162.285 268.447 157.037C268.447 156.942 268.61 156.958 268.61 157.037C268.899 160.585 268.362 164.15 267.036 167.492C265.709 170.834 263.623 173.876 260.918 176.416C257.413 179.699 252.721 182.345 250.713 186.802C248.593 191.527 251.174 195.881 251.807 200.614C252.034 202.012 251.945 203.439 251.547 204.805C251.148 206.17 250.448 207.446 249.491 208.551C248.072 210.299 246.345 211.882 245.533 214C244.439 216.866 245.08 220.087 246.337 222.843C250.32 231.552 260.319 237.127 269.892 238.655C270.234 238.71 270.199 239.206 269.892 239.159C261.17 237.893 253.34 233.514 248.097 226.969C245.773 224.063 244.003 220.504 244.14 216.827Z" fill="#263238"/>
<path d="M287.515 200.267C282.823 199.228 273.148 210.504 264.627 227.639C250.952 255.081 243.747 288.894 243.747 288.894H288.293C288.293 288.894 299.652 202.937 287.515 200.267Z" fill="#EB9481"/>
<path d="M238.328 290.649H220.148V293.264H238.328V290.649Z" fill="#455A64"/>
<path d="M238.328 290.649H220.148V292.374H238.328V290.649Z" fill="#263238"/>
<path d="M259.892 283.625C258.787 285.137 257.23 286.322 255.41 287.037C253.591 287.752 251.585 287.967 249.636 287.656C249.006 287.543 248.389 287.38 247.79 287.168C246.889 286.839 246.03 286.422 245.226 285.924L247.542 282.774C247.97 283.05 248.425 283.29 248.901 283.491C253.234 285.294 255.969 282.152 256.507 281.436C259.003 278.207 259.926 270.845 257.362 268.01C257.191 267.797 256.465 267.467 253.533 268.01C252.995 268.12 252.379 268.246 251.687 268.419C251.15 268.589 250.594 268.7 250.029 268.75L249.952 266.86L249.755 264.97C249.943 264.97 250.234 264.86 250.61 264.758C251.964 264.396 253.348 264.132 254.747 263.97C256.901 263.766 259.157 263.97 260.541 265.545C264.678 270.223 263.012 279.562 259.892 283.625Z" fill="#455A64"/>
<path d="M247.559 282.767C247.987 283.043 248.442 283.283 248.918 283.483L247.781 287.168C246.88 286.839 246.021 286.422 245.217 285.924L247.559 282.767Z" fill="#263238"/>
<path d="M254.781 263.994L253.559 268.034C253.021 268.144 252.405 268.27 251.713 268.443C251.176 268.613 250.62 268.724 250.055 268.774L249.978 266.884L249.781 264.994C249.969 264.994 250.26 264.884 250.636 264.782C251.993 264.419 253.379 264.156 254.781 263.994Z" fill="#263238"/>
<path d="M205.047 259.089C205.047 259.089 207.226 276.153 211.03 283.342C214.833 290.531 220.055 291.319 223.32 291.319H235.2C238.465 291.319 243.747 290.531 247.49 283.342C251.234 276.153 253.43 259.089 253.43 259.089H205.047Z" fill="#455A64"/>
<path d="M208.612 270.231C208.382 270.231 208.157 270.168 207.966 270.05C207.775 269.933 207.626 269.765 207.538 269.57C207.45 269.374 207.427 269.159 207.472 268.951C207.516 268.743 207.627 268.552 207.79 268.403C207.952 268.253 208.159 268.151 208.385 268.109C208.61 268.068 208.844 268.089 209.056 268.17C209.269 268.251 209.45 268.389 209.578 268.565C209.706 268.741 209.774 268.948 209.774 269.16C209.774 269.444 209.651 269.716 209.434 269.917C209.216 270.118 208.92 270.231 208.612 270.231ZM208.612 268.286C208.424 268.286 208.241 268.337 208.085 268.433C207.929 268.529 207.807 268.666 207.735 268.825C207.663 268.985 207.645 269.161 207.681 269.33C207.718 269.5 207.808 269.656 207.941 269.778C208.073 269.9 208.242 269.983 208.427 270.017C208.611 270.051 208.801 270.033 208.975 269.967C209.148 269.901 209.296 269.789 209.4 269.645C209.505 269.502 209.56 269.333 209.56 269.16C209.56 268.928 209.46 268.706 209.282 268.542C209.105 268.378 208.863 268.286 208.612 268.286Z" fill="white"/>
<path d="M243.063 264.719C242.831 264.721 242.603 264.658 242.409 264.541C242.216 264.423 242.064 264.254 241.975 264.057C241.885 263.859 241.861 263.642 241.906 263.432C241.951 263.222 242.062 263.029 242.227 262.877C242.391 262.726 242.6 262.623 242.828 262.582C243.056 262.54 243.292 262.563 243.507 262.645C243.721 262.728 243.904 262.867 244.032 263.046C244.16 263.224 244.227 263.434 244.226 263.648C244.226 263.932 244.103 264.205 243.885 264.405C243.667 264.606 243.372 264.719 243.063 264.719ZM243.063 262.766C242.874 262.765 242.688 262.815 242.529 262.911C242.371 263.007 242.247 263.144 242.173 263.305C242.099 263.466 242.079 263.644 242.115 263.815C242.151 263.987 242.241 264.145 242.375 264.269C242.508 264.393 242.679 264.478 242.865 264.513C243.051 264.547 243.244 264.53 243.419 264.464C243.594 264.397 243.744 264.284 243.85 264.139C243.956 263.994 244.012 263.823 244.012 263.648C244.012 263.416 243.912 263.192 243.735 263.027C243.557 262.862 243.316 262.768 243.063 262.766Z" fill="white"/>
<path d="M241.345 280.444C241.114 280.445 240.886 280.383 240.693 280.266C240.499 280.148 240.348 279.98 240.258 279.783C240.168 279.586 240.143 279.369 240.187 279.159C240.232 278.95 240.343 278.757 240.506 278.605C240.669 278.453 240.878 278.35 241.105 278.307C241.333 278.265 241.569 278.286 241.783 278.367C241.997 278.449 242.181 278.587 242.31 278.765C242.439 278.942 242.508 279.151 242.508 279.365C242.509 279.506 242.48 279.646 242.422 279.777C242.364 279.908 242.278 280.027 242.17 280.127C242.062 280.228 241.934 280.307 241.792 280.361C241.651 280.416 241.499 280.444 241.345 280.444ZM241.345 278.491C241.155 278.489 240.969 278.54 240.81 278.636C240.652 278.732 240.528 278.87 240.454 279.032C240.381 279.193 240.361 279.371 240.398 279.543C240.434 279.715 240.526 279.873 240.66 279.996C240.794 280.12 240.966 280.204 241.152 280.238C241.339 280.272 241.532 280.254 241.707 280.186C241.882 280.118 242.032 280.004 242.136 279.858C242.241 279.712 242.296 279.54 242.294 279.365C242.294 279.133 242.194 278.911 242.016 278.747C241.838 278.583 241.597 278.491 241.345 278.491Z" fill="white"/>
<path d="M250.841 261.907C250.611 261.907 250.386 261.845 250.195 261.727C250.004 261.609 249.855 261.442 249.767 261.246C249.679 261.051 249.656 260.835 249.701 260.628C249.746 260.42 249.857 260.229 250.019 260.079C250.182 259.93 250.389 259.828 250.614 259.786C250.84 259.745 251.074 259.766 251.286 259.847C251.498 259.928 251.68 260.065 251.808 260.242C251.935 260.418 252.003 260.625 252.003 260.837C252.001 261.12 251.878 261.391 251.661 261.592C251.443 261.792 251.149 261.905 250.841 261.907ZM250.841 259.962C250.653 259.962 250.47 260.014 250.314 260.11C250.158 260.206 250.036 260.342 249.965 260.502C249.893 260.662 249.874 260.838 249.911 261.007C249.947 261.177 250.038 261.332 250.17 261.455C250.303 261.577 250.472 261.66 250.656 261.694C250.84 261.728 251.031 261.71 251.204 261.644C251.377 261.578 251.526 261.466 251.63 261.322C251.734 261.178 251.79 261.009 251.79 260.837C251.79 260.605 251.69 260.382 251.512 260.218C251.334 260.055 251.093 259.962 250.841 259.962Z" fill="white"/>
<path d="M234.627 268.585C234.398 268.58 234.176 268.514 233.988 268.393C233.801 268.273 233.656 268.104 233.572 267.908C233.487 267.712 233.468 267.497 233.516 267.291C233.563 267.085 233.676 266.896 233.84 266.749C234.003 266.601 234.21 266.502 234.435 266.462C234.66 266.423 234.892 266.445 235.103 266.527C235.314 266.609 235.494 266.746 235.621 266.922C235.747 267.097 235.815 267.303 235.815 267.514C235.815 267.657 235.784 267.798 235.724 267.929C235.664 268.061 235.576 268.18 235.466 268.28C235.355 268.379 235.224 268.458 235.08 268.51C234.936 268.563 234.782 268.588 234.627 268.585ZM234.627 266.64C234.439 266.64 234.256 266.691 234.1 266.787C233.944 266.883 233.822 267.02 233.75 267.18C233.679 267.339 233.66 267.515 233.696 267.685C233.733 267.854 233.823 268.01 233.956 268.132C234.089 268.254 234.258 268.338 234.442 268.371C234.626 268.405 234.817 268.388 234.99 268.322C235.163 268.255 235.312 268.143 235.416 268C235.52 267.856 235.576 267.687 235.576 267.514C235.573 267.283 235.473 267.062 235.295 266.898C235.118 266.735 234.878 266.642 234.627 266.64Z" fill="white"/>
<path d="M221.97 279.995C221.738 279.997 221.511 279.935 221.317 279.817C221.123 279.699 220.971 279.531 220.882 279.333C220.792 279.136 220.768 278.918 220.813 278.708C220.858 278.498 220.97 278.305 221.134 278.154C221.298 278.003 221.508 277.9 221.736 277.858C221.964 277.817 222.2 277.839 222.414 277.922C222.628 278.004 222.811 278.144 222.939 278.322C223.067 278.501 223.135 278.711 223.133 278.925C223.133 279.065 223.103 279.204 223.044 279.334C222.986 279.464 222.9 279.582 222.792 279.682C222.684 279.781 222.556 279.86 222.415 279.914C222.274 279.968 222.123 279.995 221.97 279.995ZM221.97 278.043C221.781 278.041 221.595 278.091 221.436 278.187C221.278 278.283 221.154 278.421 221.08 278.582C221.006 278.743 220.986 278.92 221.022 279.092C221.058 279.263 221.148 279.421 221.282 279.545C221.416 279.669 221.586 279.754 221.772 279.789C221.958 279.824 222.151 279.807 222.326 279.74C222.502 279.674 222.652 279.561 222.757 279.415C222.863 279.27 222.919 279.099 222.919 278.925C222.92 278.809 222.897 278.695 222.849 278.588C222.802 278.481 222.733 278.383 222.644 278.301C222.556 278.219 222.451 278.154 222.335 278.11C222.22 278.065 222.096 278.043 221.97 278.043Z" fill="white"/>
<path d="M229.704 261.907C229.474 261.907 229.25 261.845 229.059 261.727C228.867 261.609 228.718 261.442 228.63 261.246C228.542 261.051 228.519 260.835 228.564 260.628C228.609 260.42 228.72 260.229 228.882 260.079C229.045 259.93 229.252 259.828 229.478 259.786C229.703 259.745 229.937 259.766 230.149 259.847C230.362 259.928 230.543 260.065 230.671 260.242C230.799 260.418 230.867 260.625 230.867 260.837C230.867 261.121 230.744 261.393 230.526 261.594C230.308 261.795 230.013 261.907 229.704 261.907ZM229.704 259.962C229.517 259.962 229.333 260.014 229.177 260.11C229.021 260.206 228.9 260.342 228.828 260.502C228.756 260.662 228.737 260.838 228.774 261.007C228.81 261.177 228.901 261.332 229.034 261.455C229.166 261.577 229.335 261.66 229.519 261.694C229.703 261.728 229.894 261.71 230.067 261.644C230.241 261.578 230.389 261.466 230.493 261.322C230.597 261.178 230.653 261.009 230.653 260.837C230.653 260.605 230.553 260.382 230.375 260.218C230.197 260.055 229.956 259.962 229.704 259.962Z" fill="white"/>
<path d="M231.149 275.696C230.919 275.696 230.694 275.633 230.503 275.515C230.312 275.397 230.163 275.23 230.075 275.034C229.987 274.839 229.964 274.623 230.009 274.416C230.054 274.208 230.164 274.017 230.327 273.867C230.489 273.718 230.696 273.616 230.922 273.574C231.147 273.533 231.381 273.554 231.594 273.635C231.806 273.716 231.987 273.854 232.115 274.03C232.243 274.206 232.311 274.413 232.311 274.625C232.311 274.909 232.189 275.181 231.971 275.382C231.753 275.583 231.457 275.696 231.149 275.696ZM231.149 273.751C230.961 273.751 230.778 273.802 230.622 273.898C230.466 273.994 230.344 274.13 230.272 274.29C230.2 274.45 230.182 274.626 230.218 274.795C230.255 274.965 230.345 275.12 230.478 275.243C230.611 275.365 230.78 275.448 230.964 275.482C231.148 275.516 231.338 275.498 231.512 275.432C231.685 275.366 231.833 275.254 231.937 275.11C232.042 274.966 232.097 274.798 232.097 274.625C232.097 274.393 231.997 274.17 231.82 274.007C231.642 273.843 231.4 273.751 231.149 273.751Z" fill="white"/>
<path d="M242.653 288.531C242.423 288.527 242.2 288.46 242.011 288.339C241.823 288.219 241.676 288.049 241.591 287.853C241.506 287.656 241.486 287.441 241.532 287.234C241.579 287.026 241.691 286.836 241.854 286.687C242.017 286.538 242.224 286.436 242.449 286.395C242.674 286.353 242.908 286.374 243.121 286.454C243.333 286.534 243.516 286.67 243.646 286.844C243.775 287.019 243.846 287.225 243.849 287.437C243.853 287.582 243.824 287.727 243.765 287.861C243.706 287.996 243.618 288.118 243.506 288.221C243.394 288.323 243.261 288.404 243.114 288.457C242.968 288.51 242.811 288.536 242.653 288.531ZM242.653 286.578C242.463 286.577 242.277 286.627 242.119 286.723C241.96 286.819 241.836 286.956 241.763 287.117C241.689 287.278 241.669 287.456 241.705 287.628C241.74 287.799 241.831 287.957 241.964 288.081C242.098 288.205 242.269 288.29 242.454 288.325C242.64 288.359 242.833 288.342 243.009 288.276C243.184 288.209 243.334 288.096 243.44 287.951C243.545 287.806 243.602 287.635 243.602 287.46C243.602 287.228 243.502 287.005 243.324 286.84C243.147 286.674 242.905 286.581 242.653 286.578Z" fill="white"/>
<path d="M214.38 263.514C214.151 263.512 213.927 263.448 213.737 263.33C213.547 263.211 213.399 263.043 213.313 262.847C213.226 262.652 213.204 262.436 213.25 262.229C213.296 262.022 213.407 261.832 213.57 261.683C213.733 261.534 213.94 261.433 214.165 261.392C214.391 261.351 214.624 261.373 214.836 261.454C215.048 261.536 215.229 261.673 215.356 261.849C215.483 262.025 215.551 262.231 215.551 262.443C215.551 262.584 215.521 262.724 215.462 262.855C215.403 262.985 215.317 263.103 215.208 263.203C215.099 263.303 214.97 263.381 214.828 263.435C214.686 263.488 214.534 263.515 214.38 263.514ZM214.38 261.569C214.193 261.57 214.011 261.623 213.856 261.72C213.701 261.817 213.581 261.954 213.51 262.114C213.44 262.274 213.422 262.449 213.46 262.618C213.497 262.787 213.588 262.942 213.721 263.064C213.854 263.185 214.023 263.268 214.207 263.301C214.391 263.334 214.581 263.316 214.754 263.25C214.927 263.183 215.074 263.071 215.178 262.928C215.282 262.784 215.338 262.615 215.338 262.443C215.338 262.328 215.313 262.213 215.265 262.107C215.216 262 215.146 261.903 215.057 261.822C214.968 261.741 214.862 261.677 214.746 261.633C214.63 261.59 214.506 261.568 214.38 261.569Z" fill="white"/>
<path d="M246.858 272.775C246.626 272.775 246.4 272.711 246.207 272.592C246.014 272.473 245.864 272.305 245.776 272.107C245.687 271.909 245.665 271.692 245.711 271.483C245.757 271.273 245.869 271.081 246.034 270.93C246.198 270.78 246.408 270.678 246.635 270.637C246.863 270.596 247.099 270.619 247.312 270.702C247.526 270.784 247.709 270.924 247.836 271.102C247.964 271.281 248.031 271.49 248.029 271.704C248.029 271.845 247.999 271.985 247.94 272.115C247.881 272.246 247.795 272.364 247.686 272.464C247.577 272.563 247.448 272.642 247.306 272.696C247.164 272.749 247.012 272.776 246.858 272.775ZM246.858 270.822C246.667 270.816 246.478 270.862 246.316 270.956C246.154 271.05 246.026 271.186 245.948 271.348C245.871 271.509 245.848 271.688 245.883 271.862C245.917 272.035 246.007 272.195 246.141 272.321C246.275 272.447 246.447 272.533 246.635 272.568C246.823 272.603 247.018 272.585 247.194 272.517C247.371 272.449 247.521 272.333 247.626 272.185C247.731 272.038 247.785 271.864 247.781 271.688C247.777 271.462 247.679 271.247 247.507 271.085C247.336 270.924 247.103 270.83 246.858 270.822Z" fill="white"/>
<path d="M222.995 269.562C222.765 269.562 222.541 269.499 222.35 269.381C222.158 269.264 222.009 269.096 221.921 268.901C221.834 268.705 221.81 268.49 221.855 268.282C221.9 268.074 222.011 267.883 222.173 267.734C222.336 267.584 222.543 267.482 222.769 267.44C222.994 267.399 223.228 267.42 223.44 267.501C223.653 267.582 223.834 267.72 223.962 267.896C224.09 268.072 224.158 268.279 224.158 268.491C224.158 268.631 224.128 268.771 224.069 268.901C224.011 269.031 223.925 269.149 223.817 269.248C223.709 269.348 223.581 269.426 223.44 269.48C223.299 269.534 223.148 269.562 222.995 269.562ZM222.995 267.617C222.808 267.617 222.624 267.668 222.468 267.764C222.312 267.86 222.191 267.997 222.119 268.156C222.047 268.316 222.028 268.492 222.065 268.661C222.101 268.831 222.192 268.987 222.325 269.109C222.457 269.231 222.626 269.314 222.81 269.348C222.994 269.382 223.185 269.365 223.358 269.298C223.532 269.232 223.68 269.12 223.784 268.976C223.888 268.833 223.944 268.664 223.944 268.491C223.944 268.376 223.92 268.262 223.872 268.156C223.824 268.05 223.754 267.954 223.666 267.873C223.578 267.792 223.474 267.727 223.358 267.683C223.243 267.639 223.12 267.617 222.995 267.617Z" fill="white"/>
<path d="M231.149 286.916C230.916 286.918 230.688 286.855 230.493 286.737C230.299 286.618 230.148 286.449 230.059 286.25C229.97 286.052 229.947 285.834 229.993 285.623C230.039 285.413 230.153 285.22 230.319 285.069C230.485 284.918 230.696 284.817 230.925 284.777C231.154 284.738 231.391 284.762 231.605 284.847C231.818 284.932 232 285.074 232.126 285.255C232.252 285.435 232.316 285.647 232.311 285.861C232.307 286.142 232.182 286.411 231.965 286.608C231.747 286.806 231.454 286.916 231.149 286.916ZM231.149 284.963C230.959 284.962 230.773 285.013 230.614 285.109C230.455 285.205 230.331 285.343 230.258 285.504C230.184 285.666 230.164 285.844 230.201 286.016C230.238 286.187 230.329 286.345 230.464 286.469C230.598 286.593 230.769 286.677 230.956 286.711C231.142 286.745 231.335 286.726 231.511 286.659C231.686 286.591 231.835 286.477 231.94 286.33C232.044 286.184 232.099 286.013 232.098 285.838C232.098 285.606 231.998 285.383 231.82 285.22C231.642 285.056 231.401 284.963 231.149 284.963Z" fill="white"/>
<path d="M221.355 290.79C221.123 290.792 220.896 290.73 220.702 290.612C220.509 290.495 220.357 290.327 220.267 290.13C220.177 289.933 220.153 289.716 220.197 289.506C220.241 289.296 220.352 289.103 220.516 288.952C220.679 288.8 220.888 288.696 221.115 288.654C221.342 288.612 221.578 288.633 221.793 288.714C222.007 288.796 222.191 288.934 222.32 289.111C222.449 289.289 222.518 289.498 222.518 289.712C222.518 289.996 222.395 290.27 222.178 290.472C221.96 290.674 221.664 290.788 221.355 290.79ZM221.355 288.838C221.165 288.836 220.979 288.887 220.82 288.983C220.662 289.079 220.537 289.217 220.464 289.378C220.39 289.54 220.371 289.718 220.407 289.89C220.444 290.061 220.535 290.219 220.67 290.343C220.804 290.467 220.976 290.551 221.162 290.585C221.349 290.619 221.542 290.6 221.717 290.533C221.892 290.465 222.042 290.351 222.146 290.204C222.251 290.058 222.306 289.887 222.304 289.712C222.302 289.48 222.201 289.259 222.024 289.096C221.846 288.932 221.606 288.84 221.355 288.838Z" fill="white"/>
<path d="M214.38 274.719C214.151 274.717 213.927 274.653 213.737 274.535C213.547 274.416 213.399 274.248 213.313 274.052C213.226 273.857 213.204 273.642 213.25 273.434C213.296 273.227 213.407 273.037 213.57 272.888C213.733 272.739 213.94 272.638 214.165 272.597C214.391 272.556 214.624 272.578 214.836 272.659C215.048 272.741 215.229 272.878 215.356 273.054C215.483 273.23 215.551 273.437 215.551 273.648C215.551 273.789 215.521 273.929 215.462 274.06C215.403 274.19 215.317 274.309 215.208 274.408C215.099 274.508 214.97 274.586 214.828 274.64C214.686 274.693 214.534 274.72 214.38 274.719ZM214.38 272.774C214.193 272.776 214.011 272.828 213.856 272.925C213.701 273.022 213.581 273.159 213.51 273.319C213.44 273.479 213.422 273.654 213.46 273.823C213.497 273.992 213.588 274.147 213.721 274.269C213.854 274.39 214.023 274.473 214.207 274.506C214.391 274.539 214.581 274.521 214.754 274.455C214.927 274.388 215.074 274.276 215.178 274.133C215.282 273.989 215.338 273.821 215.338 273.648C215.338 273.533 215.313 273.418 215.265 273.312C215.216 273.205 215.146 273.108 215.057 273.027C214.968 272.946 214.862 272.882 214.746 272.838C214.63 272.795 214.506 272.773 214.38 272.774Z" fill="white"/>
<path d="M213.328 284.397C213.098 284.397 212.874 284.334 212.683 284.216C212.491 284.099 212.342 283.931 212.254 283.736C212.167 283.54 212.144 283.325 212.188 283.117C212.233 282.909 212.344 282.718 212.506 282.569C212.669 282.419 212.876 282.317 213.102 282.275C213.327 282.234 213.561 282.255 213.773 282.336C213.986 282.417 214.167 282.555 214.295 282.731C214.423 282.907 214.491 283.114 214.491 283.326C214.491 283.61 214.368 283.882 214.15 284.083C213.932 284.284 213.637 284.397 213.328 284.397ZM213.328 282.452C213.141 282.452 212.957 282.503 212.801 282.599C212.645 282.695 212.524 282.832 212.452 282.991C212.38 283.151 212.361 283.327 212.398 283.496C212.435 283.666 212.525 283.822 212.658 283.944C212.79 284.066 212.959 284.149 213.143 284.183C213.327 284.217 213.518 284.199 213.691 284.133C213.865 284.067 214.013 283.955 214.117 283.811C214.221 283.668 214.277 283.499 214.277 283.326C214.277 283.094 214.177 282.872 213.999 282.708C213.821 282.544 213.58 282.452 213.328 282.452Z" fill="white"/>
<path d="M270.243 263.269L269.49 288.893H360.147C360.147 288.893 343.121 221.961 317.626 202.275C303.678 191.518 292.84 196.125 285.473 203.243C283.678 205.039 264.02 234.276 263.166 244.804C262.465 254.096 270.243 263.269 270.243 263.269Z" fill="#EB9481"/>
<path d="M270.242 263.27L269.49 288.893H360.138C360.138 288.893 351.591 255.364 337.583 228.796C335.702 232.071 330.908 238.78 323.181 238.828C312.925 238.899 305.498 223.536 305.498 223.536C305.498 223.536 292.062 231.221 283.558 230.001C275.054 228.78 275.464 218.252 275.464 218.252C269.755 227.654 263.67 239.025 263.208 244.789C262.465 254.096 270.242 263.27 270.242 263.27Z" fill="#2FB087"/>
<path d="M305.455 226.504C305.09 223.92 304.975 221.311 305.113 218.708C305.213 216.094 305.53 213.49 306.062 210.921C306.554 208.293 307.531 205.763 308.951 203.44C309.699 202.206 310.881 201.242 312.301 200.708C313.029 200.482 313.81 200.447 314.558 200.605C314.908 200.716 315.259 200.826 315.583 200.952L316.498 201.464L315.498 201.172C315.156 201.117 314.823 201.078 314.489 201.038C313.843 201.011 313.2 201.142 312.626 201.416C311.513 202.032 310.635 202.951 310.113 204.046C309.524 205.169 309.049 206.339 308.695 207.543C308.31 208.747 307.994 209.984 307.737 211.228C307.481 212.472 307.233 213.732 307.028 215C306.823 216.267 306.635 217.535 306.438 218.811C306.096 221.362 305.746 223.921 305.455 226.504Z" fill="#2FB087"/>
<path d="M274.422 219.977C275.358 217.569 276.474 215.225 277.764 212.961C279.043 210.679 280.47 208.47 282.037 206.346C282.832 205.291 283.652 204.252 284.533 203.244C285.424 202.241 286.38 201.289 287.396 200.393C288.415 199.468 289.565 198.673 290.815 198.031C291.429 197.68 292.12 197.458 292.838 197.382C293.556 197.306 294.284 197.377 294.968 197.59C294.302 197.538 293.632 197.609 292.995 197.796C292.359 197.984 291.769 198.286 291.259 198.684C290.192 199.435 289.215 200.287 288.345 201.228C286.577 203.128 284.939 205.126 283.439 207.212C281.883 209.283 280.422 211.417 278.935 213.512C277.447 215.606 275.986 217.859 274.422 219.977Z" fill="#2FB087"/>
<path d="M360.137 288.893H323.719L323.181 238.828C330.873 238.781 335.702 232.072 337.582 228.796C351.607 255.364 360.137 288.893 360.137 288.893Z" fill="#263238"/>
<path d="M305.985 199.015C305.532 200.456 297.438 209.551 290.224 208.881C287.874 208.661 288.609 196.794 288.609 196.794L288.447 195.912L286.182 183.494L302.361 175.014L304.694 173.896C304.694 173.896 305.07 177.337 305.497 181.62C305.497 181.817 305.54 182.014 305.557 182.227C305.574 182.439 305.617 182.699 305.634 182.92C305.711 183.565 305.78 184.219 305.839 184.865C305.882 185.361 305.925 185.841 305.95 186.369C305.976 186.896 306.019 187.4 306.062 187.943C306.311 191.631 306.286 195.33 305.985 199.015Z" fill="#EB9481"/>
<path d="M305.497 181.612C303.951 184.993 301.625 188.022 298.681 190.492C295.736 192.961 292.244 194.81 288.447 195.912L286.182 183.494L302.361 175.014L304.694 173.896C304.694 173.896 305.044 177.329 305.497 181.612Z" fill="#263238"/>
<path d="M268.832 164.399C266.721 186.447 280.798 190.069 285.926 190.487C290.601 190.857 306.584 191.589 311.156 169.887C315.729 148.186 305.276 140.327 294.627 138.941C283.977 137.555 270.943 142.382 268.832 164.399Z" fill="#EB9481"/>
<path d="M272.789 160.367C273.337 160.321 273.882 160.248 274.421 160.147C275.011 160.146 275.585 159.966 276.053 159.635C276.179 159.504 276.253 159.339 276.266 159.165C276.278 158.992 276.227 158.819 276.122 158.674C275.867 158.418 275.542 158.23 275.181 158.129C274.821 158.028 274.437 158.018 274.071 158.099C273.301 158.152 272.58 158.469 272.054 158.989C271.942 159.114 271.871 159.266 271.851 159.427C271.83 159.588 271.861 159.751 271.938 159.897C272.016 160.042 272.138 160.164 272.288 160.247C272.439 160.331 272.613 160.372 272.789 160.367Z" fill="#263238"/>
<path d="M289.318 161.832C288.763 161.738 288.267 161.564 287.729 161.423C287.142 161.35 286.598 161.101 286.182 160.714C286.079 160.569 286.031 160.398 286.045 160.225C286.059 160.053 286.134 159.89 286.259 159.761C286.545 159.535 286.893 159.385 287.265 159.327C287.636 159.269 288.018 159.304 288.37 159.43C289.125 159.575 289.793 159.978 290.241 160.556C290.338 160.693 290.389 160.853 290.388 161.016C290.386 161.179 290.334 161.338 290.235 161.474C290.137 161.61 289.998 161.716 289.835 161.78C289.672 161.843 289.492 161.861 289.318 161.832Z" fill="#263238"/>
<path d="M285.737 167.21C285.737 167.147 285.857 167.289 285.848 167.352C285.652 168.848 285.703 170.588 287.131 171.202C287.131 171.202 287.131 171.297 287.131 171.289C285.327 170.895 285.293 168.596 285.737 167.21Z" fill="#263238"/>
<path d="M287.344 165.762C289.976 165.762 289.711 170.644 287.275 170.612C284.84 170.581 285.13 165.73 287.344 165.762Z" fill="#263238"/>
<path d="M288.362 166.061C288.806 166.36 289.216 166.848 289.78 166.943C290.345 167.037 290.934 166.541 291.379 166.076C291.43 166.021 291.473 166.076 291.464 166.132C291.464 167.061 290.994 167.998 289.9 168.092C288.806 168.187 288.242 167.305 288.045 166.368C288.003 166.171 288.182 165.943 288.362 166.061Z" fill="#263238"/>
<path d="M275.549 166.053C275.549 165.998 275.421 166.124 275.421 166.179C275.421 167.691 275.113 169.407 273.609 169.856C273.566 169.856 273.566 169.943 273.609 169.935C275.43 169.769 275.797 167.486 275.549 166.053Z" fill="#263238"/>
<path d="M274.165 164.431C271.55 164.139 271.122 168.99 273.55 169.25C275.977 169.51 276.362 164.667 274.165 164.431Z" fill="#263238"/>
<path d="M273.045 164.667C272.601 164.888 272.19 165.329 271.652 165.321C271.113 165.313 270.695 164.754 270.37 164.226C270.37 164.171 270.293 164.226 270.284 164.273C270.173 165.195 270.421 166.187 271.378 166.431C272.336 166.675 272.96 165.919 273.276 165.014C273.336 164.848 273.216 164.596 273.045 164.667Z" fill="#263238"/>
<path d="M284.31 178.7C283.917 179.054 283.524 179.534 282.934 179.582C282.327 179.567 281.73 179.435 281.182 179.196C281.17 179.191 281.157 179.189 281.144 179.191C281.131 179.194 281.12 179.2 281.111 179.208C281.102 179.217 281.097 179.229 281.096 179.241C281.095 179.252 281.098 179.264 281.105 179.275C281.339 179.57 281.656 179.803 282.021 179.948C282.386 180.094 282.787 180.147 283.182 180.101C283.514 180.02 283.814 179.851 284.043 179.614C284.273 179.378 284.422 179.084 284.472 178.771C284.532 178.684 284.37 178.652 284.31 178.7Z" fill="#263238"/>
<path d="M277.857 172.888C277.857 172.888 277.327 175.455 277.259 176.518C277.259 176.613 281.233 177.022 283.43 174.802C283.524 174.707 283.379 174.581 283.267 174.644C281.765 175.517 279.995 175.917 278.225 175.786C278.156 175.487 279.165 171.896 278.986 171.849C278.09 171.869 277.202 172.002 276.345 172.242C277.199 167.581 278.909 163.084 279.669 158.431C279.681 158.394 279.676 158.355 279.656 158.322C279.636 158.289 279.602 158.264 279.562 158.254C279.523 158.243 279.48 158.248 279.444 158.266C279.408 158.285 279.381 158.315 279.37 158.352C277.259 162.943 276.131 168.289 275.097 173.085C274.969 173.699 277.387 173.038 277.857 172.888Z" fill="#263238"/>
<path d="M308.865 171.588C303.045 170.99 302.711 154.343 302.694 152.304C302.626 153.587 302.275 160.407 301.686 160.643C301.062 160.586 300.452 160.435 299.882 160.194C299.951 159.379 299.951 158.56 299.882 157.745C299.882 157.359 299.66 158.533 299.318 160.005L298.258 159.651C298.468 157.918 298.424 156.168 298.13 154.446C298.011 153.792 297.583 156.666 296.711 159.17C292.763 157.887 287.062 156.17 281.635 155.619C280.182 155.469 278.926 155.399 277.814 155.367C277.968 153.359 278.396 151.241 278.199 151.69C277.662 152.873 277.253 154.102 276.977 155.359C276.379 155.359 275.814 155.359 275.31 155.359C275.396 152.509 277.233 148.083 276.678 148.745C275.043 150.779 273.84 153.079 273.131 155.524C271.003 155.745 270.387 156.084 270.37 155.58C270.37 154.666 272.199 146.808 279.396 141.461C287.207 135.642 301.891 135.067 309.309 145.398C309.309 145.398 315.728 149.926 316.258 156.548C316.788 163.171 312.232 171.935 308.865 171.588Z" fill="#263238"/>
<path d="M307.224 171.274C307.224 171.274 312.472 164.384 315.865 166.108C319.258 167.833 315.301 177.825 311.31 179.187C310.814 179.393 310.278 179.504 309.734 179.514C309.191 179.525 308.651 179.435 308.146 179.249C307.641 179.063 307.182 178.785 306.796 178.432C306.41 178.08 306.105 177.659 305.899 177.195L307.224 171.274Z" fill="#EB9481"/>
<path d="M314.651 168.942C314.663 168.946 314.672 168.954 314.679 168.963C314.685 168.972 314.689 168.983 314.689 168.994C314.689 169.005 314.685 169.015 314.679 169.024C314.672 169.034 314.663 169.041 314.651 169.045C311.848 170.084 310.378 172.47 309.335 174.951C310.19 173.998 311.301 173.478 312.686 174.391C312.763 174.439 312.686 174.541 312.609 174.525C312.119 174.378 311.592 174.374 311.1 174.515C310.609 174.656 310.177 174.935 309.865 175.313C309.347 175.946 308.905 176.63 308.549 177.352C308.412 177.581 307.959 177.462 308.062 177.195C308.067 177.174 308.067 177.152 308.062 177.132C308.045 173.864 310.822 169.273 314.651 168.942Z" fill="#263238"/>
<path d="M330.625 212.693C360.419 241.615 384.897 301.752 370.564 307.398C357.462 312.555 315.959 307.791 298.891 304.043C293.874 302.941 303.967 267.152 309.335 268.325C315.813 269.743 332.411 271.939 333.052 271.9C334.479 271.806 318.523 229.756 313.668 214.417C306.899 192.991 319.437 201.826 330.625 212.693Z" fill="#EB9481"/>
<path d="M257.687 260.104C255.37 263.412 258.199 266.546 258.199 266.546C256.274 267.382 254.729 268.815 253.832 270.593C252.413 273.798 257.251 277.247 257.251 277.247C255.453 278.5 254.106 280.223 253.388 282.192C252.362 285.381 256.695 289.507 256.695 289.507C255.74 291.493 255.588 293.728 256.268 295.807C258.353 301.319 267.772 303.28 273.746 304.595C279.72 305.91 297.993 304.469 301.506 304.516L310.959 269.325C310.959 269.325 285.985 256.427 278.729 255.805C272.609 255.246 260.276 256.388 257.687 260.104Z" fill="#EB9481"/>
<path d="M258.619 266.042C265.268 265.16 271.832 266.136 278.448 266.774C278.477 266.774 278.505 266.785 278.526 266.804C278.547 266.823 278.559 266.849 278.559 266.876C278.559 266.903 278.547 266.929 278.526 266.949C278.505 266.968 278.477 266.979 278.448 266.979C271.875 266.278 265.234 266.79 258.645 266.333C258.608 266.328 258.574 266.312 258.548 266.288C258.523 266.263 258.507 266.231 258.504 266.197C258.501 266.163 258.511 266.129 258.532 266.101C258.553 266.072 258.583 266.051 258.619 266.042Z" fill="#263238"/>
<path d="M257.49 276.814C259.022 276.747 260.557 276.866 262.054 277.168C263.653 277.397 265.251 277.656 266.849 277.956C270.046 278.507 273.222 279.134 276.379 279.838C276.516 279.838 276.499 280.074 276.379 280.05C273.191 279.499 270.003 278.995 266.798 278.578C265.191 278.363 263.584 278.16 261.977 277.971C260.449 277.885 258.935 277.642 257.465 277.247C257.402 277.244 257.344 277.218 257.302 277.175C257.261 277.132 257.239 277.076 257.243 277.019C257.246 276.961 257.274 276.907 257.32 276.869C257.367 276.831 257.428 276.811 257.49 276.814Z" fill="#263238"/>
<path d="M256.824 289.531C258.132 289.342 259.636 289.807 260.909 290.051C262.362 290.335 263.807 290.602 265.26 290.839C268.166 291.374 271.072 291.902 273.995 292.343C274.14 292.343 274.114 292.571 273.995 292.547C271.02 292.122 268.012 291.76 265.072 291.272L260.704 290.579C259.357 290.475 258.041 290.152 256.815 289.626C256.804 289.612 256.798 289.595 256.8 289.577C256.802 289.56 256.81 289.543 256.824 289.531Z" fill="#263238"/>
<path d="M266.002 256.6C262.968 256.899 259.49 257.443 257.456 259.75C256.523 260.736 256.045 262.019 256.122 263.325C256.266 264.546 256.908 265.672 257.917 266.474C256.7 266.811 255.609 267.456 254.77 268.336C253.932 269.216 253.378 270.295 253.174 271.451C253.114 272.03 253.183 272.615 253.377 273.169C253.571 273.722 253.886 274.234 254.302 274.672C254.704 275.136 255.157 275.546 255.618 275.971C256.08 276.396 256.567 276.758 257.028 277.128C256.512 277.49 256.023 277.885 255.567 278.31C255.056 278.745 254.593 279.225 254.182 279.743C253.349 280.775 252.865 282.01 252.789 283.294C252.826 284.571 253.278 285.808 254.088 286.845C254.741 287.911 255.672 288.809 256.798 289.46C256.866 289.46 256.934 289.412 256.883 289.365C255.997 288.59 255.253 287.689 254.678 286.696C253.985 285.639 253.622 284.426 253.627 283.192C253.758 282.021 254.215 280.901 254.951 279.94C255.315 279.421 255.708 278.922 256.131 278.443C256.481 278.05 257.396 277.247 257.31 277.191C257.225 277.136 256.345 276.207 256.011 275.79C255.678 275.372 255.336 274.916 255.028 274.459C254.38 273.584 254.108 272.517 254.268 271.467C254.486 270.49 254.989 269.587 255.721 268.852C256.447 268.065 257.362 267.506 258.122 266.774C258.173 266.693 258.188 266.597 258.165 266.506C256.55 264.073 256.815 261.781 258.644 260.073C259.571 259.228 260.649 258.538 261.832 258.033C263.185 257.495 264.582 257.058 266.011 256.726C266.114 256.726 266.096 256.592 266.002 256.6Z" fill="#263238"/>
<path d="M324.565 245.497C324.121 243.883 323.625 242.285 323.113 240.678C322.087 237.458 321.027 234.229 319.694 231.095C318.95 229.323 318.13 227.583 317.335 225.827C317.335 225.827 317.284 225.827 317.292 225.827C318.019 228.048 318.685 230.284 319.412 232.505C318.668 231.213 317.831 229.977 317.121 228.678C317.121 228.607 316.976 228.678 317.01 228.741C317.745 230.087 318.343 231.489 319.036 232.851C319.429 233.639 319.89 234.379 320.309 235.119C320.309 235.213 320.369 235.308 320.403 235.395C321.566 238.584 322.694 241.788 323.873 244.97C324.531 246.757 325.249 248.545 325.788 250.364C325.795 250.377 325.808 250.388 325.823 250.393C325.838 250.399 325.855 250.399 325.87 250.395C325.886 250.39 325.899 250.38 325.907 250.367C325.916 250.354 325.919 250.339 325.916 250.324C325.403 248.749 325.01 247.112 324.565 245.497Z" fill="#263238"/>
<path d="M358.24 282.349C356.358 280.921 354.338 279.653 352.206 278.562C350.143 277.398 347.985 276.382 345.753 275.522C338.624 272.893 331.119 271.227 323.472 270.577C323.454 270.577 323.436 270.584 323.423 270.596C323.411 270.607 323.403 270.623 323.403 270.64C323.403 270.657 323.411 270.673 323.423 270.685C323.436 270.696 323.454 270.703 323.472 270.703C324.771 270.924 338.651 273.987 344.48 276.073C346.702 276.861 348.839 277.861 350.967 278.861C352.186 279.428 353.388 280.019 354.574 280.633C355.762 281.255 356.898 281.948 358.095 282.538C358.122 282.549 358.152 282.551 358.181 282.544C358.209 282.537 358.234 282.521 358.251 282.499C358.269 282.476 358.277 282.449 358.275 282.422C358.273 282.395 358.26 282.369 358.24 282.349Z" fill="#263238"/>
<path d="M70.3238 211.308C76.4348 221.434 118.314 260.129 142.057 261.09C169.211 262.2 220.03 247.372 224.158 244.128C235.457 235.23 222.124 208.867 213.389 209.363C202.5 209.977 150.886 225.497 142.63 224.678C129.741 223.395 100.981 205.78 80.3919 196.764C68.4178 191.512 65.623 203.512 70.3238 211.308Z" fill="#DD6A57"/>
<path d="M219.714 246.049C222.141 245.065 241.312 238.891 249.491 231.3C253.824 227.285 264.388 214.993 262.063 212.26C259.935 209.764 256.149 212.481 256.149 212.481C256.149 212.481 260.764 206.969 257.773 203.496C254.781 200.023 248.636 204.937 248.636 204.937C248.636 204.937 252.91 198.929 249.679 195.7C246.448 192.472 241.132 198.323 241.132 198.323C241.132 198.323 245.337 192.999 241.44 191.377C236.756 189.425 230.201 200.039 224.628 203.646C223.363 204.433 197.697 218.536 197.697 218.536L219.714 246.049Z" fill="#DD6A57"/>
<path d="M240.876 198.275C236.039 206.079 232.457 208.725 223.987 212.882C223.817 212.961 223.911 213.205 224.09 213.134C232.799 209.764 237.808 207.047 241.295 198.472C241.466 198.055 241.107 197.905 240.876 198.275Z" fill="#263238"/>
<path d="M248.371 204.859C242.585 212.56 238.722 215.457 230.192 220.41C230.072 220.481 230.192 220.678 230.32 220.615C239.123 216.402 244.055 213.583 248.747 205.189C248.961 204.811 248.636 204.504 248.371 204.859Z" fill="#263238"/>
<path d="M255.73 212.709C249.533 219.796 245.474 223.134 236.508 226.961C236.463 226.977 236.426 227.009 236.406 227.049C236.386 227.09 236.384 227.136 236.401 227.178C236.418 227.22 236.453 227.253 236.497 227.272C236.541 227.29 236.591 227.292 236.636 227.276C246.183 224.189 251.303 220.048 255.944 212.906C256.26 212.417 256.115 212.26 255.73 212.709Z" fill="#263238"/>
<path d="M189.945 217.355C189.945 217.355 197.355 208.401 201.552 205.134C205.748 201.866 226.261 194.976 228.133 198.968C230.543 204.165 219.577 210.268 213.74 212.63C213.74 212.63 219.321 224.567 212.466 230.536C205.612 236.505 189.945 217.355 189.945 217.355Z" fill="#DD6A57"/>
<path d="M228.286 200.622C226.799 206.788 218.962 209.418 213.509 212.087C213.426 212.123 213.355 212.176 213.299 212.243C213.244 212.31 213.208 212.388 213.193 212.471C213.177 212.554 213.184 212.639 213.213 212.719C213.241 212.799 213.29 212.871 213.355 212.93C215.329 218.08 216.5 225.867 212.851 230.553C212.826 230.58 212.814 230.615 212.817 230.65C212.82 230.686 212.838 230.719 212.868 230.742C212.897 230.765 212.936 230.776 212.974 230.773C213.013 230.77 213.048 230.753 213.073 230.726C217.723 226.19 217.252 218.45 214.697 212.945C220.329 210.284 228.073 207.323 228.372 200.63L228.286 200.622Z" fill="#263238"/>
<path d="M70.1876 214.205C74.8713 220.646 112.785 258.774 137.759 261.939C154.596 264.073 183.707 261.002 194.715 258.75L179.527 215.362C179.527 215.362 153.613 224.158 143.63 223.418C133.648 222.678 93.8709 200.716 79.1191 195.661C72.8542 193.503 69.068 194.873 67.3245 197.866C64.9484 201.858 66.2817 208.827 70.1876 214.205Z" fill="#455A64"/>
<path d="M186.246 257.916C183.758 251.498 174.605 224.843 173.041 218.993C172.93 218.583 173.186 218.418 173.357 218.827C181.297 237.891 184.417 251.396 186.51 257.813C186.553 257.971 186.297 258.073 186.246 257.916Z" fill="#263238"/>
<path d="M120.81 247.167C120.773 249.353 121.362 251.51 122.52 253.419C122.551 252.33 122.41 251.243 122.101 250.191C121.828 249.132 121.393 248.114 120.81 247.167Z" fill="#263238"/>
<path d="M147.467 224.678C147.445 225.766 147.586 226.853 147.886 227.906C148.159 228.964 148.597 229.98 149.185 230.922C149.224 228.738 148.634 226.584 147.476 224.678H147.467Z" fill="#263238"/>
<path d="M104.981 211.843C104.955 214.028 105.544 216.182 106.691 218.095C106.717 215.91 106.128 213.756 104.981 211.843Z" fill="#263238"/>
<path d="M177.569 240.12C177.542 242.303 178.131 244.455 179.279 246.364C179.306 244.182 178.717 242.03 177.569 240.12Z" fill="#263238"/>
<path d="M140.732 256.656C143.102 256.687 145.44 256.144 147.51 255.082C146.328 255.051 145.148 255.179 144.006 255.459C142.86 255.719 141.759 256.121 140.732 256.656Z" fill="#263238"/>
<path d="M163.168 232.631C164.35 232.651 165.529 232.521 166.672 232.245C167.82 231.993 168.922 231.59 169.946 231.049C167.575 231.013 165.236 231.556 163.168 232.623V232.631Z" fill="#263238"/>
<path d="M107.23 237.364C109.604 237.398 111.945 236.855 114.017 235.789C112.835 235.761 111.654 235.891 110.512 236.175C109.363 236.426 108.258 236.827 107.23 237.364Z" fill="#263238"/>
<path d="M67.0938 201.315C69.4662 201.345 71.8059 200.802 73.8799 199.74C72.6982 199.709 71.5178 199.836 70.3757 200.118C69.2271 200.375 68.1226 200.778 67.0938 201.315Z" fill="#263238"/>
<path d="M87.1873 207.473C86.3307 208.223 85.594 209.082 84.9993 210.024C84.3794 210.952 83.9074 211.957 83.5977 213.008C85.2942 211.49 86.5315 209.59 87.1873 207.496V207.473Z" fill="#263238"/>
<path d="M171.03 253.482C170.179 254.238 169.445 255.1 168.851 256.042C168.231 256.969 167.759 257.974 167.449 259.026C169.144 257.508 170.378 255.607 171.03 253.514V253.482Z" fill="#263238"/>
<path d="M135.058 235.773C133.362 237.292 132.125 239.192 131.469 241.285C132.327 240.536 133.064 239.677 133.657 238.734C134.271 237.812 134.743 236.816 135.058 235.773Z" fill="#263238"/>
<path d="M96.6393 230.804C95.8244 230.015 94.892 229.336 93.8701 228.788C92.863 228.217 91.7721 227.782 90.6309 227.497C92.279 229.06 94.3411 230.2 96.6136 230.804H96.6393Z" fill="#263238"/>
<path d="M160.305 244.916C159.49 244.129 158.558 243.453 157.536 242.908C156.53 242.335 155.439 241.9 154.297 241.616C155.11 242.405 156.042 243.082 157.066 243.624C158.074 244.194 159.165 244.629 160.305 244.916Z" fill="#263238"/>
<path d="M123.801 226.324C122.986 225.537 122.054 224.861 121.032 224.316C120.027 223.741 118.936 223.306 117.793 223.024C118.606 223.814 119.539 224.49 120.562 225.032C121.571 225.601 122.661 226.035 123.801 226.324Z" fill="#263238"/>
<path d="M111.032 250.104C91.7507 237.379 73.4263 218.528 70.2127 214.174C66.3068 208.827 64.9735 201.858 67.3239 197.834C69.0332 194.842 72.8537 193.472 79.1185 195.629C80.3834 196.063 81.8278 196.622 83.3919 197.275C90.0499 210.37 101.87 232.828 111.032 250.104Z" fill="#263238"/>
<path d="M109.033 288.666L16.2227 288.894C16.2227 288.894 26.7609 225.545 60.8456 195.378C65.0592 191.646 74.9564 192.087 81.5204 194.795C83.8622 195.756 92.58 206.079 95.3748 216.056C98.1696 226.033 109.272 288.359 109.033 288.666Z" fill="#455A64"/>
<path d="M77.0068 221.819C76.9784 224.005 77.5675 226.159 78.7162 228.072C78.7462 226.982 78.6051 225.895 78.2974 224.843C78.0251 223.784 77.5905 222.766 77.0068 221.819Z" fill="#263238"/>
<path d="M74.452 258.396C74.4255 260.582 75.0145 262.736 76.1614 264.649C76.1879 262.464 75.5989 260.309 74.452 258.396Z" fill="#263238"/>
<path d="M43.2826 244.254C43.2489 246.437 43.8384 248.591 44.992 250.498C45.0248 249.41 44.8867 248.322 44.5817 247.27C44.3005 246.214 43.8634 245.2 43.2826 244.254Z" fill="#263238"/>
<path d="M100.341 243.38C100.309 245.566 100.898 247.721 102.05 249.632C102.084 248.543 101.946 247.456 101.64 246.404C101.361 245.345 100.923 244.328 100.341 243.38Z" fill="#263238"/>
<path d="M57.6836 233.97C58.8653 233.99 60.0444 233.86 61.1878 233.584C62.3388 233.334 63.4443 232.93 64.4698 232.387C62.0967 232.353 59.7557 232.896 57.6836 233.962V233.97Z" fill="#263238"/>
<path d="M41.2383 267.357C43.6101 267.381 45.9482 266.839 48.0245 265.782C46.8423 265.754 45.6621 265.884 44.5203 266.168C43.3708 266.419 42.2659 266.82 41.2383 267.357Z" fill="#263238"/>
<path d="M83.8711 280.869C85.0529 280.89 86.2321 280.76 87.3753 280.484C88.5263 280.233 89.6319 279.83 90.6573 279.287C88.2842 279.252 85.9432 279.795 83.8711 280.862V280.869Z" fill="#263238"/>
<path d="M40.0938 286.555C41.2757 286.579 42.4554 286.449 43.5979 286.169C44.7667 285.923 45.8898 285.52 46.9312 284.972C44.5594 284.948 42.2213 285.491 40.145 286.547L40.0938 286.555Z" fill="#263238"/>
<path d="M67 199.669C68.1817 199.689 69.3608 199.559 70.5042 199.283C71.6553 199.033 72.7608 198.63 73.7862 198.087C71.4131 198.052 69.0721 198.595 67 199.661V199.669Z" fill="#263238"/>
<path d="M56.3338 206.473C54.636 207.99 53.3985 209.89 52.7441 211.985C54.4379 210.464 55.6747 208.565 56.3338 206.473Z" fill="#263238"/>
<path d="M30.5206 249.569C29.6646 250.319 28.9305 251.178 28.3411 252.121C27.7177 253.047 27.2454 254.052 26.9395 255.105C27.796 254.356 28.5301 253.497 29.1189 252.554C29.7358 251.624 30.2077 250.62 30.5206 249.569Z" fill="#263238"/>
<path d="M86.3585 241.694C84.6715 243.218 83.4383 245.117 82.7773 247.206C84.4643 245.682 85.6975 243.784 86.3585 241.694Z" fill="#263238"/>
<path d="M62.546 272.861C61.6942 273.617 60.9607 274.478 60.3665 275.42C59.7466 276.348 59.2746 277.353 58.9648 278.405C60.6595 276.886 61.894 274.986 62.546 272.893V272.861Z" fill="#263238"/>
<path d="M89.212 208.008C87.5142 209.524 86.2791 211.425 85.6309 213.52C86.4869 212.771 87.2209 211.911 87.8103 210.969C88.4265 210.047 88.8984 209.051 89.212 208.008Z" fill="#263238"/>
<path d="M98.6732 231.339C97.8573 230.55 96.9217 229.874 95.8955 229.331C94.8903 228.757 93.7989 228.322 92.6562 228.04C93.4703 228.831 94.4062 229.508 95.434 230.048C96.441 230.619 97.5319 231.054 98.6732 231.339Z" fill="#263238"/>
<path d="M29.2396 275.854C28.4217 275.065 27.4865 274.386 26.4619 273.838C25.4563 273.266 24.3649 272.834 23.2227 272.555C24.8769 274.109 26.9371 275.245 29.2054 275.854H29.2396Z" fill="#263238"/>
<path d="M102.862 264.83C101.211 263.269 99.15 262.13 96.8789 261.522C97.695 262.314 98.6305 262.993 99.6566 263.538C100.655 264.104 101.734 264.538 102.862 264.83Z" fill="#263238"/>
<path d="M47.308 228.379C46.4901 227.589 45.5549 226.91 44.5303 226.363C43.5232 225.792 42.4323 225.357 41.291 225.071C42.9413 226.632 45.0027 227.771 47.2738 228.379H47.308Z" fill="#263238"/>
<path d="M96.358 220.167C97.2126 222.379 97.8793 224.686 98.4776 227.002V226.734C98.4776 225.419 98.4092 224.08 98.4776 222.797C98.4776 222.734 98.5972 222.702 98.6143 222.797C98.8564 224.112 98.9538 225.447 98.9049 226.781C98.9049 227.411 98.9049 228.041 98.8536 228.671C99.0929 229.71 99.3151 230.75 99.5032 231.821C99.8621 233.797 100.913 241.152 101.033 242.616C101.033 242.923 100.683 242.986 100.572 242.672C100.076 241.199 98.5887 233.632 98.1357 231.687C97.2541 227.914 96.5978 224.1 96.1699 220.261C96.187 220.096 96.3323 220.088 96.358 220.167Z" fill="#263238"/>
<path d="M79.7078 210.843C74.0754 211.551 65.426 202.968 62.3492 196.322C62.1355 195.866 63.332 191.385 64.503 185.881C65.2038 182.534 65.8875 178.794 66.2123 175.337C66.2807 174.629 68.7764 176.164 68.7764 176.164L73.5113 177.676L89.2204 182.708C89.2204 182.708 86.1435 189.747 85.5538 195.771C85.5065 196.248 85.5065 196.728 85.5538 197.204C85.5538 197.275 85.5538 197.354 85.5538 197.448C85.776 200.165 85.1606 210.15 79.7078 210.843Z" fill="#DD6A57"/>
<path d="M85.5712 197.189C85.5712 197.26 85.5712 197.339 85.5712 197.433C84.7605 197.455 83.9491 197.421 83.1439 197.331C67.3408 195.598 67.3066 176.857 67.3066 176.857L73.5373 177.645L89.2207 182.708C89.2207 182.708 86.1438 189.748 85.5541 195.772C85.5135 196.244 85.5193 196.718 85.5712 197.189Z" fill="#263238"/>
<path d="M64.4446 148.549C61.3336 156.093 64.1027 178.621 69.6838 183.984C77.7777 191.708 91.8372 193.283 99.1703 184.149C106.281 175.298 102.102 146.006 95.7516 141.084C86.4954 133.8 69.0513 137.415 64.4446 148.549Z" fill="#DD6A57"/>
<path d="M86.3926 164.447C86.3926 164.392 86.2729 164.534 86.2815 164.597C86.5122 166.109 86.5037 167.88 85.0678 168.534C85.0251 168.534 85.0678 168.636 85.0678 168.62C86.8883 168.195 86.8797 165.849 86.3926 164.447Z" fill="#263238"/>
<path d="M84.7347 163.021C82.0681 163.1 82.4356 168.014 84.9057 167.943C87.3757 167.872 86.974 162.943 84.7347 163.021Z" fill="#263238"/>
<path d="M96.503 163.596C96.503 163.541 96.6398 163.659 96.6398 163.722C96.6996 165.25 97.05 166.99 98.5885 167.4V167.486C96.7509 167.368 96.315 165.053 96.503 163.596Z" fill="#263238"/>
<path d="M97.8788 161.912C100.52 161.558 101.101 166.455 98.648 166.786C96.1951 167.117 95.6481 162.235 97.8788 161.912Z" fill="#263238"/>
<path d="M82.4607 160.896C83.1488 160.669 83.8223 160.406 84.4778 160.109C85.2323 159.919 85.8968 159.504 86.3666 158.928C86.4756 158.721 86.5071 158.486 86.456 158.261C86.405 158.036 86.2744 157.833 86.0846 157.683C85.6628 157.437 85.1774 157.3 84.6786 157.285C84.1797 157.269 83.6855 157.377 83.247 157.597C82.2843 157.917 81.4838 158.554 80.9992 159.384C80.9046 159.579 80.8732 159.796 80.9088 160.007C80.9443 160.218 81.0454 160.416 81.1997 160.575C81.354 160.735 81.5551 160.85 81.7788 160.907C82.0025 160.964 82.2393 160.96 82.4607 160.896Z" fill="#263238"/>
<path d="M99.7498 159.305C99.0252 159.218 98.3062 159.094 97.596 158.935C96.8124 158.894 96.065 158.617 95.4678 158.148C95.314 157.966 95.2305 157.741 95.2305 157.51C95.2305 157.279 95.314 157.055 95.4678 156.872C95.8185 156.545 96.2583 156.311 96.7411 156.195C97.2239 156.078 97.7318 156.084 98.2114 156.211C99.2091 156.342 100.121 156.804 100.775 157.51C100.92 157.679 101.008 157.882 101.029 158.096C101.05 158.31 101.004 158.525 100.896 158.715C100.787 158.905 100.621 159.062 100.418 159.166C100.214 159.271 99.9823 159.32 99.7498 159.305Z" fill="#263238"/>
<path d="M86.0169 178.18C86.4357 178.511 86.8716 178.967 87.4698 178.967C88.0705 178.912 88.6524 178.743 89.1792 178.471C89.2305 178.471 89.2903 178.471 89.2561 178.542C89.044 178.858 88.7425 179.114 88.3841 179.283C88.0256 179.452 87.6238 179.528 87.222 179.503C86.8792 179.444 86.563 179.293 86.3135 179.069C86.064 178.845 85.8923 178.557 85.8203 178.243C85.8289 178.172 85.9571 178.133 86.0169 178.18Z" fill="#263238"/>
<path d="M87.4092 173.503C87.8722 174.081 88.461 174.564 89.138 174.92C89.8149 175.277 90.5652 175.5 91.3408 175.574C92.0177 175.649 92.7029 175.633 93.3749 175.527C93.5024 175.519 93.6286 175.497 93.751 175.464L94.1099 175.393C94.1973 175.372 94.2748 175.325 94.3305 175.26C94.3861 175.194 94.4167 175.114 94.4176 175.031C94.4217 174.981 94.4217 174.931 94.4176 174.881V174.747C94.3663 173.574 94.1099 171.802 94.1099 171.802C94.5886 171.983 97.033 172.818 96.9475 172.204C96.2381 167.156 95.4518 161.534 93.5886 156.652C93.5766 156.619 93.5521 156.592 93.5198 156.575C93.4874 156.557 93.4494 156.552 93.4128 156.558C93.3762 156.565 93.3435 156.584 93.3208 156.611C93.2981 156.639 93.287 156.673 93.2895 156.707C93.7595 161.589 95.1612 166.353 95.7253 171.251C94.8566 170.941 93.9442 170.748 93.016 170.676C92.8365 170.739 93.58 174.101 93.5544 174.613C93.5566 174.631 93.5566 174.65 93.5544 174.668C91.4348 175.062 89.7767 174.566 87.5716 173.377C87.4263 173.259 87.2981 173.393 87.4092 173.503Z" fill="#263238"/>
<path d="M92.571 174.983C91.9271 175.869 91.0433 176.586 90.007 177.061C89.4432 177.309 88.8091 177.386 88.195 177.282C86.8532 177.046 86.7335 175.935 86.9045 174.967C86.9992 174.45 87.1599 173.945 87.3831 173.463C88.8892 174.472 90.709 175.005 92.571 174.983Z" fill="#263238"/>
<path d="M90.0421 177.061C89.4784 177.309 88.8443 177.386 88.2302 177.282C86.8883 177.046 86.7687 175.935 86.9396 174.967C88.3669 175.006 89.8284 175.801 90.0421 177.061Z" fill="#FF99BA"/>
<path d="M64.0253 146.675C68.2988 135.65 88.0676 135.65 93.4606 139.013C94.9777 139.922 96.2839 141.099 97.3036 142.476C98.3232 143.854 99.036 145.404 99.4006 147.037C99.4006 147.037 98.1272 144.202 95.9819 144.21C93.8367 144.218 94.2213 146.202 91.0504 147.076C88.1787 147.864 84.1275 145.178 79.2729 145.942C77.1735 146.227 75.2297 147.127 73.73 148.51C72.2304 149.894 71.2548 151.685 70.9483 153.62C70.3073 157.273 70.803 172.022 67.5295 172.762C64.2561 173.503 60.6066 155.588 64.0253 146.675Z" fill="#263238"/>
<path d="M70.2905 167.384C70.2905 167.384 65.1624 159.942 61.5642 161.58C57.966 163.218 61.4873 173.841 65.5812 175.455C66.0916 175.691 66.6481 175.83 67.2178 175.864C67.7875 175.899 68.3589 175.827 68.8983 175.655C69.4377 175.482 69.9341 175.212 70.3582 174.86C70.7822 174.508 71.1254 174.081 71.3674 173.604L70.2905 167.384Z" fill="#DD6A57"/>
<path d="M62.6665 164.597C62.6554 164.601 62.6459 164.608 62.6392 164.617C62.6325 164.626 62.6289 164.637 62.6289 164.648C62.6289 164.659 62.6325 164.67 62.6392 164.679C62.6459 164.688 62.6554 164.695 62.6665 164.699C65.5297 165.912 66.9399 168.479 67.8801 171.109C67.0254 170.077 65.9058 169.479 64.4101 170.369C64.3332 170.416 64.4101 170.526 64.4785 170.518C64.9999 170.389 65.5522 170.411 66.059 170.583C66.5658 170.756 67.002 171.068 67.3074 171.479C67.8113 172.167 68.2325 172.904 68.5638 173.676C68.692 173.92 69.1707 173.818 69.0852 173.534C69.0814 173.513 69.0814 173.492 69.0852 173.471C69.2903 170.054 66.6408 165.124 62.6665 164.597Z" fill="#263238"/>
<path d="M45.8286 216.568C36.9912 231.285 16.6754 287.72 30.5212 298.39C47.7003 311.651 100.605 310.422 112.22 310.619C117.271 310.706 123.254 277.988 119.297 274.602C115.34 271.216 59.0847 273.027 56.6061 270.121C55.589 268.916 66.2298 227.647 62.8538 209.89C59.3753 191.661 49.8114 209.89 45.8286 216.568Z" fill="#DD6A57"/>
<path d="M64.708 203.023C71.6566 217.985 56.6569 267.231 58.5372 268.585C60.4175 269.94 104.271 270.617 104.271 270.617L99.2628 315.162C90.3998 315.076 31.9139 310.067 24.0508 296.067C16.1877 282.066 32.5976 233.292 43.2042 214.654C50.9733 201.126 59.9304 192.708 64.708 203.023Z" fill="#455A64"/>
<path d="M47.8802 266.043C51.4014 266.491 54.8629 267.035 58.35 267.452C58.3328 267.382 58.3328 267.309 58.35 267.239L58.4013 266.924C56.2969 265.926 54.0781 265.147 51.7861 264.602C51.6408 264.554 51.6579 264.318 51.7861 264.334C54.1154 264.475 56.403 264.973 58.5551 265.806C61.1762 251.186 63.9881 236.59 66.9909 222.017C66.9909 221.97 67.0934 221.978 67.0934 222.017C66.5863 225.917 66.0478 229.813 65.4781 233.702C66.1533 231.758 66.9823 229.82 67.6319 227.946C67.6447 227.928 67.6639 227.913 67.6865 227.905C67.7091 227.897 67.7338 227.896 67.757 227.903C67.7802 227.909 67.8005 227.922 67.8149 227.94C67.8294 227.958 67.8371 227.979 67.837 228.001C67.2558 231.151 66.6404 234.829 64.9823 237.687C64.9773 237.716 64.9655 237.744 64.9478 237.768C64.9301 237.793 64.9069 237.813 64.8798 237.829C63.4097 247.404 61.7346 256.948 59.7517 266.444C60.3582 266.803 60.9028 267.243 61.367 267.751C66.555 269.043 103.494 269.523 104.101 270.051C104.708 270.578 104.264 273.712 103.93 276.61C103.93 276.862 103.469 277.035 103.486 276.783C103.623 274.878 103.836 271.271 103.426 271.145C102.853 270.98 65.3157 272.011 47.7178 266.358C47.5041 266.295 47.6836 266.019 47.8802 266.043Z" fill="#263238"/>
<path d="M53.7092 299.067C53.6876 300.156 53.8286 301.242 54.128 302.296C54.4 303.356 54.8376 304.375 55.4271 305.32C55.4647 303.133 54.8751 300.976 53.7177 299.067H53.7092Z" fill="#263238"/>
<path d="M97.7757 292.02C97.7537 293.108 97.8946 294.195 98.1944 295.248C98.4665 296.309 98.9041 297.327 99.4936 298.272C99.5312 296.085 98.9415 293.929 97.7842 292.02H97.7757Z" fill="#263238"/>
<path d="M42.4272 244.254C42.3934 246.437 42.9829 248.591 44.1365 250.498C44.1694 249.41 44.0312 248.322 43.7263 247.27C43.445 246.214 43.0079 245.2 42.4272 244.254Z" fill="#263238"/>
<path d="M56.8281 233.97C58.0099 233.99 59.1889 233.86 60.3323 233.584C61.4834 233.334 62.5889 232.93 63.6143 232.387C61.2412 232.353 58.9002 232.896 56.8281 233.962V233.97Z" fill="#263238"/>
<path d="M40.3848 267.357C42.7566 267.381 45.0947 266.839 47.1709 265.782C45.9888 265.754 44.8085 265.884 43.6667 266.168C42.5173 266.419 41.4123 266.82 40.3848 267.357Z" fill="#263238"/>
<path d="M83.0156 280.869C84.1974 280.89 85.3766 280.76 86.5198 280.484C87.6709 280.233 88.7764 279.83 89.8018 279.287C87.4287 279.252 85.0877 279.795 83.0156 280.862V280.869Z" fill="#263238"/>
<path d="M39.2402 286.555C40.4222 286.579 41.6018 286.449 42.7444 286.169C43.9132 285.923 45.0363 285.52 46.0777 284.972C43.7059 284.948 41.3677 285.491 39.2915 286.547L39.2402 286.555Z" fill="#263238"/>
<path d="M55.4783 206.473C53.7806 207.99 52.5431 209.89 51.8887 211.985C53.5824 210.464 54.8192 208.565 55.4783 206.473Z" fill="#263238"/>
<path d="M29.6671 249.569C28.8111 250.319 28.077 251.178 27.4876 252.121C26.8642 253.047 26.3919 254.052 26.0859 255.105C26.9425 254.356 27.6766 253.497 28.2654 252.554C28.8823 251.624 29.3541 250.62 29.6671 249.569Z" fill="#263238"/>
<path d="M61.6924 272.861C60.8407 273.617 60.1072 274.478 59.513 275.42C58.8931 276.348 58.4211 277.353 58.1113 278.405C59.806 276.886 61.0405 274.986 61.6924 272.893V272.861Z" fill="#263238"/>
<path d="M86.0167 305.367C85.1599 306.119 84.4258 306.981 83.8372 307.926C83.2138 308.852 82.7415 309.858 82.4355 310.911C83.2943 310.161 84.0286 309.298 84.615 308.352C85.2349 307.424 85.7069 306.419 86.0167 305.367Z" fill="#263238"/>
<path d="M28.3842 275.854C27.5663 275.065 26.631 274.386 25.6064 273.838C24.6008 273.266 23.5094 272.834 22.3672 272.555C24.0214 274.109 26.0816 275.245 28.35 275.854H28.3842Z" fill="#263238"/>
<path d="M46.4525 228.379C45.6346 227.589 44.6994 226.91 43.6748 226.363C42.6677 225.792 41.5768 225.357 40.4355 225.071C42.0859 226.632 44.1472 227.771 46.4183 228.379H46.4525Z" fill="#263238"/>
<path d="M75.5629 292.752C73.9147 291.189 71.8526 290.049 69.5801 289.444C70.3931 290.235 71.3258 290.914 72.3492 291.46C73.3491 292.028 74.431 292.463 75.5629 292.752Z" fill="#263238"/>
<path d="M61.0414 252.482C59.3932 250.919 57.3311 249.779 55.0586 249.175C55.8621 249.972 56.7861 250.659 57.8021 251.214C58.8132 251.773 59.9033 252.199 61.0414 252.482Z" fill="#263238"/>
<path d="M107.852 272.987C107.852 272.987 118.186 273.27 120.741 273.491C123.297 273.711 148.946 268.703 157.108 273.349C162.877 276.641 175.911 291.46 174.629 301.429C173.842 307.453 166.586 307.91 166.586 307.91C166.586 307.91 165.535 311.579 162.398 312.721C161.287 313.147 160.088 313.348 158.885 313.31C157.682 313.271 156.502 312.996 155.424 312.501C155.063 313.599 154.39 314.589 153.475 315.368C152.56 316.147 151.436 316.688 150.219 316.934C145.091 317.997 142.809 315.202 142.809 315.202C140.702 317.292 137.845 318.609 134.766 318.91C127.356 319.469 117.322 315.666 116.143 312.918C114.211 308.43 122.69 308.248 128.502 308.721C128.502 308.721 126.399 308.579 125.98 305.886C125.98 305.886 122.673 313.02 104.818 309.941L107.852 272.987Z" fill="#DD6A57"/>
<path d="M133.853 285.318C138.041 289.256 141.024 294.713 143.254 299.792C145.485 304.871 146.553 310.398 143.186 315.194C143.156 315.231 143.113 315.257 143.064 315.267C143.015 315.278 142.964 315.272 142.919 315.252C142.875 315.231 142.839 315.197 142.819 315.154C142.799 315.112 142.796 315.065 142.81 315.021C145.776 309.509 143.878 303.815 141.357 298.484C139.195 293.933 136.981 289.445 133.46 285.633C133.254 285.437 133.631 285.114 133.853 285.318Z" fill="#263238"/>
<path d="M145.16 283.201C152.058 290.114 160.545 302.784 155.588 312.415C155.577 312.441 155.556 312.462 155.529 312.474C155.502 312.486 155.471 312.487 155.442 312.478C155.414 312.468 155.391 312.449 155.378 312.424C155.365 312.399 155.364 312.37 155.374 312.344C158.083 301.737 151.1 291.76 144.853 283.437C144.716 283.264 144.998 283.035 145.16 283.201Z" fill="#263238"/>
<path d="M155.552 280.531C159.586 283.751 162.638 288.366 165.005 292.728C167.569 297.453 168.612 302.689 166.894 307.831C166.883 307.856 166.864 307.876 166.839 307.888C166.814 307.9 166.784 307.904 166.757 307.898C166.729 307.893 166.704 307.878 166.687 307.857C166.67 307.836 166.661 307.81 166.663 307.784C167.766 297.342 162.509 288.5 155.227 280.798C155.065 280.625 155.373 280.389 155.552 280.531Z" fill="#263238"/>
<path d="M116.109 310.879C116.109 310.934 116.109 310.989 116.186 310.942C118.879 308.398 123.468 308.398 127.836 308.989C127.863 309.003 127.894 309.01 127.925 309.01C127.957 309.01 127.988 309.003 128.015 308.989C130.69 309.367 133.263 309.957 135.246 310.32C135.31 310.33 135.376 310.318 135.432 310.287C135.488 310.256 135.53 310.208 135.551 310.151C135.572 310.094 135.569 310.032 135.545 309.976C135.52 309.921 135.475 309.875 135.417 309.847C133.013 308.805 130.446 308.12 127.81 307.816C127.329 307.092 127.001 306.29 126.844 305.453C126.735 304.149 127.066 302.845 127.793 301.721C127.793 301.658 127.733 301.611 127.682 301.658C127.112 302.148 126.664 302.746 126.369 303.41C126.074 304.075 125.938 304.791 125.972 305.508C125.972 305.556 125.972 305.611 125.972 305.666C125.709 306.167 125.356 306.625 124.93 307.02C124.659 307.246 124.373 307.456 124.075 307.65C120.861 307.776 117.793 308.65 116.109 310.879ZM126.605 307.729C126.16 307.729 125.707 307.682 125.254 307.666C125.379 307.535 125.496 307.399 125.605 307.257C125.839 306.947 126.015 306.604 126.126 306.241C126.21 306.752 126.372 307.251 126.605 307.721V307.729Z" fill="#263238"/>
<path d="M85.6733 195.228L80.6905 208.071L62.9559 192.669L58.332 197.984C58.332 197.984 76.0923 222.82 76.1436 221.662L81.3486 210.56L89.8356 217.859L88.3741 198.835L85.6733 195.228Z" fill="#455A64"/>
<path d="M89.6651 208.417C89.3147 205.268 89.0497 202.118 88.5369 198.968C88.5369 198.858 88.3318 198.819 88.3061 198.968C87.7506 202.023 89.1608 214 89.2805 216.882C88.9215 216.56 81.4259 210.473 81.3576 210.583C80.2037 212.362 76.3833 220.449 76.1269 221.182C73.3236 217.245 61.452 201.708 58.1786 198C58.1616 197.975 58.1345 197.957 58.1032 197.95C58.072 197.943 58.0391 197.949 58.0119 197.964C57.9847 197.98 57.9654 198.005 57.9582 198.034C57.951 198.062 57.9565 198.093 57.9735 198.118C60.4862 202.299 75.8363 222.796 76.0414 222.733C78.0729 218.912 79.8873 214.995 81.4772 211C82.7592 212.339 90.3574 219.237 90.3659 218.772C90.33 215.312 90.0961 211.855 89.6651 208.417Z" fill="#263238"/>
<path d="M123.929 331.589H105.75V334.203H123.929V331.589Z" fill="#2FB087"/>
<path d="M123.929 331.589H105.75V333.313H123.929V331.589Z" fill="#263238"/>
<path d="M84.1782 324.556C85.2824 326.07 86.8383 327.256 88.6581 327.973C90.478 328.69 92.484 328.906 94.4344 328.596C95.0638 328.482 95.6815 328.319 96.2805 328.108C97.1809 327.779 98.0404 327.361 98.8445 326.864L96.5283 323.714C96.1009 323.992 95.6459 324.232 95.1694 324.43C90.8447 326.234 88.1012 323.092 87.5627 322.375C85.067 319.147 84.144 311.776 86.708 308.949C86.879 308.737 87.5627 308.406 90.537 308.949C91.0755 309.06 91.6908 309.186 92.3831 309.359C92.9198 309.529 93.4763 309.64 94.0412 309.69L94.1181 307.8L94.3147 305.91C94.1267 305.91 93.8361 305.8 93.46 305.697C92.1069 305.331 90.7233 305.067 89.3234 304.91C87.1696 304.697 84.9132 304.91 83.5286 306.485C79.409 311.154 81.0586 320.509 84.1782 324.556Z" fill="#2FB087"/>
<path d="M96.5035 323.706C96.076 323.984 95.621 324.224 95.1445 324.423L96.2471 328.108C97.1475 327.779 98.007 327.361 98.8111 326.864L96.5035 323.706Z" fill="#263238"/>
<path d="M89.2891 304.934L90.5113 308.973C91.0497 309.083 91.6651 309.209 92.3574 309.383C92.894 309.553 93.4506 309.664 94.0155 309.713L94.0924 307.823L94.289 305.934C94.1009 305.934 93.8103 305.823 93.4343 305.721C92.0784 305.354 90.6919 305.091 89.2891 304.934Z" fill="#263238"/>
<path d="M139.015 300.036C139.015 300.036 136.836 317.1 133.032 324.289C129.229 331.478 124.007 332.266 120.742 332.266H108.896C105.631 332.266 100.349 331.478 96.6058 324.289C92.8623 317.1 90.623 300.036 90.623 300.036H139.015Z" fill="#2FB087"/>
<path d="M135.459 311.17C135.229 311.17 135.005 311.107 134.813 310.99C134.622 310.872 134.473 310.705 134.385 310.509C134.297 310.313 134.274 310.098 134.319 309.89C134.364 309.683 134.475 309.492 134.637 309.342C134.8 309.192 135.007 309.09 135.232 309.049C135.458 309.008 135.692 309.029 135.904 309.11C136.116 309.191 136.298 309.328 136.426 309.504C136.553 309.68 136.622 309.887 136.622 310.099C136.622 310.383 136.499 310.656 136.281 310.856C136.063 311.057 135.768 311.17 135.459 311.17ZM135.459 309.225C135.272 309.225 135.088 309.276 134.932 309.372C134.776 309.469 134.655 309.605 134.583 309.765C134.511 309.924 134.492 310.1 134.529 310.27C134.565 310.439 134.656 310.595 134.788 310.717C134.921 310.84 135.09 310.923 135.274 310.957C135.458 310.99 135.649 310.973 135.822 310.907C135.996 310.841 136.144 310.729 136.248 310.585C136.352 310.441 136.408 310.272 136.408 310.099C136.408 309.867 136.308 309.645 136.13 309.481C135.952 309.317 135.711 309.225 135.459 309.225Z" fill="white"/>
<path d="M101.008 305.659C100.776 305.66 100.548 305.598 100.355 305.481C100.161 305.363 100.01 305.195 99.9197 304.998C99.8298 304.801 99.8054 304.584 99.8496 304.374C99.8938 304.164 100.005 303.971 100.168 303.82C100.331 303.668 100.54 303.565 100.767 303.522C100.995 303.48 101.231 303.501 101.445 303.582C101.66 303.664 101.843 303.802 101.972 303.98C102.101 304.157 102.17 304.366 102.17 304.58C102.171 304.721 102.142 304.861 102.084 304.992C102.026 305.123 101.941 305.242 101.833 305.342C101.724 305.442 101.596 305.522 101.454 305.576C101.313 305.631 101.161 305.659 101.008 305.659ZM101.008 303.706C100.818 303.704 100.631 303.755 100.473 303.851C100.314 303.947 100.19 304.085 100.116 304.246C100.043 304.408 100.023 304.586 100.06 304.758C100.096 304.93 100.188 305.087 100.322 305.211C100.457 305.335 100.628 305.419 100.814 305.453C101.001 305.487 101.194 305.469 101.369 305.401C101.545 305.333 101.694 305.219 101.799 305.073C101.903 304.926 101.958 304.755 101.956 304.58C101.956 304.465 101.932 304.351 101.884 304.245C101.836 304.139 101.767 304.043 101.678 303.962C101.59 303.881 101.486 303.816 101.371 303.772C101.256 303.728 101.132 303.706 101.008 303.706Z" fill="white"/>
<path d="M102.724 321.383C102.492 321.385 102.265 321.323 102.072 321.205C101.878 321.088 101.726 320.92 101.637 320.723C101.547 320.526 101.522 320.309 101.566 320.099C101.611 319.889 101.721 319.696 101.885 319.544C102.048 319.393 102.257 319.289 102.484 319.247C102.712 319.205 102.947 319.226 103.162 319.307C103.376 319.388 103.56 319.527 103.689 319.704C103.818 319.882 103.887 320.091 103.887 320.304C103.888 320.446 103.859 320.586 103.801 320.717C103.743 320.847 103.657 320.966 103.549 321.067C103.441 321.167 103.313 321.247 103.171 321.301C103.03 321.355 102.878 321.383 102.724 321.383ZM102.724 319.43C102.534 319.429 102.348 319.479 102.189 319.576C102.031 319.672 101.907 319.81 101.833 319.971C101.76 320.133 101.74 320.311 101.777 320.482C101.813 320.654 101.905 320.812 102.039 320.936C102.173 321.06 102.345 321.144 102.531 321.178C102.718 321.211 102.911 321.193 103.086 321.125C103.261 321.058 103.411 320.943 103.515 320.797C103.62 320.651 103.675 320.479 103.673 320.304C103.673 320.073 103.573 319.85 103.395 319.686C103.217 319.522 102.976 319.43 102.724 319.43Z" fill="white"/>
<path d="M93.2295 302.847C92.9975 302.847 92.7708 302.784 92.5781 302.665C92.3853 302.546 92.2353 302.377 92.1469 302.179C92.0585 301.982 92.0358 301.764 92.0817 301.555C92.1276 301.345 92.24 301.153 92.4046 301.003C92.5692 300.852 92.7786 300.75 93.0063 300.709C93.234 300.668 93.4697 300.691 93.6835 300.774C93.8973 300.857 94.0796 300.996 94.2072 301.175C94.3349 301.353 94.4021 301.562 94.4004 301.776C94.4004 301.917 94.3701 302.057 94.3111 302.188C94.2522 302.318 94.1658 302.437 94.0569 302.536C93.9481 302.636 93.8189 302.714 93.6769 302.768C93.5349 302.821 93.3828 302.848 93.2295 302.847ZM93.2295 300.894C93.0402 300.894 92.8551 300.946 92.6977 301.043C92.5402 301.14 92.4175 301.277 92.3451 301.439C92.2726 301.6 92.2537 301.777 92.2906 301.948C92.3276 302.119 92.4187 302.276 92.5526 302.4C92.6865 302.523 92.857 302.607 93.0427 302.641C93.2284 302.675 93.4209 302.658 93.5958 302.591C93.7707 302.524 93.9202 302.411 94.0254 302.266C94.1306 302.121 94.1867 301.951 94.1867 301.776C94.1867 301.542 94.0859 301.318 93.9064 301.153C93.7268 300.987 93.4834 300.894 93.2295 300.894Z" fill="white"/>
<path d="M109.451 309.525C109.222 309.525 108.997 309.462 108.806 309.344C108.615 309.226 108.466 309.059 108.378 308.864C108.29 308.668 108.267 308.453 108.311 308.245C108.356 308.037 108.467 307.846 108.63 307.696C108.792 307.547 108.999 307.445 109.225 307.403C109.45 307.362 109.684 307.383 109.896 307.464C110.109 307.545 110.29 307.683 110.418 307.859C110.546 308.035 110.614 308.242 110.614 308.454C110.614 308.594 110.584 308.734 110.525 308.864C110.467 308.993 110.381 309.112 110.273 309.211C110.165 309.31 110.037 309.389 109.896 309.443C109.755 309.497 109.604 309.525 109.451 309.525ZM109.451 307.58C109.264 307.58 109.08 307.631 108.924 307.727C108.768 307.823 108.647 307.96 108.575 308.119C108.503 308.279 108.484 308.455 108.521 308.624C108.558 308.794 108.648 308.95 108.781 309.072C108.913 309.194 109.082 309.277 109.266 309.311C109.45 309.345 109.641 309.327 109.814 309.261C109.988 309.195 110.136 309.083 110.24 308.939C110.344 308.796 110.4 308.627 110.4 308.454C110.398 308.223 110.297 308.001 110.12 307.838C109.942 307.674 109.702 307.582 109.451 307.58Z" fill="white"/>
<path d="M122.144 320.935C121.912 320.935 121.686 320.872 121.493 320.753C121.3 320.635 121.15 320.466 121.062 320.269C120.973 320.072 120.95 319.855 120.995 319.646C121.04 319.436 121.152 319.244 121.316 319.093C121.479 318.942 121.688 318.84 121.915 318.798C122.142 318.756 122.378 318.778 122.592 318.859C122.806 318.941 122.988 319.079 123.117 319.257C123.246 319.434 123.314 319.643 123.314 319.856C123.316 319.998 123.286 320.139 123.228 320.27C123.169 320.402 123.083 320.521 122.974 320.621C122.865 320.722 122.736 320.801 122.593 320.855C122.45 320.909 122.298 320.936 122.144 320.935ZM122.144 318.982C121.954 318.982 121.768 319.034 121.611 319.131C121.453 319.229 121.331 319.367 121.258 319.528C121.186 319.69 121.168 319.868 121.205 320.039C121.243 320.21 121.335 320.367 121.47 320.49C121.605 320.613 121.776 320.697 121.962 320.73C122.148 320.763 122.341 320.744 122.516 320.677C122.691 320.609 122.84 320.494 122.944 320.348C123.048 320.202 123.103 320.031 123.101 319.856C123.101 319.741 123.076 319.626 123.028 319.52C122.98 319.413 122.909 319.317 122.82 319.235C122.731 319.154 122.625 319.09 122.509 319.046C122.393 319.003 122.269 318.981 122.144 318.982Z" fill="white"/>
<path d="M114.365 302.847C114.133 302.849 113.905 302.786 113.711 302.668C113.517 302.551 113.366 302.382 113.276 302.185C113.187 301.987 113.163 301.77 113.208 301.56C113.253 301.35 113.364 301.157 113.528 301.005C113.693 300.854 113.902 300.751 114.13 300.71C114.358 300.668 114.594 300.69 114.808 300.773C115.023 300.856 115.206 300.995 115.334 301.174C115.462 301.352 115.529 301.562 115.527 301.776C115.527 302.06 115.405 302.333 115.187 302.533C114.969 302.734 114.673 302.847 114.365 302.847ZM114.365 300.894C114.175 300.893 113.989 300.943 113.831 301.039C113.672 301.135 113.548 301.272 113.475 301.433C113.401 301.594 113.381 301.772 113.417 301.943C113.453 302.115 113.543 302.273 113.677 302.397C113.81 302.521 113.981 302.606 114.167 302.64C114.352 302.675 114.545 302.658 114.721 302.592C114.896 302.525 115.046 302.412 115.152 302.267C115.257 302.122 115.314 301.951 115.314 301.776C115.314 301.544 115.214 301.32 115.036 301.155C114.859 300.99 114.617 300.896 114.365 300.894Z" fill="white"/>
<path d="M112.921 316.635C112.692 316.633 112.468 316.569 112.278 316.451C112.088 316.332 111.94 316.164 111.854 315.968C111.767 315.773 111.745 315.558 111.791 315.35C111.837 315.143 111.948 314.953 112.111 314.804C112.274 314.655 112.481 314.554 112.706 314.513C112.932 314.472 113.165 314.494 113.377 314.575C113.589 314.657 113.77 314.794 113.897 314.97C114.024 315.146 114.092 315.353 114.092 315.564C114.092 315.705 114.062 315.845 114.003 315.976C113.944 316.106 113.858 316.225 113.749 316.324C113.64 316.424 113.511 316.502 113.369 316.556C113.227 316.609 113.075 316.636 112.921 316.635ZM112.921 314.69C112.734 314.692 112.552 314.744 112.397 314.841C112.242 314.938 112.122 315.075 112.051 315.235C111.981 315.395 111.963 315.57 112.001 315.739C112.038 315.908 112.129 316.063 112.262 316.185C112.395 316.306 112.564 316.389 112.748 316.422C112.932 316.455 113.122 316.437 113.295 316.371C113.468 316.304 113.615 316.192 113.719 316.049C113.823 315.905 113.879 315.737 113.879 315.564C113.879 315.449 113.854 315.334 113.806 315.228C113.757 315.121 113.687 315.024 113.598 314.943C113.509 314.862 113.403 314.798 113.287 314.754C113.171 314.711 113.047 314.689 112.921 314.69Z" fill="white"/>
<path d="M101.383 329.47C101.151 329.472 100.923 329.41 100.73 329.292C100.536 329.174 100.385 329.007 100.295 328.81C100.205 328.613 100.18 328.395 100.225 328.186C100.269 327.976 100.38 327.783 100.543 327.631C100.706 327.48 100.915 327.376 101.142 327.334C101.37 327.292 101.606 327.312 101.82 327.394C102.035 327.475 102.218 327.614 102.347 327.791C102.476 327.969 102.545 328.178 102.545 328.391C102.546 328.533 102.517 328.673 102.459 328.803C102.401 328.934 102.316 329.053 102.208 329.154C102.099 329.254 101.971 329.333 101.829 329.388C101.688 329.442 101.536 329.47 101.383 329.47ZM101.383 327.517C101.193 327.516 101.006 327.566 100.848 327.663C100.689 327.759 100.565 327.897 100.491 328.058C100.418 328.219 100.398 328.397 100.435 328.569C100.471 328.741 100.563 328.899 100.697 329.023C100.832 329.147 101.003 329.231 101.189 329.264C101.376 329.298 101.569 329.28 101.744 329.212C101.92 329.145 102.069 329.03 102.174 328.884C102.278 328.738 102.333 328.566 102.331 328.391C102.331 328.276 102.307 328.163 102.259 328.057C102.211 327.951 102.142 327.854 102.053 327.773C101.965 327.692 101.861 327.628 101.746 327.584C101.631 327.54 101.507 327.517 101.383 327.517Z" fill="white"/>
<path d="M129.69 304.453C129.46 304.453 129.235 304.391 129.044 304.273C128.853 304.155 128.704 303.988 128.616 303.792C128.528 303.597 128.505 303.381 128.55 303.174C128.595 302.966 128.705 302.775 128.868 302.625C129.03 302.475 129.237 302.373 129.463 302.332C129.688 302.291 129.922 302.312 130.135 302.393C130.347 302.474 130.528 302.611 130.656 302.787C130.784 302.964 130.852 303.171 130.852 303.382C130.85 303.666 130.727 303.937 130.509 304.137C130.292 304.338 129.997 304.451 129.69 304.453ZM129.69 302.508C129.502 302.508 129.319 302.56 129.163 302.656C129.007 302.752 128.885 302.888 128.813 303.048C128.741 303.208 128.723 303.383 128.759 303.553C128.796 303.723 128.886 303.878 129.019 304C129.152 304.123 129.321 304.206 129.505 304.24C129.689 304.273 129.879 304.256 130.053 304.19C130.226 304.124 130.374 304.012 130.479 303.868C130.583 303.724 130.638 303.555 130.638 303.382C130.638 303.151 130.538 302.928 130.361 302.764C130.183 302.6 129.941 302.508 129.69 302.508Z" fill="white"/>
<path d="M97.2127 313.714C96.9807 313.716 96.7535 313.654 96.5598 313.536C96.3662 313.419 96.2147 313.251 96.1248 313.054C96.0349 312.857 96.0105 312.64 96.0547 312.43C96.0989 312.22 96.2097 312.027 96.3731 311.875C96.5365 311.724 96.7452 311.62 96.9725 311.578C97.1999 311.536 97.4358 311.557 97.6502 311.638C97.8647 311.719 98.0481 311.858 98.1771 312.035C98.3061 312.213 98.375 312.422 98.375 312.635C98.375 312.92 98.2529 313.193 98.0351 313.395C97.8174 313.598 97.5217 313.712 97.2127 313.714ZM97.2127 311.761C97.0226 311.76 96.8364 311.81 96.6777 311.907C96.5189 312.003 96.3949 312.141 96.3214 312.302C96.2479 312.464 96.2282 312.642 96.2649 312.813C96.3016 312.985 96.3929 313.143 96.5273 313.267C96.6617 313.391 96.833 313.475 97.0195 313.509C97.206 313.542 97.3992 313.524 97.5744 313.457C97.7497 313.389 97.8991 313.275 98.0036 313.128C98.1081 312.982 98.1631 312.81 98.1614 312.635C98.1591 312.404 98.0585 312.183 97.881 312.02C97.7036 311.856 97.4636 311.763 97.2127 311.761Z" fill="white"/>
<path d="M121.049 310.501C120.816 310.503 120.589 310.441 120.395 310.323C120.201 310.205 120.05 310.036 119.96 309.839C119.87 309.642 119.846 309.424 119.891 309.214C119.936 309.004 120.048 308.811 120.212 308.66C120.376 308.508 120.586 308.405 120.814 308.364C121.042 308.323 121.278 308.345 121.492 308.427C121.706 308.51 121.889 308.649 122.017 308.828C122.145 309.007 122.213 309.216 122.211 309.43C122.211 309.714 122.088 309.987 121.87 310.188C121.653 310.388 121.357 310.501 121.049 310.501ZM121.049 308.548C120.859 308.547 120.673 308.597 120.514 308.693C120.356 308.789 120.232 308.926 120.158 309.087C120.084 309.248 120.064 309.426 120.1 309.598C120.136 309.769 120.227 309.927 120.36 310.051C120.494 310.175 120.664 310.26 120.85 310.295C121.036 310.329 121.229 310.312 121.404 310.246C121.58 310.179 121.73 310.066 121.835 309.921C121.941 309.776 121.997 309.605 121.997 309.43C121.997 309.198 121.898 308.975 121.72 308.81C121.542 308.644 121.301 308.551 121.049 308.548Z" fill="white"/>
<path d="M112.921 327.856C112.689 327.856 112.463 327.793 112.27 327.674C112.078 327.555 111.928 327.387 111.839 327.19C111.751 326.993 111.727 326.776 111.772 326.567C111.818 326.357 111.929 326.165 112.093 326.014C112.257 325.863 112.465 325.761 112.692 325.719C112.92 325.677 113.155 325.699 113.369 325.78C113.583 325.862 113.766 326 113.894 326.178C114.023 326.355 114.092 326.564 114.092 326.777C114.092 327.063 113.968 327.338 113.749 327.54C113.529 327.742 113.231 327.856 112.921 327.856ZM112.921 325.903C112.731 325.903 112.546 325.955 112.388 326.052C112.231 326.149 112.108 326.288 112.036 326.449C111.964 326.611 111.945 326.789 111.983 326.96C112.02 327.131 112.112 327.288 112.247 327.411C112.382 327.534 112.553 327.618 112.739 327.651C112.926 327.684 113.118 327.665 113.293 327.597C113.468 327.529 113.617 327.415 113.721 327.269C113.825 327.123 113.88 326.952 113.878 326.777C113.878 326.662 113.853 326.547 113.805 326.441C113.757 326.334 113.686 326.237 113.597 326.156C113.508 326.075 113.403 326.011 113.287 325.967C113.171 325.924 113.046 325.902 112.921 325.903Z" fill="white"/>
<path d="M122.716 331.731C122.484 331.731 122.258 331.668 122.065 331.549C121.873 331.43 121.723 331.262 121.634 331.065C121.545 330.868 121.522 330.651 121.567 330.442C121.613 330.232 121.724 330.04 121.888 329.889C122.052 329.738 122.26 329.636 122.487 329.594C122.715 329.552 122.95 329.574 123.164 329.655C123.378 329.737 123.561 329.875 123.689 330.053C123.818 330.23 123.887 330.439 123.887 330.652C123.887 330.938 123.763 331.213 123.544 331.415C123.324 331.617 123.026 331.731 122.716 331.731ZM122.716 329.778C122.526 329.778 122.341 329.83 122.183 329.927C122.026 330.024 121.903 330.163 121.831 330.324C121.758 330.486 121.74 330.664 121.778 330.835C121.815 331.006 121.907 331.163 122.042 331.286C122.177 331.409 122.348 331.493 122.534 331.526C122.721 331.559 122.913 331.54 123.088 331.472C123.263 331.404 123.412 331.29 123.516 331.144C123.62 330.998 123.675 330.827 123.673 330.652C123.673 330.537 123.648 330.422 123.6 330.316C123.552 330.209 123.481 330.112 123.392 330.031C123.303 329.95 123.198 329.886 123.082 329.842C122.965 329.799 122.841 329.777 122.716 329.778Z" fill="white"/>
<path d="M129.69 315.658C129.46 315.658 129.235 315.596 129.044 315.478C128.853 315.36 128.704 315.193 128.616 314.997C128.528 314.802 128.505 314.586 128.55 314.379C128.595 314.171 128.705 313.98 128.868 313.83C129.03 313.681 129.237 313.579 129.463 313.537C129.688 313.496 129.922 313.517 130.135 313.598C130.347 313.679 130.528 313.816 130.656 313.993C130.784 314.169 130.852 314.376 130.852 314.588C130.85 314.871 130.727 315.142 130.509 315.343C130.292 315.543 129.997 315.656 129.69 315.658ZM129.69 313.713C129.502 313.713 129.319 313.765 129.163 313.861C129.007 313.957 128.885 314.093 128.813 314.253C128.741 314.413 128.723 314.589 128.759 314.758C128.796 314.928 128.886 315.083 129.019 315.206C129.152 315.328 129.321 315.411 129.505 315.445C129.689 315.479 129.879 315.461 130.053 315.395C130.226 315.329 130.374 315.217 130.479 315.073C130.583 314.929 130.638 314.76 130.638 314.588C130.636 314.356 130.536 314.135 130.358 313.972C130.181 313.808 129.941 313.716 129.69 313.713Z" fill="white"/>
<path d="M130.741 325.336C130.509 325.336 130.283 325.273 130.09 325.154C129.897 325.035 129.747 324.866 129.659 324.668C129.57 324.471 129.548 324.254 129.593 324.044C129.639 323.835 129.752 323.642 129.916 323.492C130.081 323.341 130.29 323.239 130.518 323.198C130.746 323.158 130.981 323.18 131.195 323.263C131.409 323.346 131.591 323.485 131.719 323.664C131.847 323.842 131.914 324.052 131.912 324.265C131.912 324.407 131.882 324.547 131.823 324.677C131.764 324.807 131.677 324.926 131.569 325.025C131.46 325.125 131.331 325.204 131.189 325.257C131.047 325.31 130.895 325.337 130.741 325.336ZM130.741 323.383C130.552 323.383 130.367 323.435 130.209 323.532C130.052 323.629 129.929 323.767 129.857 323.928C129.784 324.089 129.765 324.266 129.802 324.437C129.839 324.608 129.93 324.766 130.064 324.889C130.198 325.012 130.369 325.096 130.554 325.13C130.74 325.164 130.933 325.147 131.108 325.08C131.282 325.013 131.432 324.9 131.537 324.755C131.642 324.61 131.698 324.44 131.698 324.265C131.698 324.031 131.598 323.807 131.418 323.642C131.239 323.476 130.995 323.383 130.741 323.383Z" fill="white"/>
<path d="M120.356 160.856C118.259 157.991 117.126 154.619 117.1 151.163C117.1 138.895 131.732 128.941 149.766 128.941C167.8 128.941 182.415 138.895 182.415 151.163C182.415 163.431 167.8 173.392 149.766 173.392C141.014 173.392 133.091 171.03 127.237 167.242L115.98 169.872L120.356 160.856Z" fill="#2FB087"/>
<path d="M161.51 151.162C161.51 151.785 161.71 152.394 162.086 152.912C162.462 153.43 162.996 153.834 163.62 154.072C164.245 154.311 164.932 154.373 165.595 154.252C166.259 154.13 166.868 153.83 167.346 153.39C167.824 152.949 168.15 152.388 168.282 151.777C168.413 151.166 168.346 150.533 168.087 149.957C167.828 149.382 167.39 148.89 166.828 148.544C166.266 148.197 165.605 148.013 164.928 148.013C164.022 148.013 163.152 148.345 162.511 148.935C161.87 149.526 161.51 150.327 161.51 151.162Z" fill="white"/>
<path d="M146.373 151.162C146.373 151.785 146.574 152.394 146.949 152.912C147.325 153.43 147.859 153.834 148.483 154.072C149.108 154.311 149.796 154.373 150.459 154.252C151.122 154.13 151.731 153.83 152.209 153.39C152.687 152.949 153.013 152.388 153.145 151.777C153.277 151.166 153.209 150.533 152.95 149.957C152.692 149.382 152.253 148.89 151.691 148.544C151.129 148.197 150.468 148.013 149.792 148.013C148.885 148.013 148.016 148.345 147.374 148.935C146.733 149.526 146.373 150.327 146.373 151.162Z" fill="white"/>
<path d="M131.236 151.162C131.236 151.785 131.437 152.394 131.812 152.912C132.188 153.43 132.722 153.834 133.347 154.072C133.971 154.311 134.659 154.373 135.322 154.252C135.985 154.13 136.594 153.83 137.072 153.39C137.551 152.949 137.876 152.388 138.008 151.777C138.14 151.166 138.072 150.533 137.814 149.957C137.555 149.382 137.117 148.89 136.554 148.544C135.992 148.197 135.331 148.013 134.655 148.013C133.748 148.013 132.879 148.345 132.238 148.935C131.597 149.526 131.236 150.327 131.236 151.162Z" fill="white"/>
<path d="M262.31 126.453C264.408 123.588 265.541 120.216 265.567 116.76C265.567 104.491 250.935 94.5381 232.901 94.5381C214.867 94.5381 200.252 104.491 200.252 116.76C200.252 129.028 214.867 138.989 232.901 138.989C241.644 138.989 249.576 136.627 255.43 132.839L266.678 135.461L262.31 126.453Z" fill="#2FB087"/>
<path d="M221.15 116.76C221.15 117.383 220.949 117.992 220.574 118.51C220.198 119.028 219.664 119.432 219.04 119.67C218.415 119.908 217.727 119.971 217.064 119.849C216.401 119.728 215.792 119.428 215.314 118.987C214.836 118.547 214.51 117.986 214.378 117.375C214.246 116.764 214.314 116.13 214.573 115.555C214.831 114.979 215.27 114.487 215.832 114.141C216.394 113.795 217.055 113.61 217.731 113.61C218.638 113.61 219.507 113.942 220.149 114.533C220.79 115.124 221.15 115.925 221.15 116.76Z" fill="white"/>
<path d="M236.286 116.76C236.286 117.383 236.085 117.992 235.71 118.51C235.334 119.028 234.8 119.432 234.175 119.67C233.551 119.908 232.863 119.971 232.2 119.849C231.537 119.728 230.928 119.428 230.45 118.987C229.971 118.547 229.646 117.986 229.514 117.375C229.382 116.764 229.45 116.13 229.708 115.555C229.967 114.979 230.405 114.487 230.968 114.141C231.53 113.795 232.191 113.61 232.867 113.61C233.774 113.61 234.643 113.942 235.284 114.533C235.926 115.124 236.286 115.925 236.286 116.76Z" fill="white"/>
<path d="M251.421 116.76C251.421 117.383 251.221 117.992 250.845 118.51C250.47 119.028 249.936 119.432 249.311 119.67C248.686 119.908 247.999 119.971 247.336 119.849C246.673 119.728 246.063 119.428 245.585 118.987C245.107 118.547 244.782 117.986 244.65 117.375C244.518 116.764 244.585 116.13 244.844 115.555C245.103 114.979 245.541 114.487 246.103 114.141C246.666 113.795 247.327 113.61 248.003 113.61C248.909 113.61 249.779 113.942 250.42 114.533C251.061 115.124 251.421 115.925 251.421 116.76Z" fill="white"/>
</svg>
