<svg width="83" height="84" viewBox="0 0 83 84" fill="none" xmlns="http://www.w3.org/2000/svg">
<path d="M73.6171 42.2343C73.6171 60.0719 59.1569 74.5322 41.3193 74.5322C23.4817 74.5322 9.02149 60.0719 9.02149 42.2343C9.02148 24.3968 23.4817 9.93652 41.3193 9.93652C59.1569 9.93652 73.6171 24.3968 73.6171 42.2343ZM12.8283 42.2343C12.8283 57.9695 25.5842 70.7254 41.3193 70.7254C57.0545 70.7254 69.8103 57.9695 69.8103 42.2343C69.8103 26.4992 57.0545 13.7433 41.3193 13.7433C25.5842 13.7433 12.8283 26.4992 12.8283 42.2343Z" fill="#E8DDF2"/>
<path d="M64.5956 42.0537C64.5956 54.809 54.2553 65.1493 41.5 65.1493C28.7446 65.1493 18.4043 54.809 18.4043 42.0537C18.4043 29.2983 28.7446 18.958 41.5 18.958C54.2553 18.958 64.5956 29.2983 64.5956 42.0537ZM21.1265 42.0537C21.1265 53.3056 30.248 62.4271 41.5 62.4271C52.7519 62.4271 61.8734 53.3056 61.8734 42.0537C61.8734 30.8017 52.7519 21.6802 41.5 21.6802C30.248 21.6802 21.1265 30.8017 21.1265 42.0537Z" fill="#E8DDF2"/>
<path d="M83 42.0537C83 64.9735 64.4198 83.5537 41.5 83.5537C18.5802 83.5537 2.14089e-06 64.9735 1.37918e-06 42.0537C6.17482e-07 19.1339 18.5802 0.55371 41.5 0.55371C64.4198 0.553709 83 19.1339 83 42.0537ZM4.89144 42.0537C4.89144 62.2721 21.2817 78.6623 41.5 78.6623C61.7184 78.6623 78.1086 62.2721 78.1086 42.0537C78.1086 21.8354 61.7183 5.44515 41.5 5.44515C21.2816 5.44515 4.89144 21.8354 4.89144 42.0537Z" fill="#E8DDF2"/>
</svg>
