<svg width="231" height="245" viewBox="0 0 231 245" fill="none" xmlns="http://www.w3.org/2000/svg" xmlns:xlink="http://www.w3.org/1999/xlink">
<g filter="url(#filter0_d_417_21267)">
<path d="M38.6868 86.0742C38.5701 85.9005 38.6163 85.6652 38.79 85.5486L40.268 84.5559C40.4416 84.4393 40.6769 84.4855 40.7936 84.6591L44.2626 89.8241C44.3793 89.9977 44.333 90.233 44.1594 90.3496L42.6814 91.3423C42.5077 91.459 42.2724 91.4127 42.1558 91.2391L38.6868 86.0742Z" fill="#55585D"/>
<path d="M45.762 96.6082C45.6454 96.4346 45.6916 96.1993 45.8652 96.0827L47.3433 95.09C47.5169 94.9733 47.7522 95.0196 47.8688 95.1932L54.8755 105.625C54.9921 105.799 54.9459 106.034 54.7723 106.151L53.2943 107.143C53.1206 107.26 52.8853 107.214 52.7687 107.04L45.762 96.6082Z" fill="#55585D"/>
<path d="M55.3136 110.829C55.197 110.656 55.2432 110.42 55.4168 110.304L56.8949 109.311C57.0685 109.194 57.3038 109.241 57.4204 109.414L64.4271 119.846C64.5437 120.02 64.4975 120.255 64.3239 120.372L62.8459 121.364C62.6722 121.481 62.4369 121.435 62.3203 121.261L55.3136 110.829Z" fill="#55585D"/>
<path d="M118.117 54.1252C118 53.9516 118.047 53.7163 118.22 53.5997L119.698 52.6069C119.872 52.4903 120.107 52.5365 120.224 52.7102L131.122 68.9359C131.239 69.1095 131.192 69.3449 131.019 69.4615L129.541 70.4542C129.367 70.5708 129.132 70.5246 129.015 70.351L118.117 54.1252Z" fill="#55585D"/>
<path d="M27.8023 68.7314C25.5864 65.4323 26.4645 60.9615 29.7637 58.7456L88.3947 19.3658C91.6939 17.1499 96.1647 18.0281 98.3806 21.3272L188.349 155.277C190.564 158.576 189.686 163.047 186.387 165.263L127.756 204.643C124.457 206.858 119.986 205.98 117.77 202.681L27.8023 68.7314Z" fill="#36393E"/>
<rect x="29.0732" y="63.7949" width="77.4065" height="168.137" rx="4.86435" transform="rotate(-33.8875 29.0732 63.7949)" fill="white"/>
<g clip-path="url(#clip0_417_21267)">
<rect x="29" y="63" width="77.4065" height="168.137" rx="5.28733" transform="rotate(-33.8875 29 63)" fill="white"/>
<rect x="29" y="63" width="77.4065" height="168.137" rx="4.86435" transform="rotate(-33.8875 29 63)" fill="url(#pattern0)"/>
<rect x="29" y="63" width="77.4065" height="168.137" rx="4.86435" transform="rotate(-33.8875 29 63)" fill="white"/>
</g>
<path fill-rule="evenodd" clip-rule="evenodd" d="M28.4719 68.5899C26.3727 65.4644 27.2046 61.2289 30.3301 59.1296L88.5366 20.035C91.6621 17.9357 95.8976 18.7677 97.9969 21.8932L187.68 155.418C189.779 158.544 188.947 162.779 185.821 164.879L127.615 203.973C124.489 206.072 120.254 205.241 118.155 202.115L28.4719 68.5899ZM32.0296 68.197C30.3969 65.766 31.0439 62.4717 33.4749 60.839L43.821 53.8899L45.8804 56.9562C46.6968 58.1717 48.344 58.4952 49.5594 57.6788L79.9203 37.2868C81.1358 36.4704 81.4593 34.8233 80.6429 33.6078L78.5835 30.5416L88.9295 23.5926C91.3605 21.9599 94.6547 22.6069 96.2875 25.0379L184.122 155.811C185.755 158.242 185.108 161.536 182.677 163.169L127.222 200.416C124.791 202.048 121.497 201.401 119.864 198.97L32.0296 68.197Z" fill="#0B303E"/>
<rect x="56.2363" y="47.0049" width="12.6896" height="1.26896" rx="0.63448" transform="rotate(-33.8875 56.2363 47.0049)" fill="#5E5E5E"/>
<circle cx="70.6555" cy="38.0939" r="1.26896" transform="rotate(-33.8875 70.6555 38.0939)" fill="#36393E"/>
</g>
<rect x="11.4912" y="95.6035" width="65" height="14" rx="4" transform="rotate(-33.8875 11.4912 95.6035)" fill="#279371"/>
<path d="M24.7674 97.6003C24.4806 97.7929 24.1908 97.8975 23.898 97.9142C23.606 97.9263 23.3285 97.8586 23.0655 97.7112C22.8006 97.561 22.5691 97.3385 22.371 97.0435C22.171 96.7457 22.0525 96.4472 22.0155 96.148C21.9767 95.846 22.0181 95.5621 22.1397 95.2964C22.2641 95.0289 22.4696 94.7988 22.7563 94.6062C23.0955 94.3784 23.4281 94.275 23.7542 94.296C24.0804 94.317 24.3724 94.4569 24.6303 94.7158L24.1423 95.0436C23.9908 94.9013 23.8182 94.8232 23.6248 94.8091C23.4313 94.795 23.2284 94.8593 23.0161 95.0019C22.7266 95.1963 22.5644 95.4492 22.5296 95.7607C22.4929 96.0694 22.5903 96.3961 22.8217 96.7407C23.0513 97.0826 23.316 97.2949 23.6156 97.3777C23.9153 97.4605 24.2099 97.4047 24.4993 97.2102C24.7116 97.0676 24.8497 96.9069 24.9136 96.728C24.9774 96.5491 24.974 96.3653 24.9034 96.1767L25.3914 95.8489C25.5261 96.1746 25.5405 96.4909 25.4347 96.798C25.3289 97.1051 25.1065 97.3726 24.7674 97.6003ZM26.44 96.4049L24.4401 93.4273L24.8785 93.1329L25.7229 94.3901C25.7122 94.2252 25.7452 94.069 25.8221 93.9213C25.8999 93.7691 26.0132 93.6429 26.1621 93.543C26.4075 93.3781 26.6523 93.3257 26.8966 93.3857C27.1409 93.4456 27.3658 93.6286 27.5714 93.9346L28.363 95.1133L27.9288 95.4049L27.1677 94.2718C26.9011 93.8748 26.6092 93.7828 26.2921 93.9957C26.1267 94.1068 26.0278 94.2573 25.9953 94.4472C25.9655 94.6352 26.0229 94.8367 26.1673 95.0518L26.8784 96.1104L26.44 96.4049ZM29.8721 94.1717C29.6708 94.3069 29.462 94.3831 29.2456 94.4005C29.0301 94.4132 28.8245 94.3692 28.6289 94.2686C28.4333 94.1679 28.2642 94.0114 28.1216 93.7992C27.9771 93.5841 27.893 93.3666 27.8692 93.1465C27.8482 92.9246 27.8843 92.7163 27.9776 92.5216C28.0737 92.325 28.2251 92.1573 28.4319 92.0185C28.6331 91.8833 28.8387 91.8112 29.0487 91.8022C29.2569 91.7904 29.4523 91.8312 29.635 91.9245C29.8177 92.0178 29.9692 92.1541 30.0896 92.3333C30.1081 92.3609 30.1271 92.3921 30.1466 92.4271C30.1669 92.4574 30.1887 92.4928 30.2119 92.5332L28.6156 93.6054C28.7627 93.7946 28.9293 93.9028 29.1155 93.9298C29.3025 93.9521 29.4733 93.9115 29.6277 93.8078C29.7517 93.7245 29.8366 93.6274 29.8823 93.5168C29.9289 93.4015 29.9404 93.2817 29.917 93.1574L30.3553 92.863C30.4298 93.093 30.4279 93.3283 30.3495 93.569C30.2738 93.8079 30.1147 94.0088 29.8721 94.1717ZM28.6694 92.381C28.5232 92.4792 28.4233 92.6103 28.3695 92.7745C28.3139 92.9359 28.332 93.1117 28.4238 93.3021L29.5818 92.5243C29.4661 92.37 29.3244 92.2811 29.1567 92.2578C28.989 92.2344 28.8265 92.2755 28.6694 92.381ZM32.2996 92.5413C32.0983 92.6765 31.8872 92.7523 31.6662 92.7687C31.4479 92.7832 31.2396 92.7411 31.0412 92.6423C30.8437 92.5389 30.6737 92.3811 30.5311 92.1688C30.3885 91.9565 30.3076 91.7408 30.2885 91.5216C30.2702 91.2978 30.3091 91.0877 30.4051 90.8911C30.5039 90.6928 30.6539 90.526 30.8552 90.3908C31.1089 90.2204 31.3656 90.144 31.6254 90.1616C31.888 90.1772 32.12 90.2814 32.3215 90.4742L31.8624 90.7825C31.7589 90.688 31.639 90.6405 31.5027 90.64C31.3664 90.6396 31.2348 90.682 31.108 90.7671C31.0004 90.8394 30.9197 90.9336 30.8658 91.0498C30.81 91.1633 30.7897 91.291 30.8049 91.4328C30.8183 91.5718 30.8759 91.7172 30.9777 91.8688C31.0796 92.0204 31.1933 92.1301 31.3188 92.1979C31.4424 92.2628 31.5683 92.2923 31.6963 92.2864C31.8243 92.2804 31.9421 92.2413 32.0496 92.1691C32.1764 92.0839 32.2654 91.9781 32.3166 91.8518C32.3677 91.7254 32.3682 91.595 32.318 91.4607L32.777 91.1524C32.8783 91.4044 32.8874 91.6563 32.8045 91.9081C32.7215 92.1599 32.5532 92.3709 32.2996 92.5413ZM33.7135 91.5196L31.7136 88.542L32.152 88.2476L33.3436 90.0217L33.5599 88.6462L34.0851 88.2934L33.8375 89.81L35.5911 90.2585L35.0369 90.6307L33.4464 90.1747L34.1519 91.2252L33.7135 91.5196ZM34.54 87.4238C34.4573 87.4793 34.3717 87.5008 34.2833 87.4882C34.1957 87.471 34.126 87.4238 34.0741 87.3466C34.0223 87.2694 34.0059 87.1884 34.0249 87.1036C34.0449 87.0142 34.0962 86.9417 34.1789 86.8862C34.2617 86.8306 34.3468 86.8114 34.4344 86.8286C34.5228 86.8412 34.593 86.8861 34.6448 86.9633C34.6967 87.0405 34.7126 87.1238 34.6927 87.2132C34.6736 87.298 34.6227 87.3682 34.54 87.4238ZM35.9597 90.011L34.582 87.9597L35.0203 87.6653L36.398 89.7165L35.9597 90.011ZM36.9767 89.3278L35.599 87.2766L35.9877 87.0155L36.2625 87.3531C36.2407 87.1837 36.2664 87.0224 36.3396 86.8692C36.4136 86.7115 36.5306 86.5789 36.6905 86.4715C36.9387 86.3048 37.1849 86.2515 37.4292 86.3114C37.6763 86.3695 37.9026 86.5516 38.1081 86.8576L38.8997 88.0362L38.4655 88.3279L37.7044 87.1948C37.4378 86.7977 37.1418 86.7085 36.8165 86.927C36.6538 87.0363 36.5576 87.1849 36.5278 87.3729C36.5008 87.5591 36.5596 87.7597 36.704 87.9747L37.4151 89.0334L36.9767 89.3278ZM39.8333 86.497C39.7258 86.5692 39.6182 86.6235 39.5106 86.6598L39.4494 86.9529C39.4927 86.9518 39.541 86.9434 39.5944 86.9275C39.6478 86.9117 39.7181 86.8824 39.8055 86.8398C39.8929 86.7971 40.0092 86.735 40.1544 86.6534C40.444 86.4949 40.6856 86.4287 40.8791 86.4547C41.0708 86.478 41.2259 86.5779 41.3444 86.7543C41.4259 86.8756 41.4697 87.0123 41.4757 87.1642C41.4864 87.3171 41.445 87.4729 41.3516 87.6317C41.2628 87.7913 41.1122 87.9425 40.9 88.0851C40.6132 88.2776 40.3432 88.379 40.0899 88.3891C39.8413 88.4 39.6429 88.2953 39.4947 88.0747C39.4373 87.9892 39.402 87.8889 39.3887 87.7738C39.38 87.6597 39.4003 87.532 39.4495 87.3909C39.375 87.405 39.3064 87.413 39.2438 87.4151C39.182 87.4126 39.1244 87.4072 39.071 87.3991L39.0043 87.2999L39.1155 86.6971C38.8631 86.6666 38.6618 86.5397 38.5118 86.3164C38.4211 86.1813 38.3704 86.0373 38.3597 85.8845C38.35 85.727 38.3849 85.5735 38.4645 85.424C38.5442 85.2745 38.6708 85.1414 38.8445 85.0248C38.9603 84.947 39.0789 84.8913 39.2004 84.8577L39.9655 84.3439L40.1599 84.6334L39.8099 84.8985C39.952 84.9671 40.0693 85.0703 40.1619 85.2081C40.2545 85.346 40.3047 85.4923 40.3126 85.647C40.3233 85.7999 40.2888 85.951 40.2092 86.1005C40.1323 86.2482 40.007 86.3803 39.8333 86.497ZM39.6028 86.1538C39.7296 86.0686 39.8094 85.967 39.8422 85.849C39.8758 85.7263 39.851 85.603 39.7677 85.4789C39.6825 85.3521 39.5777 85.2825 39.4533 85.27C39.3317 85.2557 39.2074 85.2911 39.0806 85.3763C38.951 85.4633 38.8685 85.5668 38.833 85.6866C38.8002 85.8047 38.8264 85.9271 38.9116 86.0539C38.9949 86.178 39.0983 86.2485 39.2218 86.2656C39.3462 86.2781 39.4732 86.2408 39.6028 86.1538ZM39.8805 87.7556C39.9601 87.8741 40.0718 87.9272 40.2154 87.9147C40.3609 87.905 40.5123 87.8474 40.6694 87.7418C40.821 87.64 40.9215 87.5245 40.9708 87.3953C41.022 87.269 41.0114 87.152 40.9392 87.0445C40.8855 86.9645 40.8075 86.9169 40.7052 86.9016C40.6048 86.8891 40.4617 86.9351 40.276 87.0399C40.1381 87.1205 40.0126 87.1868 39.8995 87.2388C39.8381 87.3559 39.8099 87.4569 39.8148 87.5416C39.8197 87.6264 39.8416 87.6977 39.8805 87.7556ZM44.0832 84.6267C43.8103 84.8101 43.5301 84.9082 43.2428 84.9212C42.9554 84.9341 42.6802 84.8669 42.4172 84.7195C42.1542 84.5721 41.9227 84.3496 41.7227 84.0518C41.5245 83.7568 41.4074 83.4574 41.3714 83.1535C41.3353 82.8497 41.3809 82.563 41.508 82.2936C41.636 82.0196 41.8461 81.7845 42.1384 81.5882C42.4692 81.366 42.7986 81.2607 43.1266 81.2725C43.4545 81.2843 43.7461 81.4085 44.0011 81.6453L43.5048 81.9786C43.357 81.8539 43.1887 81.7909 42.9999 81.7897C42.811 81.7885 42.6146 81.8564 42.4106 81.9935C42.1073 82.1972 41.9346 82.4552 41.8924 82.7676C41.8501 83.08 41.9448 83.4085 42.1762 83.7532C42.4077 84.0978 42.6737 84.3092 42.9743 84.3874C43.2748 84.4656 43.5671 84.4093 43.8511 84.2186C44.1378 84.026 44.2982 83.8002 44.3323 83.5413C44.3692 83.2804 44.3093 83.0066 44.1526 82.7198L43.3669 83.2475L43.1391 82.9084L44.3674 82.0834L45.4229 83.6549L45.0217 83.9244L44.6984 83.5234C44.7038 83.7399 44.6612 83.9385 44.5706 84.1194C44.48 84.3002 44.3176 84.4693 44.0832 84.6267ZM45.9384 83.3087L44.5607 81.2575L44.9535 80.9936L45.2519 81.3574C45.2328 81.1741 45.2608 81.0013 45.3357 80.8389C45.4116 80.6719 45.5405 80.5273 45.7225 80.4051L46.0308 80.8642L45.9109 80.9447C45.7896 81.0262 45.6946 81.12 45.6258 81.2262C45.558 81.3277 45.5276 81.4462 45.5345 81.5816C45.5423 81.7124 45.6027 81.8618 45.7157 82.03L46.3767 83.0143L45.9384 83.3087ZM48.2375 81.8365C48.0638 81.9532 47.901 82.0205 47.7491 82.0385C47.5971 82.0566 47.4621 82.0372 47.344 81.9805C47.2241 81.9211 47.1261 81.8348 47.0502 81.7218C46.9169 81.5233 46.8885 81.3143 46.9652 81.0948C47.0418 80.8753 47.2234 80.6692 47.5102 80.4767L48.0478 80.1156L48.0228 80.0783C47.9154 79.9184 47.7907 79.8281 47.6488 79.8074C47.5096 79.7849 47.3711 79.8199 47.2333 79.9125C47.112 79.994 47.0262 80.0956 46.976 80.2174C46.9266 80.3345 46.9312 80.4575 46.9897 80.5862L46.5513 80.8807C46.4651 80.7225 46.4295 80.5624 46.4446 80.4002C46.4606 80.2334 46.5163 80.078 46.6116 79.934C46.7078 79.7854 46.8359 79.6573 46.9958 79.5499C47.2825 79.3573 47.5554 79.2841 47.8143 79.3302C48.0715 79.3735 48.2871 79.5248 48.4612 79.7839L49.3083 81.0453L48.9279 81.3008L48.6546 80.9743C48.6726 81.1262 48.6524 81.2778 48.5939 81.4291C48.5355 81.5803 48.4167 81.7161 48.2375 81.8365ZM48.0855 81.4225C48.204 81.3429 48.2847 81.2487 48.3277 81.1398C48.3715 81.0264 48.384 80.908 48.3651 80.7846C48.349 80.6594 48.3085 80.5365 48.2437 80.4161L47.7557 80.7439C47.582 80.8605 47.4783 80.9742 47.4446 81.0848C47.4136 81.1936 47.4287 81.2935 47.4898 81.3845C47.5528 81.4782 47.6372 81.5295 47.7432 81.5384C47.8501 81.5426 47.9642 81.504 48.0855 81.4225ZM49.8195 80.702L48.4418 78.6507L48.8305 78.3896L49.0622 78.6541C49.058 78.5049 49.0892 78.3639 49.156 78.231C49.2256 78.0963 49.332 77.9808 49.4754 77.8845C49.8007 77.666 50.1129 77.6423 50.4119 77.8135C50.4068 77.645 50.443 77.4846 50.5208 77.3323C50.6013 77.1782 50.7147 77.0521 50.8608 76.954C51.1172 76.7817 51.3703 76.7238 51.6201 76.78C51.87 76.8363 52.0976 77.0174 52.3032 77.3234L53.0948 78.5021L52.6564 78.7965L51.8954 77.6634C51.6287 77.2663 51.3438 77.1697 51.0405 77.3734C50.8861 77.4771 50.7982 77.6202 50.7767 77.8026C50.758 77.9832 50.8208 78.181 50.9652 78.3961L51.6763 79.4548L51.238 79.7492L50.4769 78.6161C50.2102 78.2191 49.9239 78.1233 49.6179 78.3289C49.4662 78.4307 49.3797 78.5729 49.3582 78.7553C49.3395 78.936 49.4023 79.1338 49.5468 79.3488L50.2578 80.4075L49.8195 80.702ZM53.6077 78.1576L52.23 76.1064L52.6187 75.8453L52.8504 76.1098C52.8462 75.9605 52.8775 75.8195 52.9442 75.6866C53.0138 75.5519 53.1202 75.4364 53.2636 75.3401C53.5889 75.1216 53.9011 75.098 54.2002 75.2692C54.195 75.1006 54.2313 74.9402 54.309 74.788C54.3896 74.6339 54.5029 74.5077 54.649 74.4096C54.9054 74.2374 55.1585 74.1794 55.4083 74.2356C55.6582 74.2919 55.8858 74.473 56.0914 74.7791L56.883 75.9577L56.4447 76.2521L55.6836 75.119C55.4169 74.722 55.132 74.6253 54.8287 74.829C54.6743 74.9327 54.5864 75.0758 54.5649 75.2582C54.5462 75.4389 54.609 75.6367 54.7535 75.8517L55.4645 76.9104L55.0262 77.2049L54.2651 76.0717C53.9984 75.6747 53.7121 75.579 53.4061 75.7845C53.2544 75.8864 53.1679 76.0285 53.1464 76.211C53.1277 76.3916 53.1905 76.5894 53.335 76.8045L54.0461 77.8632L53.6077 78.1576ZM58.124 75.1962C57.9503 75.3129 57.7875 75.3802 57.6356 75.3982C57.4836 75.4163 57.3486 75.3969 57.2305 75.3402C57.1106 75.2808 57.0126 75.1945 56.9367 75.0815C56.8034 74.883 56.775 74.674 56.8517 74.4545C56.9283 74.235 57.1099 74.0289 57.3967 73.8364L57.9343 73.4753L57.9093 73.438C57.8019 73.2781 57.6772 73.1878 57.5353 73.1671C57.3961 73.1446 57.2576 73.1796 57.1198 73.2722C56.9985 73.3537 56.9127 73.4553 56.8624 73.5771C56.8131 73.6942 56.8177 73.8172 56.8762 73.9459L56.4378 74.2403C56.3516 74.0822 56.316 73.9221 56.3311 73.7599C56.3471 73.5931 56.4028 73.4377 56.4981 73.2937C56.5943 73.145 56.7223 73.017 56.8823 72.9096C57.169 72.717 57.4419 72.6438 57.7008 72.6899C57.958 72.7332 58.1736 72.8844 58.3477 73.1436L59.1948 74.4049L58.8144 74.6605L58.5411 74.334C58.5591 74.4859 58.5389 74.6375 58.4804 74.7888C58.422 74.94 58.3032 75.0758 58.124 75.1962ZM57.972 74.7822C58.0905 74.7026 58.1712 74.6084 58.2142 74.4995C58.258 74.3861 58.2705 74.2677 58.2516 74.1443C58.2355 74.0191 58.195 73.8962 58.1302 73.7758L57.6422 74.1036C57.4685 74.2202 57.3648 74.3339 57.3311 74.4445C57.3001 74.5533 57.3152 74.6532 57.3763 74.7442C57.4393 74.8379 57.5237 74.8892 57.6297 74.8981C57.7366 74.9023 57.8507 74.8637 57.972 74.7822ZM59.706 74.0616L58.3283 72.0104L58.7211 71.7465L59.0195 72.1103C59.0004 71.927 59.0284 71.7542 59.1033 71.5919C59.1792 71.4249 59.3081 71.2803 59.4901 71.1581L59.7984 71.6171L59.6785 71.6977C59.5572 71.7791 59.4622 71.873 59.3934 71.9791C59.3256 72.0807 59.2952 72.1991 59.3021 72.3345C59.3099 72.4653 59.3703 72.6148 59.4833 72.783L60.1443 73.7672L59.706 74.0616ZM61.3018 73.0258C61.2191 73.0814 61.1325 73.1015 61.0422 73.0861C60.9528 73.0662 60.8831 73.019 60.8331 72.9445C60.7812 72.8673 60.7639 72.785 60.7811 72.6974C60.7992 72.6052 60.8496 72.5314 60.9323 72.4758C61.015 72.4203 61.1011 72.4025 61.1905 72.4224C61.2781 72.4396 61.3478 72.4868 61.3997 72.564C61.4497 72.6384 61.467 72.7208 61.4516 72.8112C61.4344 72.8987 61.3845 72.9703 61.3018 73.0258ZM62.1983 72.4236C62.1156 72.4792 62.0291 72.4993 61.9388 72.484C61.8494 72.464 61.7797 72.4168 61.7297 72.3424C61.6778 72.2652 61.6605 72.1828 61.6777 72.0952C61.6958 72.003 61.7462 71.9292 61.8289 71.8736C61.9116 71.8181 61.9977 71.8003 62.0871 71.8202C62.1747 71.8374 62.2444 71.8846 62.2962 71.9618C62.3462 72.0363 62.3636 72.1186 62.3482 72.209C62.331 72.2965 62.281 72.3681 62.1983 72.4236ZM63.0949 71.8215C63.0122 71.877 62.9257 71.8971 62.8354 71.8818C62.7459 71.8618 62.6762 71.8146 62.6262 71.7402C62.5744 71.663 62.5571 71.5806 62.5743 71.493C62.5924 71.4009 62.6428 71.327 62.7255 71.2714C62.8082 71.2159 62.8943 71.1981 62.9837 71.218C63.0712 71.2352 63.1409 71.2824 63.1928 71.3596C63.2428 71.4341 63.2601 71.5165 63.2448 71.6068C63.2276 71.6943 63.1776 71.7659 63.0949 71.8215Z" fill="#E2F2F8"/>
<rect x="85" y="120" width="46.6364" height="12" transform="rotate(-33.89 85 120)" fill="url(#pattern1)"/>
<defs>
<filter id="filter0_d_417_21267" x="8.60217" y="0.165643" width="221.787" height="246.518" filterUnits="userSpaceOnUse" color-interpolation-filters="sRGB">
<feFlood flood-opacity="0" result="BackgroundImageFix"/>
<feColorMatrix in="SourceAlpha" type="matrix" values="0 0 0 0 0 0 0 0 0 0 0 0 0 0 0 0 0 0 127 0" result="hardAlpha"/>
<feOffset dx="11.4206" dy="11.4206"/>
<feGaussianBlur stdDeviation="14.6988"/>
<feComposite in2="hardAlpha" operator="out"/>
<feColorMatrix type="matrix" values="0 0 0 0 0.625 0 0 0 0 0.625 0 0 0 0 0.625 0 0 0 0.1 0"/>
<feBlend mode="normal" in2="BackgroundImageFix" result="effect1_dropShadow_417_21267"/>
<feBlend mode="normal" in="SourceGraphic" in2="effect1_dropShadow_417_21267" result="shape"/>
</filter>
<pattern id="pattern0" patternContentUnits="objectBoundingBox" width="1" height="1">
<use xlink:href="#image0_417_21267" transform="translate(-0.586066) scale(0.00168644 0.000776398)"/>
</pattern>
<pattern id="pattern1" patternContentUnits="objectBoundingBox" width="1" height="1">
<use xlink:href="#image1_417_21267" transform="translate(0 -0.888597) scale(0.000244141 0.000948819)"/>
</pattern>
<clipPath id="clip0_417_21267">
<rect x="29" y="63" width="77.4065" height="168.137" rx="5.28733" transform="rotate(-33.8875 29 63)" fill="white"/>
</clipPath>
</defs>
</svg>
