<svg width="42" height="60" viewBox="0 0 42 60" fill="none" xmlns="http://www.w3.org/2000/svg">
<path d="M39.838 11.2956C39.838 16.4607 35.6509 20.6478 30.4858 20.6478H20.8906V1.94336H30.4858C35.6509 1.94336 39.838 6.13049 39.838 11.2956Z" stroke="#5A5A5A" stroke-width="2.93928"/>
<path d="M1.94336 11.2956C1.94336 16.4607 6.13048 20.6478 11.2956 20.6478H20.8907V1.94336H11.2956C6.13048 1.94336 1.94336 6.13049 1.94336 11.2956Z" stroke="#5A5A5A" stroke-width="2.93928"/>
<path d="M1.94336 30.0002C1.94336 35.1653 6.13048 39.3524 11.2956 39.3524H20.8907V20.6479H11.2956C6.13048 20.6479 1.94336 24.8351 1.94336 30.0002Z" stroke="#5A5A5A" stroke-width="2.93928"/>
<path d="M1.94336 48.7043C1.94336 53.8694 6.19083 58.0565 11.3559 58.0565C16.5881 58.0565 20.8907 53.815 20.8907 48.5828V39.3521H11.2956C6.13048 39.3521 1.94336 43.5392 1.94336 48.7043Z" stroke="#5A5A5A" stroke-width="2.93928"/>
<path d="M20.8906 30.0002C20.8906 35.1653 25.0778 39.3524 30.2429 39.3524H30.4858C35.6509 39.3524 39.838 35.1653 39.838 30.0002C39.838 24.8351 35.6509 20.6479 30.4858 20.6479H30.2429C25.0778 20.6479 20.8906 24.8351 20.8906 30.0002Z" stroke="#5A5A5A" stroke-width="2.93928"/>
</svg>
