<svg width="282" height="60" viewBox="0 0 282 60" fill="none" xmlns="http://www.w3.org/2000/svg">
<g style="mix-blend-mode:luminosity" opacity="0.2" clip-path="url(#clip0_822_8868)">
<path d="M68.7644 30.3606C60.3399 21.9952 54.3635 11.5385 51.3393 0H17.6411C14.5449 11.4663 8.42454 21.9952 0 30.3606L16.8491 60C28.2978 56.899 40.4666 56.899 51.6993 60L68.9084 30.3606H68.7644ZM15.049 17.6683H54.0755L55.0115 19.4712L35.4263 53.4375H33.4101L13.9689 19.4712L15.049 17.6683Z" fill="#959595"/>
<path d="M106.351 19.2548C106.351 15.649 102.895 12.548 98.3583 12.548C93.678 12.548 90.7978 14.4952 90.7978 17.7403C90.7978 21.923 95.5501 21.923 104.335 23.798C116.215 26.25 122.264 29.8557 122.264 40.6009C122.264 52.4278 111.247 59.423 98.0703 59.423C83.0933 59.423 74.0928 50.9134 74.0928 39.8798L88.9977 40.024C89.7178 45.5048 94.038 47.524 99.1504 47.524C103.759 47.524 106.999 45.9375 106.999 42.4759C106.999 39.7355 105.487 38.4375 99.1504 36.9952C89.3577 34.7596 75.6769 34.2548 75.6769 18.5336C75.6769 8.00477 84.3894 1.15381 98.0703 1.15381C112.399 1.15381 120.968 8.29323 120.968 19.1827H106.351V19.2548Z" fill="#959595"/>
<path d="M145.089 28.9905H154.018V18.1732H145.089V5.91357H131.336V15.0001C131.336 17.0193 130.688 18.2453 128.672 18.2453H124.64V28.9905H131.408V46.8751C131.408 53.9424 135.44 58.702 144.009 58.702H153.946V47.3799H148.329C146.313 47.3799 145.089 46.2261 145.089 44.2068V28.9905Z" fill="#959595"/>
<path d="M179.579 17.3076C166.042 17.3076 156.682 25.1682 156.682 38.3653C156.682 51.3461 166.042 59.5672 179.579 59.5672C193.116 59.5672 201.901 51.4182 201.901 38.3653C201.901 25.1682 193.044 17.3076 179.579 17.3076ZM179.579 48.3172C173.603 48.3172 171.011 43.3413 171.011 38.3653C171.011 33.5336 173.603 28.5576 179.579 28.5576C185.339 28.5576 187.428 33.4615 187.428 38.3653C187.428 43.2692 185.339 48.3172 179.579 48.3172Z" fill="#959595"/>
<path d="M217.886 18.2451H205.501V58.7019H219.254V39.3749C219.254 33.9663 221.27 30.072 227.534 30.072H233.943V18.2451H231.927C225.446 18.2451 222.134 20.2643 219.974 24.8797H219.11C219.038 24.8797 217.886 18.2451 217.886 18.2451Z" fill="#959595"/>
<path d="M267.497 22.0673H266.633C264.689 19.2548 260.153 17.3077 255.256 17.3077C245.824 17.3077 236.031 24.375 236.031 38.3653C236.031 52.3557 245.824 59.5673 255.256 59.5673C260.369 59.5673 264.401 57.3317 266.561 53.7259H267.425L268.721 58.7019H281.178V2.09131H267.425V22.0673H267.497ZM258.857 48.3173C252.88 48.3173 250.288 43.2692 250.288 38.3653C250.288 33.5336 252.88 28.5577 258.857 28.5577C264.617 28.5577 266.705 33.4615 266.705 38.3653C266.705 43.2692 264.617 48.3173 258.857 48.3173Z" fill="#959595"/>
</g>
<defs>
<clipPath id="clip0_822_8868">
<rect width="281.25" height="60" fill="white"/>
</clipPath>
</defs>
</svg>
