<svg width="168" height="60" viewBox="0 0 168 60" fill="none" xmlns="http://www.w3.org/2000/svg">
<path d="M145.3 54.2285C137.563 54.2285 129.907 48.455 129.907 34.2192C129.907 25.025 135.828 17.8182 143.12 17.8182C148.389 17.8182 154.402 20.0297 156.491 25.2325C156.53 31.1195 156.575 37.674 156.619 42.9482C156.343 49.5222 150.556 54.2285 145.298 54.2285H145.3ZM167.816 53.9907C167.816 53.6547 167.519 53.5215 167.213 53.388C166.541 53.1197 165.901 52.775 165.307 52.36C164.882 51.9847 164.547 51.5182 164.327 50.9952C164.107 50.4722 164.009 49.9062 164.038 49.3395L164.053 1.70976C164.053 -0.179304 163.186 -0.287741 161.262 0.359309C161.262 0.359309 153.391 2.97889 153.224 3.04309C153.056 3.10729 152.622 3.28564 152.622 3.69087V4.98139C152.622 5.31739 152.918 5.44582 153.224 5.58419C153.887 5.92517 154.512 6.33424 155.09 6.80482C155.524 7.17372 155.869 7.63732 156.096 8.16002C156.324 8.68272 156.429 9.25069 156.403 9.82034C156.403 9.82034 156.428 13.9331 156.462 19.6224C153.717 16.9336 149.397 14.9411 143.571 14.9411C131.599 14.9411 122.325 24.4021 122.325 37.1105C122.325 51.1687 132.016 60.0012 143.758 60.0012C149.744 60.0012 154.369 56.2545 157.114 51.6545V58.1677C157.114 60.076 157.923 60.4265 159.637 59.5232C159.637 59.5232 167.083 55.999 167.226 55.9297C167.385 55.8585 167.829 55.6137 167.829 55.282V53.9907H167.816ZM32.1383 49.6855C31.2298 52.4485 28.4599 55.0437 25.4577 55.0437C22.1249 55.0437 19.7847 51.4205 19.7847 46.463V19.4255H33.5008C33.6604 19.4247 33.8129 19.361 33.9258 19.2481C34.0387 19.1352 34.1024 18.9823 34.1031 18.8227V16.4256C34.1024 16.266 34.0387 16.1131 33.9258 16.0002C33.8129 15.8873 33.6604 15.8236 33.5008 15.8228H19.7847L19.7106 6.06147C19.7098 5.90182 19.6461 5.74892 19.5334 5.63604C19.4206 5.52314 19.2679 5.45939 19.1084 5.45864H16.4169C16.3378 5.45854 16.2595 5.47409 16.1864 5.50434C16.1133 5.53459 16.0469 5.57899 15.991 5.63499C15.935 5.69099 15.8907 5.75749 15.8604 5.83067C15.8302 5.90384 15.8147 5.98227 15.8148 6.06147V7.53962C15.6224 14.2077 8.85266 15.8193 4.59202 15.8193H0.602158C0.522617 15.8197 0.443942 15.8359 0.370633 15.8668C0.297322 15.8977 0.230812 15.9427 0.174897 15.9994C0.118982 16.056 0.0747584 16.1231 0.0447513 16.1969C0.0147442 16.2706 -0.000458738 16.3496 1.05418e-05 16.4292V18.8262C0.000760113 18.9859 0.0644414 19.1388 0.177204 19.2516C0.289968 19.3645 0.442691 19.4283 0.602158 19.429H11.6774V46.374C11.6774 55.5682 16.3585 59.982 23.2928 59.982C29.7774 59.982 33.2466 55.4162 34.5206 50.536C35.0908 48.3907 32.6342 48.1817 32.1405 49.6855H32.1383ZM121.109 55.7357C120.368 55.7005 119.654 55.4442 119.06 54.9995C118.753 54.6832 118.513 54.3085 118.354 53.8975C118.195 53.4865 118.12 53.0475 118.134 52.6067V34.857C118.134 20.7895 109.202 14.9418 100.378 14.9418C97.4999 14.8819 94.6613 15.6258 92.1811 17.0899C89.7011 18.554 87.6771 20.6806 86.3361 23.2314V16.6518C86.3361 14.7435 85.5757 14.4966 83.8126 15.2963C83.8126 15.2963 76.3567 18.8155 76.2236 18.8847C76.0652 18.9561 75.6212 19.2008 75.6212 19.5325V20.8223C75.6212 21.1583 75.9179 21.2917 76.2236 21.4251C76.8956 21.6914 77.5339 22.0365 78.1247 22.4531C78.552 22.8281 78.8889 23.295 79.1104 23.8188C79.3319 24.3426 79.4323 24.9098 79.4038 25.478V52.7852C79.4163 53.237 79.3301 53.6862 79.1511 54.101C78.9718 54.516 78.7043 54.8867 78.3669 55.1872C77.8063 55.5487 77.1528 55.7395 76.4858 55.7357C76.3262 55.7365 76.1736 55.8002 76.0607 55.9132C75.9481 56.026 75.8844 56.179 75.8837 56.3385V58.583C75.8844 58.7425 75.9481 58.8955 76.0607 59.0085C76.1736 59.1212 76.3262 59.185 76.4858 59.1857H90.2318C90.3109 59.186 90.3893 59.1702 90.4625 59.14C90.5354 59.1097 90.6018 59.0655 90.6578 59.0095C90.7137 58.9535 90.7582 58.887 90.7884 58.8137C90.8186 58.7405 90.8341 58.6622 90.8341 58.583V56.3385C90.8333 56.179 90.7697 56.026 90.6568 55.9132C90.5442 55.8002 90.3913 55.7365 90.2318 55.7357C89.4289 55.7235 88.654 55.4377 88.0349 54.9255C87.5003 54.3435 87.2134 53.5755 87.2353 52.7852V30.8875C87.2353 23.77 91.8275 18.451 98.4881 18.451C104.699 18.451 110.353 23.7351 110.353 34.6735V52.696C110.38 53.4752 110.141 54.2405 109.677 54.8662C109.444 55.1315 109.159 55.3457 108.839 55.4952C108.52 55.645 108.173 55.7267 107.82 55.7357C107.661 55.7365 107.508 55.8002 107.395 55.9132C107.283 56.026 107.219 56.179 107.218 56.3385V58.583C107.219 58.7425 107.283 58.8955 107.395 59.0085C107.508 59.1212 107.661 59.185 107.82 59.1857H121.107C121.186 59.186 121.264 59.1702 121.337 59.14C121.41 59.1097 121.477 59.0655 121.533 59.0095C121.589 58.9535 121.633 58.887 121.663 58.8137C121.694 58.7405 121.709 58.6622 121.709 58.583V56.3385C121.71 56.2597 121.695 56.1815 121.665 56.1082C121.635 56.0352 121.591 55.9687 121.536 55.9127C121.48 55.8567 121.414 55.8122 121.341 55.7817C121.269 55.7515 121.191 55.7357 121.112 55.7357H121.109ZM43.1438 34.2242C43.164 36.3517 43.4392 38.4692 43.9634 40.5312L63.5107 30.5857C65.0265 29.7162 65.6735 28.9642 65.6735 27.432C65.6735 23.3784 61.6592 17.8275 55.4476 17.8275C48.1498 17.8225 43.1431 25.0327 43.1431 34.2235L43.1438 34.2242ZM74.7112 47.1095C73.6282 52.5177 67.688 59.994 56.438 59.994C44.8227 59.994 35.5525 51.1607 35.5525 37.1035C35.5495 24.3957 44.8227 14.9368 56.7944 14.9368C67.5974 14.9368 73.2314 21.7683 73.2314 27.245C73.2314 30.127 71.6806 31.081 68.9998 32.5632L45 43.596C45.8925 46.6767 47.7644 49.3822 50.3313 51.302C52.8985 53.2215 56.021 54.2507 59.2252 54.2335C65.8858 54.2435 70.1171 50.7192 72.0969 46.394C72.215 46.0752 72.4478 45.8122 72.7499 45.657C73.0518 45.5015 73.4012 45.465 73.7286 45.5545C74.0562 45.644 74.3384 45.853 74.52 46.1405C74.7013 46.4277 74.7684 46.7727 74.7085 47.1072" fill="#B7A072"/>
</svg>
